STARTFONT 2.1
FONT -FontForge-Lato-Book-R-Normal--74-710-75-75-P-383-ISO10646-1
SIZE 71 75 75
FONTBOUNDINGBOX 90 83 -7 -15
COMMENT "Generated by fontforge, http://fontforge.sourceforge.net"
COMMENT "Copyright (c) 2010-2011 by tyPoland Lukasz Dziedzic with Reserved Font Name "Lato". Licensed under the SIL Open Font License, Version 1.1."
STARTPROPERTIES 41
FOUNDRY "FontForge"
FAMILY_NAME "Lato"
WEIGHT_NAME "Book"
SLANT "R"
SETWIDTH_NAME "Normal"
ADD_STYLE_NAME ""
PIXEL_SIZE 74
POINT_SIZE 710
RESOLUTION_X 75
RESOLUTION_Y 75
SPACING "P"
AVERAGE_WIDTH 383
CHARSET_REGISTRY "ISO10646"
CHARSET_ENCODING "1"
FONTNAME_REGISTRY ""
CHARSET_COLLECTIONS "ISO10646-1"
FONT_NAME "Lato-Regular"
FACE_NAME "Lato Regular"
COPYRIGHT "Copyright (c) 2010-2011 by tyPoland Lukasz Dziedzic with Reserved Font Name "Lato". Licensed under the SIL Open Font License, Version 1.1."
FONT_VERSION "1.104; Western+Polish opensource"
FONT_ASCENT 60
FONT_DESCENT 14
UNDERLINE_POSITION -7
UNDERLINE_THICKNESS 5
X_HEIGHT 36
CAP_HEIGHT 52
DEFAULT_CHAR 1
RAW_ASCENT 805
RAW_DESCENT 195
NORM_SPACE 14
RELATIVE_WEIGHT 40
RELATIVE_SETWIDTH 50
SUPERSCRIPT_X 0
SUPERSCRIPT_Y 35
SUPERSCRIPT_SIZE 48
SUBSCRIPT_X 0
SUBSCRIPT_Y 10
SUBSCRIPT_SIZE 48
FIGURE_WIDTH 43
AVG_LOWERCASE_WIDTH 374
AVG_UPPERCASE_WIDTH 490
ENDPROPERTIES
CHARS 275
STARTCHAR NULL.dup1
ENCODING 0
SWIDTH 0 0
DWIDTH 0 0
BBX 1 1 0 0
BITMAP
00
ENDCHAR
STARTCHAR nonmarkingreturn
ENCODING 13
SWIDTH 0 0
DWIDTH 0 0
BBX 1 1 0 0
BITMAP
00
ENDCHAR
STARTCHAR space
ENCODING 32
SWIDTH 193 0
DWIDTH 14 0
BBX 1 1 0 0
BITMAP
00
ENDCHAR
STARTCHAR exclam
ENCODING 33
SWIDTH 343 0
DWIDTH 25 0
BBX 9 53 8 0
BITMAP
3F00
3F00
3F00
3F00
3F00
3F00
3F00
3F00
3F00
3F00
3F00
3F00
3F00
3F00
3F00
3F00
3F00
3F00
3F00
3F00
3F00
3F00
3F00
3F00
3F00
3F00
3F00
3F00
3F00
3E00
3E00
3E00
3E00
3E00
0000
0000
0000
0000
0000
0000
0000
0000
0000
0000
0800
3F00
7F80
FF80
FF80
FF80
FF80
7F80
3F00
ENDCHAR
STARTCHAR quotedbl
ENCODING 34
SWIDTH 397 0
DWIDTH 29 0
BBX 18 19 6 34
BITMAP
F80FC0
F80FC0
F80FC0
F80FC0
F80FC0
F80FC0
F80FC0
F80FC0
F80FC0
F80FC0
F80FC0
F80FC0
F80FC0
F80F80
F80F80
F80F80
F80780
F80780
700700
ENDCHAR
STARTCHAR numbersign
ENCODING 35
SWIDTH 580 0
DWIDTH 43 0
BBX 39 53 2 0
BITMAP
0001F00780
0003E00FC0
0003E00FC0
0007E00FC0
0007E00F80
0007E00F80
0007C01F80
0007C01F80
000FC01F80
000FC01F00
000FC01F00
000F803F00
000F803F00
000F803F00
001F803E00
001F803E00
1FFFFFFFFE
3FFFFFFFFE
3FFFFFFFFC
3FFFFFFFFC
3FFFFFFFFC
003F007C00
003E007C00
003E00FC00
003E00FC00
007E00F800
007E00F800
007C01F800
007C01F800
00FC01F000
00FC01F000
00F801F000
FFFFFFFFF0
FFFFFFFFF0
FFFFFFFFF0
FFFFFFFFF0
FFFFFFFFF0
01F803E000
01F007E000
01F007E000
01F007E000
03F007C000
03F007C000
03E00FC000
03E00FC000
03E00FC000
07E00F8000
07E00F8000
07C01F8000
07C01F8000
07C01F8000
0FC01F0000
0F800F0000
ENDCHAR
STARTCHAR dollar
ENCODING 36
SWIDTH 580 0
DWIDTH 43 0
BBX 35 69 4 -8
BITMAP
00000E0000
00001E0000
00003E0000
00003E0000
00003E0000
00003C0000
00003C0000
00003C0000
000FFFC000
003FFFF800
00FFFFFC00
01FFFFFF00
03FFFFFF80
07FE3DFFC0
0FF83C3F80
0FE03C0F80
1FC07C0300
1F807C0000
1F807C0000
3F80780000
3F00780000
3F00780000
3F00780000
3F80780000
3F80780000
1FC0780000
1FC0780000
1FF0780000
0FF8780000
0FFE780000
07FFF80000
03FFF80000
01FFFF0000
007FFFE000
001FFFF800
0007FFFE00
0000FFFF00
0000FFFF80
0000F1FF80
0000F07FC0
0000F03FC0
0000F01FE0
0000F00FE0
0000F007E0
0000F007E0
0000F007E0
0001F007E0
0001F007E0
0001F007E0
0001E00FE0
0001E00FC0
3801E01FC0
7E01E01FC0
7F01E03F80
FFC1E0FF00
7FF1E3FF00
3FFFFFFE00
1FFFFFFC00
07FFFFF800
01FFFFE000
007FFF8000
0003E00000
0003E00000
0003C00000
0003C00000
0003C00000
0003C00000
0003C00000
0003C00000
ENDCHAR
STARTCHAR percent
ENCODING 37
SWIDTH 786 0
DWIDTH 58 0
BBX 52 54 3 0
BITMAP
00200000000000
01FF0000001F80
07FFC000003F00
0FFFE000007E00
1FFFF00000FC00
3F01F80001FC00
7E00F80001F800
7C007C0003F000
FC007C0007E000
F8007E000FE000
F8003E000FC000
F8003E001F8000
F8003E003F0000
F8003E007F0000
F8003E007E0000
F8003E00FC0000
F8003E01F80000
F8003E03F80000
F8007C03F00000
7C007C07E00000
7C00FC0FC00000
3E00F81FC00000
3F83F81F800000
1FFFF03F000000
0FFFE07E000000
07FF80FE000000
00FE00FC000000
000001F8000000
000003F007F000
000007F01FFE00
000007E07FFF00
00000FC0FFFF80
00001F80FC1FC0
00003F81F807E0
00003F03F003E0
00007E03E003E0
0000FC03E001F0
0001FC07E001F0
0001F807C001F0
0003F007C001F0
0007E007C001F0
000FE007C001F0
000FC007C001F0
001F8007C001F0
003F0007C001F0
007F0007E001F0
007E0003E001F0
00FC0003E003E0
01F80001F007E0
03F80001F80FC0
03F00000FFFF80
07E000007FFF00
0FC000003FFE00
1FC000000FF800
ENDCHAR
STARTCHAR ampersand
ENCODING 38
SWIDTH 703 0
DWIDTH 52 0
BBX 49 54 3 0
BITMAP
00000800000000
0000FFE0000000
0007FFF8000000
000FFFFC000000
001FFFFE000000
003FFFFF000000
007FC07F800000
007F003FC00000
00FE001FC00000
00FC000FC00000
01FC0007E00000
01FC0007E00000
01F80003000000
01F80000000000
01F80000000000
01FC0000000000
01FC0000000000
00FC0000000000
00FE0000000000
00FE0000000000
007F0000000000
007F8000000000
003FC000000000
001FE000000000
001FF000000000
003FF800000000
00FFFC00000000
01FFFC0003E000
03FDFE0007E000
07F8FF0007E000
0FE07F8007E000
1FC03FC007C000
3F801FE007C000
3F800FF00FC000
7F0007F80FC000
7F0003FC0F8000
FE0001FE1F8000
FE0000FF1F8000
FE00007FBF0000
FE00003FFF0000
FE00001FFE0000
FE00000FFE0000
FE000007FC0000
FE000003FC0000
7F000003FE0000
7F80000FFF0000
3FC0001FFF8000
3FE0007FFFC000
1FF801FF9FE000
0FFFFFFE0FF000
07FFFFFC07F800
03FFFFF003FC00
00FFFFC001FE00
003FFE0000FF80
ENDCHAR
STARTCHAR quotesingle
ENCODING 39
SWIDTH 230 0
DWIDTH 17 0
BBX 5 19 6 34
BITMAP
F8
F8
F8
F8
F8
F8
F8
F8
F8
F8
F8
F8
F8
F8
F8
F8
F8
F8
70
ENDCHAR
STARTCHAR parenleft
ENCODING 40
SWIDTH 300 0
DWIDTH 22 0
BBX 14 68 5 -11
BITMAP
0020
0078
00FC
00FC
01F8
01F8
03F0
03F0
07E0
07E0
0FC0
0FC0
0FC0
1F80
1F80
1F80
3F00
3F00
3F00
7E00
7E00
7E00
7E00
7E00
7C00
FC00
FC00
FC00
FC00
FC00
FC00
FC00
FC00
FC00
FC00
FC00
FC00
FC00
FC00
FC00
FC00
FC00
FC00
7C00
7E00
7E00
7E00
7E00
3F00
3F00
3F00
3F00
1F80
1F80
1F80
0FC0
0FC0
07E0
07E0
07F0
03F0
03F8
01F8
01FC
00FC
007C
0070
0020
ENDCHAR
STARTCHAR parenright
ENCODING 41
SWIDTH 300 0
DWIDTH 22 0
BBX 14 68 3 -11
BITMAP
3000
7800
F800
FC00
FC00
7E00
7E00
3F00
3F00
1F80
1F80
0FC0
0FC0
0FC0
07E0
07E0
07E0
03F0
03F0
03F0
01F0
01F8
01F8
01F8
01F8
01F8
00F8
00F8
00FC
00FC
00FC
00FC
00FC
00FC
00FC
00FC
00FC
00FC
00FC
00FC
00F8
00F8
01F8
01F8
01F8
01F8
01F8
03F0
03F0
03F0
03F0
07E0
07E0
07E0
0FC0
0FC0
1FC0
1F80
1F80
3F00
3F00
7E00
7E00
FC00
FC00
F800
7000
1000
ENDCHAR
STARTCHAR asterisk
ENCODING 42
SWIDTH 400 0
DWIDTH 30 0
BBX 22 24 4 32
BITMAP
007000
007000
007000
007000
007000
607018
F07078
FC71FC
7F73F0
1FFFC0
07FF80
03FE00
01FC00
07FF00
1FFFC0
3F77F0
FC71F8
F8707C
607038
807010
007000
007000
007000
007000
ENDCHAR
STARTCHAR plus
ENCODING 43
SWIDTH 580 0
DWIDTH 43 0
BBX 35 37 4 6
BITMAP
0001F00000
0001F00000
0001F00000
0001F00000
0001F00000
0001F00000
0001F00000
0001F00000
0001F00000
0001F00000
0001F00000
0001F00000
0001F00000
0001F00000
0001F00000
0001F00000
FFFFFFFFE0
FFFFFFFFE0
FFFFFFFFE0
FFFFFFFFE0
FFFFFFFFE0
0001F00000
0001F00000
0001F00000
0001F00000
0001F00000
0001F00000
0001F00000
0001F00000
0001F00000
0001F00000
0001F00000
0001F00000
0001F00000
0001F00000
0001F00000
0001F00000
ENDCHAR
STARTCHAR comma
ENCODING 44
SWIDTH 212 0
DWIDTH 16 0
BBX 9 19 3 -10
BITMAP
1E00
7F00
7F80
7F80
FF80
7F80
7F80
3F80
1F80
0780
0700
0F00
0F00
1E00
1C00
3C00
7800
7000
2000
ENDCHAR
STARTCHAR hyphen
ENCODING 45
SWIDTH 347 0
DWIDTH 26 0
BBX 18 5 4 19
BITMAP
FFFFC0
FFFFC0
FFFFC0
FFFFC0
FFFFC0
ENDCHAR
STARTCHAR period
ENCODING 46
SWIDTH 212 0
DWIDTH 16 0
BBX 9 9 3 0
BITMAP
0800
3F00
7F80
7F80
FF80
FF80
FF80
7F80
3F00
ENDCHAR
STARTCHAR slash
ENCODING 47
SWIDTH 373 0
DWIDTH 28 0
BBX 28 57 0 -3
BITMAP
000001F0
000003E0
000003E0
000007E0
000007C0
000007C0
00000F80
00000F80
00001F80
00001F00
00001F00
00003E00
00003E00
00007E00
00007C00
00007C00
0000F800
0000F800
0001F800
0001F000
0003F000
0003E000
0003E000
0007E000
0007C000
000FC000
000F8000
000F8000
001F8000
001F0000
003F0000
003E0000
003E0000
007E0000
007C0000
00FC0000
00F80000
00F80000
01F80000
01F00000
03F00000
03E00000
03E00000
07E00000
07C00000
0FC00000
0F800000
0F800000
1F800000
1F000000
3F000000
3E000000
3E000000
7E000000
7C000000
FC000000
F8000000
ENDCHAR
STARTCHAR zero
ENCODING 48
SWIDTH 580 0
DWIDTH 43 0
BBX 39 54 2 0
BITMAP
0000200000
0007FF8000
001FFFF000
007FFFF800
00FFFFFE00
01FFFFFF00
03FE00FF80
07FC007F80
07F0003FC0
0FE0001FE0
0FE0000FE0
1FC00007F0
1FC00007F0
3F800003F8
3F800003F8
3F000003F8
7F000001F8
7F000001FC
7F000001FC
7F000001FC
7E000001FC
7E000000FC
FE000000FC
FE000000FE
FE000000FE
FE000000FE
FE000000FE
FE000000FE
FE000000FE
FE000000FE
FE000000FE
FE000000FE
FE000000FC
7E000000FC
7E000001FC
7F000001FC
7F000001FC
7F000001FC
7F000001F8
3F000003F8
3F800003F8
3F800003F8
1FC00007F0
1FC00007F0
0FE0000FE0
0FE0001FE0
07F0001FC0
07F8007F80
03FE00FF80
01FFFFFF00
00FFFFFE00
007FFFF800
001FFFF000
0007FF8000
ENDCHAR
STARTCHAR one
ENCODING 49
SWIDTH 580 0
DWIDTH 43 0
BBX 32 53 7 0
BITMAP
0000FC00
0003FC00
0007FC00
000FFC00
001FFC00
003FFC00
007FFC00
00FFFC00
03FFFC00
07FDFC00
0FF9FC00
1FF1FC00
3FE1FC00
7F81FC00
FF01FC00
3E01FC00
1C01FC00
0001FC00
0001FC00
0001FC00
0001FC00
0001FC00
0001FC00
0001FC00
0001FC00
0001FC00
0001FC00
0001FC00
0001FC00
0001FC00
0001FC00
0001FC00
0001FC00
0001FC00
0001FC00
0001FC00
0001FC00
0001FC00
0001FC00
0001FC00
0001FC00
0001FC00
0001FC00
0001FC00
0001FC00
0001FC00
0001FC00
0001FC00
0FFFFFFF
0FFFFFFF
0FFFFFFF
0FFFFFFF
0FFFFFFF
ENDCHAR
STARTCHAR two
ENCODING 50
SWIDTH 580 0
DWIDTH 43 0
BBX 35 54 4 0
BITMAP
0000400000
000FFF8000
007FFFE000
00FFFFF000
03FFFFFC00
07FFFFFE00
0FFC03FE00
0FF000FF00
1FE0007F80
1FC0003F80
3F80003F80
3F00001FC0
7F00001FC0
7F00001FC0
7E00001FC0
1C00001FC0
0000001FC0
0000001FC0
0000001FC0
0000001FC0
0000003F80
0000003F80
0000007F80
0000007F00
000000FF00
000001FE00
000001FC00
000003FC00
000007F800
00000FF000
00001FE000
00003FC000
00007F8000
0000FF0000
0001FE0000
0003FC0000
0007F80000
000FF00000
001FE00000
003FC00000
007F800000
00FF000000
01FE000000
03FC000000
07FC000000
0FF8000000
1FF0000000
3FE0000000
7FDFFFFFC0
7FFFFFFFE0
FFFFFFFFE0
FFFFFFFFE0
FFFFFFFFE0
FFFFFFFFE0
ENDCHAR
STARTCHAR three
ENCODING 51
SWIDTH 580 0
DWIDTH 43 0
BBX 36 54 4 0
BITMAP
0000200000
000FFF8000
003FFFF000
00FFFFF800
01FFFFFC00
03FFFFFE00
07FC01FF00
0FF0007F80
0FE0003F80
1FC0001FC0
1FC0001FC0
3F80000FC0
3F80000FC0
3F00000FC0
3F00000FC0
0400000FC0
0000000FC0
0000000FC0
0000001FC0
0000001F80
0000003F80
0000007F00
000001FE00
00000FFC00
0001FFF800
0001FFC000
0001FFE000
0001FFF800
0001FFFE00
00000FFF00
000000FF80
0000003FC0
0000001FC0
0000000FE0
0000000FE0
00000007E0
00000007E0
00000007F0
00000007F0
08000007F0
7C000007F0
FE000007E0
7E00000FE0
7F00000FE0
7F00001FE0
3F80001FC0
3FC0003FC0
1FE000FF80
0FF801FF00
0FFFFFFE00
07FFFFFC00
01FFFFF800
00FFFFE000
001FFF0000
ENDCHAR
STARTCHAR four
ENCODING 52
SWIDTH 580 0
DWIDTH 43 0
BBX 40 53 1 0
BITMAP
0000003F00
0000007F00
000000FF00
000000FF00
000001FF00
000003FF00
000007FF00
000007FF00
00000FDF00
00001FDF00
00003F9F00
00003F1F00
00007E1F00
0000FE1F00
0001FC1F00
0001F81F00
0003F01F00
0007F01F00
000FE01F00
000FC01F00
001F801F00
003F801F00
007F001F00
007E001F00
00FE001F00
01FC001F00
03F8001F00
07F0001F00
07F0001F00
0FE0001F00
1FC0001F00
3F80001F00
3F80001F00
7F00001F00
FFFFFFFFFF
7FFFFFFFFF
7FFFFFFFFF
7FFFFFFFFF
3FFFFFFFFF
0000001F00
0000001F00
0000001F00
0000001F00
0000001F00
0000001F00
0000001F00
0000001F00
0000001F00
0000001F00
0000001F00
0000001F00
0000001F00
0000001F00
ENDCHAR
STARTCHAR five
ENCODING 53
SWIDTH 580 0
DWIDTH 43 0
BBX 34 53 4 0
BITMAP
01FFFFFF00
01FFFFFF00
01FFFFFF00
03FFFFFF00
03FFFFFF00
03FFFFFE00
03F0000000
03E0000000
03E0000000
07E0000000
07E0000000
07E0000000
07E0000000
07C0000000
07C0000000
0FC0000000
0FC0000000
0FC0000000
0F80000000
0F9FFC0000
1FFFFF8000
1FFFFFE000
1FFFFFF000
1FFFFFF800
1FF01FFC00
030003FE00
000001FF00
000000FF00
0000007F80
0000003F80
0000003F80
0000001F80
0000001FC0
0000001FC0
0000001FC0
0000001FC0
0000001FC0
0000001FC0
0000001FC0
0000001F80
0000003F80
0000003F80
0000007F00
0000007F00
000000FE00
3C0001FE00
7F0003FC00
7FC00FF800
FFFFFFF000
7FFFFFE000
1FFFFFC000
07FFFF0000
00FFF80000
ENDCHAR
STARTCHAR six
ENCODING 54
SWIDTH 580 0
DWIDTH 43 0
BBX 36 53 4 0
BITMAP
000007F800
00000FF000
00001FE000
00003FC000
00003FC000
00007F8000
0000FF0000
0001FE0000
0001FC0000
0003FC0000
0007F80000
0007F00000
000FE00000
001FC00000
003FC00000
003F800000
007F000000
00FE000000
01FC000000
01FC000000
03F8FF0000
07F7FFE000
0FFFFFF800
0FFFFFFC00
1FFFFFFE00
1FFE07FF00
3FF000FF80
3FE0007FC0
7FC0003FC0
7F80001FE0
7F00000FE0
FE00000FE0
FE00000FE0
FE000007F0
FE000007F0
FC000007F0
FC000007F0
FC000007F0
FC000007F0
FE000007E0
7E000007E0
7E00000FE0
7F00000FE0
7F00001FC0
3F80003FC0
3FC0007F80
1FE000FF00
0FF803FF00
07FFFFFE00
03FFFFFC00
01FFFFF000
007FFFC000
001FFF0000
ENDCHAR
STARTCHAR seven
ENCODING 55
SWIDTH 580 0
DWIDTH 43 0
BBX 36 53 4 0
BITMAP
FFFFFFFFF0
FFFFFFFFF0
FFFFFFFFF0
FFFFFFFFF0
FFFFFFFFF0
7FFFFFFFF0
00000007E0
0000000FE0
0000000FC0
0000001FC0
0000001F80
0000003F80
0000003F00
0000007F00
0000007E00
000000FE00
000000FC00
000001FC00
000001F800
000003F800
000007F000
000007F000
00000FE000
00000FE000
00001FC000
00001FC000
00003F8000
00003F8000
00007F0000
00007F0000
0000FE0000
0000FE0000
0001FC0000
0001FC0000
0003F80000
0003F80000
0007F00000
0007F00000
000FE00000
000FE00000
001FC00000
001FC00000
003F800000
003F800000
007F000000
007F000000
00FE000000
00FE000000
01FC000000
01FC000000
03F8000000
03F8000000
07F0000000
ENDCHAR
STARTCHAR eight
ENCODING 56
SWIDTH 580 0
DWIDTH 43 0
BBX 35 54 4 0
BITMAP
0000800000
001FFF0000
007FFFC000
01FFFFF000
03FFFFF800
07FFFFFC00
0FF803FE00
1FE000FF00
1FC0007F00
3F80003F80
3F80003F80
3F00001F80
7F00001F80
7F00001F80
7F00001F80
7F00001F80
3F00001F80
3F00001F80
3F80003F80
3F80003F00
1FC0007F00
1FE000FE00
0FF001FE00
07FC07FC00
03FFFFF000
00FFFFE000
007FFFC000
01FFFFF000
07FFFFFC00
0FFC07FE00
1FE000FF00
3FC0007F80
7F80003FC0
7F00001FC0
FE00000FE0
FE00000FE0
FE00000FE0
FC00000FE0
FC00000FE0
FC00000FE0
FC00000FE0
FE00000FE0
FE00000FE0
FE00000FE0
FF00001FC0
7F00001FC0
7F80003FC0
3FC000FF80
1FF003FF00
1FFFFFFE00
07FFFFFC00
03FFFFF800
00FFFFE000
003FFF8000
ENDCHAR
STARTCHAR nine
ENCODING 57
SWIDTH 580 0
DWIDTH 43 0
BBX 35 54 5 0
BITMAP
0000400000
000FFF0000
007FFFE000
00FFFFF000
03FFFFF800
07FFFFFC00
0FF803FE00
1FE000FF00
1FC0007F80
3F80003F80
3F80001FC0
7F00000FC0
7F00000FC0
7E00000FC0
7E00000FE0
7E000007E0
FE000007E0
FE000007E0
7E00000FE0
7E00000FE0
7F00000FE0
7F00001FE0
7F80001FC0
3F80003FC0
3FC0007FC0
1FE001FF80
1FFC07FF80
0FFFFFFF80
07FFFFFF00
03FFFF7E00
00FFFEFE00
001FF1FC00
000001FC00
000003F800
000007F000
00000FF000
00000FE000
00001FC000
00003F8000
00007F8000
00007F0000
0000FE0000
0001FE0000
0003FC0000
0003F80000
0007F80000
000FF00000
001FE00000
003FE00000
003FC00000
007F800000
00FF000000
01FF000000
03FE000000
ENDCHAR
STARTCHAR colon
ENCODING 58
SWIDTH 252 0
DWIDTH 19 0
BBX 9 36 5 0
BITMAP
3C00
7F00
FF00
FF80
FF80
FF80
FF80
7F00
3C00
0000
0000
0000
0000
0000
0000
0000
0000
0000
0000
0000
0000
0000
0000
0000
0000
0000
0000
1000
7E00
FF00
FF80
FF80
FF80
FF80
FF00
7E00
ENDCHAR
STARTCHAR semicolon
ENCODING 59
SWIDTH 252 0
DWIDTH 19 0
BBX 9 46 5 -10
BITMAP
3C00
7F00
FF00
FF80
FF80
FF80
FF80
7F00
3C00
0000
0000
0000
0000
0000
0000
0000
0000
0000
0000
0000
0000
0000
0000
0000
0000
0000
0000
3C00
7F00
FF00
FF80
FF80
FF80
FF80
7F80
3F80
0700
0F00
0F00
1E00
1C00
3C00
7800
F000
E000
4000
ENDCHAR
STARTCHAR less
ENCODING 60
SWIDTH 580 0
DWIDTH 43 0
BBX 29 32 5 9
BITMAP
00000008
00000038
000000F8
000003F8
00000FF8
00003FF8
0000FFF0
0001FFC0
0007FF00
001FFC00
007FF000
01FFC000
07FF0000
1FFC0000
7FF00000
FFC00000
FF800000
FFF00000
3FF80000
0FFE0000
03FF8000
00FFE000
003FF800
000FFE00
0003FF80
0000FFE0
00003FF8
00000FF8
000003F8
000000F8
00000038
00000018
ENDCHAR
STARTCHAR equal
ENCODING 61
SWIDTH 580 0
DWIDTH 43 0
BBX 31 17 6 16
BITMAP
FFFFFFFE
FFFFFFFE
FFFFFFFE
FFFFFFFE
FFFFFFFE
00000000
00000000
00000000
00000000
00000000
00000000
00000000
FFFFFFFE
FFFFFFFE
FFFFFFFE
FFFFFFFE
FFFFFFFE
ENDCHAR
STARTCHAR greater
ENCODING 62
SWIDTH 580 0
DWIDTH 43 0
BBX 28 32 9 9
BITMAP
80000000
E0000000
F8000000
FE000000
FF800000
FFC00000
7FF00000
1FFC0000
07FF0000
01FFC000
007FF000
001FFC00
0007FF00
0001FFC0
00007FF0
00001FF0
00000FF0
00007FF0
0001FFE0
0007FF80
001FFE00
007FF800
00FFE000
03FF8000
0FFE0000
3FF80000
FFE00000
FF800000
FE000000
F8000000
E0000000
80000000
ENDCHAR
STARTCHAR question
ENCODING 63
SWIDTH 398 0
DWIDTH 29 0
BBX 27 54 1 0
BITMAP
00040000
01FFE000
07FFF800
1FFFFE00
3FFFFF00
FFFFFF80
7F007FC0
7C001FC0
38000FC0
00000FE0
000007E0
000007E0
000007E0
000007E0
000007E0
000007E0
00000FE0
00000FC0
00001FC0
00003F80
00007F80
0000FF00
0003FE00
0007FC00
000FF000
001FE000
003FC000
003F8000
003F0000
003E0000
003E0000
003E0000
003E0000
003E0000
003E0000
003E0000
00000000
00000000
00000000
00000000
00000000
00000000
00000000
00000000
00000000
00100000
007E0000
00FF0000
00FF0000
00FF8000
00FF8000
00FF0000
00FF0000
007E0000
ENDCHAR
STARTCHAR at
ENCODING 64
SWIDTH 822 0
DWIDTH 61 0
BBX 55 59 3 -9
BITMAP
000000FFC00000
00000FFFFC0000
00007FFFFF8000
0001FFFFFFE000
0007FF003FF000
000FF80003FC00
001FC00000FE00
003F8000003F00
007E0000001F80
00FC0000000FC0
01F800000007E0
03F000000003E0
07E000000001F0
07C000000001F0
0F8000000000F8
0F80000FFC00F8
1F00007FFF807C
1F0001FFFF807C
3E0003FFFF807C
3E0007F81F003C
7C001FE01F003E
7C001F801F003E
7C003F001F003E
7C007E003E003E
78007C003E003E
F800FC003E003E
F800F8003E003E
F801F8007C003E
F801F0007C003E
F801F0007C003C
F801F0007C007C
F803F000F8007C
F803F000F8007C
F803F000F800F8
7803F001F800F8
7C01F003F801F0
7C01F003F803F0
7C01F807FC07E0
7C00FC1FFE0FC0
3E00FFFF3FFF80
3E007FFE3FFF00
3E003FF81FFC00
1F000FE007F000
1F000000000000
0F800000000000
0FC00000000000
07E00000000000
03E00000000000
03F00000000000
01FC0000000000
00FE00000000C0
007F00000003C0
003FC000000FC0
000FF800007FE0
0007FF8007FF80
0001FFFFFFFE00
00007FFFFFF800
00000FFFFFC000
000000FFF80000
ENDCHAR
STARTCHAR A
ENCODING 65
SWIDTH 680 0
DWIDTH 50 0
BBX 50 53 0 0
BITMAP
000007F8000000
000007F8000000
000007FC000000
00000FFC000000
00000FFE000000
00001FFE000000
00001FFE000000
00001FFF000000
00003FBF000000
00003F3F800000
00007F3F800000
00007F1F800000
00007E1FC00000
0000FE1FC00000
0000FE0FE00000
0001FC0FE00000
0001FC07E00000
0001F807F00000
0003F807F00000
0003F803F80000
0007F003F80000
0007F001F80000
0007E001FC0000
000FE001FC0000
000FE000FE0000
001FC000FE0000
001FC0007E0000
001F80007F0000
003F80007F0000
003F80003F8000
007F00003F8000
007F00001F8000
007F00001FC000
00FFFFFFFFC000
00FFFFFFFFE000
01FFFFFFFFE000
01FFFFFFFFE000
01FFFFFFFFF000
03F8000007F000
03F8000003F800
07F0000003F800
07F0000003F800
07F0000001FC00
0FE0000001FC00
0FE0000000FE00
1FE0000000FE00
1FC0000000FE00
1FC00000007F00
3F800000007F00
3F800000007F80
7F800000003F80
7F000000003F80
FE000000001FC0
ENDCHAR
STARTCHAR B
ENCODING 66
SWIDTH 647 0
DWIDTH 48 0
BBX 38 53 6 0
BITMAP
FFFFFF0000
FFFFFFE000
FFFFFFFC00
FFFFFFFE00
FFFFFFFF00
FF0007FF80
FF00007FC0
FF00003FE0
FF00001FE0
FF00000FE0
FF00000FF0
FF000007F0
FF000007F0
FF000007F0
FF000007F0
FF000007F0
FF000007F0
FF00000FE0
FF00000FE0
FF00000FE0
FF00001FC0
FF00003F80
FF0000FF00
FF0007FE00
FFFFFFF800
FFFFFFE000
FFFFFFF000
FFFFFFFE00
FFFFFFFF80
FF0000FFC0
FF00003FE0
FF00000FF0
FF000007F8
FF000003F8
FF000003F8
FF000003FC
FF000001FC
FF000001FC
FF000001FC
FF000001FC
FF000003FC
FF000003F8
FF000003F8
FF000007F8
FF000007F0
FF00000FF0
FF00003FE0
FF0001FFC0
FFFFFFFF80
FFFFFFFF00
FFFFFFFC00
FFFFFFF000
FFFFFF8000
ENDCHAR
STARTCHAR C
ENCODING 67
SWIDTH 685 0
DWIDTH 51 0
BBX 45 54 3 0
BITMAP
000000200000
00001FFFE000
0000FFFFFC00
0003FFFFFF00
000FFFFFFF80
001FFFFFFFE0
007FFFFFFFF0
00FFF0003FF8
01FFC0000FF0
03FF000003E0
03FE000001C0
07FC00000000
0FF800000000
0FF000000000
1FE000000000
1FE000000000
3FC000000000
3FC000000000
3F8000000000
7F8000000000
7F8000000000
7F0000000000
7F0000000000
7F0000000000
FF0000000000
FF0000000000
FF0000000000
FF0000000000
FF0000000000
FF0000000000
FF0000000000
7F0000000000
7F0000000000
7F0000000000
7F0000000000
7F8000000000
7F8000000000
3F8000000000
3FC000000000
1FC000000000
1FE000000000
1FF000000000
0FF800000000
07F8000000C0
07FE000001E0
03FF000007F0
01FF80000FF8
00FFF0007FF0
007FFFFFFFE0
003FFFFFFFC0
001FFFFFFF00
0007FFFFFE00
0001FFFFF800
00003FFFC000
ENDCHAR
STARTCHAR D
ENCODING 68
SWIDTH 753 0
DWIDTH 56 0
BBX 46 53 6 0
BITMAP
FFFFFFC00000
FFFFFFFC0000
FFFFFFFF0000
FFFFFFFFC000
FFFFFFFFF000
FFFFFFFFF800
FF00007FFC00
FF00000FFE00
FF000003FF00
FF000000FF80
FF0000007FC0
FF0000003FC0
FF0000001FE0
FF0000000FF0
FF0000000FF0
FF00000007F0
FF00000007F8
FF00000003F8
FF00000003F8
FF00000003FC
FF00000003FC
FF00000001FC
FF00000001FC
FF00000001FC
FF00000001FC
FF00000001FC
FF00000001FC
FF00000001FC
FF00000001FC
FF00000001FC
FF00000001FC
FF00000001FC
FF00000003FC
FF00000003FC
FF00000003F8
FF00000003F8
FF00000007F8
FF00000007F0
FF0000000FF0
FF0000000FF0
FF0000001FE0
FF0000003FC0
FF0000007FC0
FF000000FF80
FF000003FF00
FF00000FFE00
FF00007FFC00
FFFFFFFFF800
FFFFFFFFF000
FFFFFFFFC000
FFFFFFFF0000
FFFFFFFC0000
FFFFFFC00000
ENDCHAR
STARTCHAR E
ENCODING 69
SWIDTH 581 0
DWIDTH 43 0
BBX 33 53 6 0
BITMAP
FFFFFFFF80
FFFFFFFF80
FFFFFFFF80
FFFFFFFF80
FFFFFFFF80
FFFFFFFF80
FF00000000
FF00000000
FF00000000
FF00000000
FF00000000
FF00000000
FF00000000
FF00000000
FF00000000
FF00000000
FF00000000
FF00000000
FF00000000
FF00000000
FF00000000
FF00000000
FF00000000
FF00000000
FFFFFFF000
FFFFFFF000
FFFFFFF000
FFFFFFF000
FFFFFFF000
FF00000000
FF00000000
FF00000000
FF00000000
FF00000000
FF00000000
FF00000000
FF00000000
FF00000000
FF00000000
FF00000000
FF00000000
FF00000000
FF00000000
FF00000000
FF00000000
FF00000000
FF00000000
FFFFFFFF80
FFFFFFFF80
FFFFFFFF80
FFFFFFFF80
FFFFFFFF80
FFFFFFFF80
ENDCHAR
STARTCHAR F
ENCODING 70
SWIDTH 566 0
DWIDTH 42 0
BBX 33 53 6 0
BITMAP
FFFFFFFF80
FFFFFFFF80
FFFFFFFF80
FFFFFFFF80
FFFFFFFF80
FFFFFFFF80
FF00000000
FF00000000
FF00000000
FF00000000
FF00000000
FF00000000
FF00000000
FF00000000
FF00000000
FF00000000
FF00000000
FF00000000
FF00000000
FF00000000
FF00000000
FF00000000
FF00000000
FF00000000
FFFFFFF800
FFFFFFF800
FFFFFFF800
FFFFFFF800
FFFFFFF800
FFFFFFF800
FF00000000
FF00000000
FF00000000
FF00000000
FF00000000
FF00000000
FF00000000
FF00000000
FF00000000
FF00000000
FF00000000
FF00000000
FF00000000
FF00000000
FF00000000
FF00000000
FF00000000
FF00000000
FF00000000
FF00000000
FF00000000
FF00000000
FF00000000
ENDCHAR
STARTCHAR G
ENCODING 71
SWIDTH 734 0
DWIDTH 54 0
BBX 47 54 3 0
BITMAP
000000200000
00001FFFF000
0000FFFFFE00
0003FFFFFF80
000FFFFFFFE0
001FFFFFFFF0
007FFFFFFFFC
00FFF0003FFC
01FFC00007F8
03FF000001F8
07FE00000070
07FC00000000
0FF800000000
0FF000000000
1FE000000000
1FC000000000
3FC000000000
3FC000000000
3F8000000000
7F8000000000
7F0000000000
7F0000000000
7F0000000000
7F0000000000
FF0000000000
FF0000000000
FF0000000000
FF0000000000
FF0000000000
FF000003FFFE
FF000003FFFE
7F000003FFFE
7F000003FFFE
7F000001FFFE
7F00000000FE
7F80000000FE
3F80000000FE
3FC0000000FE
3FC0000000FE
1FE0000000FE
1FE0000000FE
0FF0000000FE
0FF8000000FE
07FC000000FE
03FE000000FE
03FF000000FE
01FFC00003FE
00FFF0001FFE
007FFFFFFFFE
001FFFFFFFF8
000FFFFFFFF0
0003FFFFFFC0
0000FFFFFF00
00001FFFF000
ENDCHAR
STARTCHAR H
ENCODING 72
SWIDTH 756 0
DWIDTH 56 0
BBX 43 53 6 0
BITMAP
FF0000000FE0
FF0000000FE0
FF0000000FE0
FF0000000FE0
FF0000000FE0
FF0000000FE0
FF0000000FE0
FF0000000FE0
FF0000000FE0
FF0000000FE0
FF0000000FE0
FF0000000FE0
FF0000000FE0
FF0000000FE0
FF0000000FE0
FF0000000FE0
FF0000000FE0
FF0000000FE0
FF0000000FE0
FF0000000FE0
FF0000000FE0
FF0000000FE0
FF0000000FE0
FF0000000FE0
FFFFFFFFFFE0
FFFFFFFFFFE0
FFFFFFFFFFE0
FFFFFFFFFFE0
FFFFFFFFFFE0
FF0000000FE0
FF0000000FE0
FF0000000FE0
FF0000000FE0
FF0000000FE0
FF0000000FE0
FF0000000FE0
FF0000000FE0
FF0000000FE0
FF0000000FE0
FF0000000FE0
FF0000000FE0
FF0000000FE0
FF0000000FE0
FF0000000FE0
FF0000000FE0
FF0000000FE0
FF0000000FE0
FF0000000FE0
FF0000000FE0
FF0000000FE0
FF0000000FE0
FF0000000FE0
FF0000000FE0
ENDCHAR
STARTCHAR I
ENCODING 73
SWIDTH 307 0
DWIDTH 23 0
BBX 7 53 8 0
BITMAP
FE
FE
FE
FE
FE
FE
FE
FE
FE
FE
FE
FE
FE
FE
FE
FE
FE
FE
FE
FE
FE
FE
FE
FE
FE
FE
FE
FE
FE
FE
FE
FE
FE
FE
FE
FE
FE
FE
FE
FE
FE
FE
FE
FE
FE
FE
FE
FE
FE
FE
FE
FE
FE
ENDCHAR
STARTCHAR J
ENCODING 74
SWIDTH 444 0
DWIDTH 33 0
BBX 24 53 2 0
BITMAP
00007F
00007F
00007F
00007F
00007F
00007F
00007F
00007F
00007F
00007F
00007F
00007F
00007F
00007F
00007F
00007F
00007F
00007F
00007F
00007F
00007F
00007F
00007F
00007F
00007F
00007F
00007F
00007F
00007F
00007F
00007F
00007F
00007F
00007F
00007F
00007F
00007F
00007F
00007F
00007F
00007F
0000FF
0000FE
0001FE
0001FE
0003FC
000FFC
7FFFF8
7FFFF0
FFFFE0
FFFFC0
FFFF00
FFFC00
ENDCHAR
STARTCHAR K
ENCODING 75
SWIDTH 681 0
DWIDTH 50 0
BBX 43 53 7 0
BITMAP
FE0000007F80
FE000000FF00
FE000001FE00
FE000003FC00
FE000007F800
FE00000FF000
FE00001FE000
FE00001FE000
FE00003FC000
FE00007F8000
FE0000FF0000
FE0001FE0000
FE0003FC0000
FE0007F80000
FE000FF80000
FE000FF00000
FE001FE00000
FE003FC00000
FE007F800000
FE00FF000000
FE01FE000000
FE03FC000000
FE03FC000000
FE0FF8000000
FFFFF0000000
FFFFC0000000
FFFFE0000000
FFFFF8000000
FFFFFC000000
FE07FC000000
FE01FE000000
FE01FF000000
FE00FF800000
FE007FC00000
FE003FE00000
FE001FF00000
FE000FF00000
FE0007F80000
FE0003FC0000
FE0003FE0000
FE0001FF0000
FE0000FF8000
FE00007FC000
FE00003FC000
FE00001FE000
FE00000FF000
FE000007F800
FE000003FC00
FE000003FE00
FE000001FF00
FE000000FF00
FE0000007F80
FE0000003FE0
ENDCHAR
STARTCHAR L
ENCODING 76
SWIDTH 514 0
DWIDTH 38 0
BBX 31 53 6 0
BITMAP
FF000000
FF000000
FF000000
FF000000
FF000000
FF000000
FF000000
FF000000
FF000000
FF000000
FF000000
FF000000
FF000000
FF000000
FF000000
FF000000
FF000000
FF000000
FF000000
FF000000
FF000000
FF000000
FF000000
FF000000
FF000000
FF000000
FF000000
FF000000
FF000000
FF000000
FF000000
FF000000
FF000000
FF000000
FF000000
FF000000
FF000000
FF000000
FF000000
FF000000
FF000000
FF000000
FF000000
FF000000
FF000000
FF000000
FF000000
FFFFFFFE
FFFFFFFE
FFFFFFFE
FFFFFFFE
FFFFFFFE
FFFFFFFE
ENDCHAR
STARTCHAR M
ENCODING 77
SWIDTH 920 0
DWIDTH 68 0
BBX 56 53 6 0
BITMAP
FF0000000000FF
FF0000000000FF
FF8000000001FF
FF8000000001FF
FFC000000003FF
FFE000000007FF
FFE000000007FF
FFF00000000FFF
FFF00000000FFF
FFF80000001FFF
FFF80000001FFF
FFFC0000003FFF
FEFE0000003F7F
FEFE0000007F7F
FE7F0000007E7F
FE7F000000FE7F
FE3F800001FC7F
FE3F800001FC7F
FE1FC00003F87F
FE0FC00003F87F
FE0FE00007F07F
FE07F00007E07F
FE07F0000FE07F
FE03F8000FC07F
FE03F8001FC07F
FE01FC003F807F
FE01FC003F807F
FE00FE007F007F
FE007F007F007F
FE007F00FE007F
FE003F80FE007F
FE003F81FC007F
FE001FC1F8007F
FE001FC3F8007F
FE000FE3F0007F
FE000FE7F0007F
FE0007F7E0007F
FE0003FFE0007F
FE0003FFC0007F
FE0001FFC0007F
FE0001FF80007F
FE0000FF80007F
FE0000FF00007F
FE00007E00007F
FE00003E00007F
FE00000000007F
FE00000000007F
FE00000000007F
FE00000000007F
FE00000000007F
FE00000000007F
FE00000000007F
FE00000000007F
ENDCHAR
STARTCHAR N
ENCODING 78
SWIDTH 756 0
DWIDTH 56 0
BBX 43 53 6 0
BITMAP
FC00000007E0
FE00000007E0
FF00000007E0
FF00000007E0
FF80000007E0
FFC0000007E0
FFE0000007E0
FFE0000007E0
FFF0000007E0
FFF8000007E0
FFFC000007E0
FFFE000007E0
FFFE000007E0
FEFF000007E0
FE7F800007E0
FE7FC00007E0
FE3FC00007E0
FE1FE00007E0
FE0FF00007E0
FE07F80007E0
FE07F80007E0
FE03FC0007E0
FE01FE0007E0
FE00FF0007E0
FE00FF8007E0
FE007F8007E0
FE003FC007E0
FE001FE007E0
FE001FF007E0
FE000FF007E0
FE0007F807E0
FE0003FC07E0
FE0003FE07E0
FE0001FE07E0
FE0000FF07E0
FE00007F87E0
FE00003FC7E0
FE00003FE7E0
FE00001FE7E0
FE00000FF7E0
FE000007FFE0
FE000007FFE0
FE000003FFE0
FE000001FFE0
FE000000FFE0
FE000000FFE0
FE0000007FE0
FE0000003FE0
FE0000001FE0
FE0000000FE0
FE0000000FE0
FE00000007E0
FE00000003E0
ENDCHAR
STARTCHAR O
ENCODING 79
SWIDTH 798 0
DWIDTH 59 0
BBX 53 54 3 0
BITMAP
00000020000000
00001FFFC00000
0000FFFFF80000
0003FFFFFE0000
000FFFFFFF8000
001FFFFFFFC000
007FFFFFFFF000
00FFF0007FF800
01FFC0001FFC00
03FF000007FE00
03FE000003FE00
07F8000000FF00
0FF80000007F80
0FF00000007F80
1FE00000003FC0
1FC00000001FC0
3FC00000001FE0
3FC00000000FE0
3F800000000FE0
7F800000000FF0
7F800000000FF0
7F0000000007F0
7F0000000007F0
7F0000000007F0
7F0000000007F8
FF0000000007F8
FF0000000007F8
FF0000000007F8
FF0000000007F8
FF0000000007F8
7F0000000007F8
7F0000000007F0
7F0000000007F0
7F0000000007F0
7F8000000007F0
7F800000000FF0
3F800000000FE0
3F800000000FE0
3FC00000001FE0
1FC00000001FC0
1FE00000003FC0
0FF00000007F80
0FF00000007F80
07F8000000FF00
07FC000001FF00
03FF000007FE00
01FFC0000FFC00
00FFF0007FF800
007FFFFFFFF000
003FFFFFFFE000
000FFFFFFF8000
0003FFFFFE0000
0000FFFFF80000
00001FFFC00000
ENDCHAR
STARTCHAR P
ENCODING 80
SWIDTH 611 0
DWIDTH 45 0
BBX 36 53 7 0
BITMAP
FFFFFC0000
FFFFFFC000
FFFFFFF000
FFFFFFF800
FFFFFFFE00
FE000FFF00
FE0001FF80
FE00007F80
FE00003FC0
FE00003FC0
FE00001FE0
FE00000FE0
FE00000FE0
FE00000FE0
FE00000FF0
FE00000FF0
FE00000FF0
FE00000FF0
FE00000FE0
FE00000FE0
FE00000FE0
FE00001FE0
FE00001FE0
FE00003FC0
FE00007FC0
FE0000FF80
FE0003FF00
FE001FFE00
FFFFFFFC00
FFFFFFF800
FFFFFFE000
FFFFFF8000
FFFFF80000
FE00000000
FE00000000
FE00000000
FE00000000
FE00000000
FE00000000
FE00000000
FE00000000
FE00000000
FE00000000
FE00000000
FE00000000
FE00000000
FE00000000
FE00000000
FE00000000
FE00000000
FE00000000
FE00000000
FE00000000
ENDCHAR
STARTCHAR Q
ENCODING 81
SWIDTH 798 0
DWIDTH 59 0
BBX 55 65 3 -11
BITMAP
00000020000000
00001FFFC00000
0000FFFFF80000
0003FFFFFE0000
000FFFFFFF8000
001FFFFFFFC000
007FFFFFFFF000
00FFF0007FF800
01FFC0001FFC00
03FF000007FE00
03FE000003FE00
07F8000000FF00
0FF80000007F80
0FF00000007F80
1FE00000003FC0
1FC00000001FC0
3FC00000001FE0
3FC00000000FE0
3F800000000FE0
7F800000000FF0
7F800000000FF0
7F0000000007F0
7F0000000007F0
7F0000000007F0
7F0000000007F8
FF0000000007F8
FF0000000007F8
FF0000000007F8
FF0000000007F8
FF0000000007F8
7F0000000007F8
7F0000000007F0
7F0000000007F0
7F0000000007F0
7F8000000007F0
7F800000000FF0
3F800000000FE0
3F800000000FE0
3FC00000001FE0
1FC00000001FC0
1FE00000003FC0
0FF00000007F80
0FF00000007F80
07F8000000FF00
07FC000001FF00
03FF000007FE00
01FFC0000FFC00
00FFF0007FF800
007FFFFFFFF000
003FFFFFFFE000
000FFFFFFFC000
0003FFFFFFE000
0000FFFFFFF000
00001FFFCFF000
0000002007F800
0000000003FC00
0000000001FE00
0000000000FF00
00000000007F80
00000000007FC0
00000000003FE0
00000000001FF0
00000000000FF8
000000000007FC
000000000001FE
ENDCHAR
STARTCHAR R
ENCODING 82
SWIDTH 644 0
DWIDTH 48 0
BBX 39 53 7 0
BITMAP
FFFFF80000
FFFFFF8000
FFFFFFF000
FFFFFFF800
FFFFFFFC00
FE001FFE00
FE0001FF00
FE0000FF80
FE00007F80
FE00003FC0
FE00001FC0
FE00001FC0
FE00001FC0
FE00001FE0
FE00000FE0
FE00000FE0
FE00001FC0
FE00001FC0
FE00001FC0
FE00001FC0
FE00003FC0
FE00003F80
FE00007F80
FE0000FF00
FE0003FE00
FE001FFC00
FFFFFFF800
FFFFFFE000
FFFFFFC000
FFFFFE0000
FFFFFC0000
FE01FE0000
FE00FF0000
FE007F8000
FE003FC000
FE003FC000
FE001FE000
FE000FF000
FE0007F800
FE0007F800
FE0003FC00
FE0001FE00
FE0000FF00
FE0000FF00
FE00007F80
FE00003FC0
FE00003FE0
FE00001FE0
FE00000FF0
FE000007F8
FE000007FC
FE000003FC
FE000001FE
ENDCHAR
STARTCHAR S
ENCODING 83
SWIDTH 530 0
DWIDTH 39 0
BBX 35 54 2 0
BITMAP
0000200000
000FFFC000
003FFFF000
00FFFFFC00
01FFFFFF00
03FFFFFF80
07FFFFFF80
07FC00FF80
0FF0003F00
0FE0000F00
1FC0000000
1FC0000000
1F80000000
3F80000000
3F80000000
3F80000000
3F80000000
1FC0000000
1FC0000000
1FE0000000
1FF0000000
0FFC000000
0FFF800000
07FFF00000
03FFFE0000
01FFFF8000
007FFFE000
001FFFF800
0007FFFC00
0000FFFE00
00001FFF00
000003FF80
000000FF80
0000007FC0
0000003FC0
0000001FC0
0000001FC0
0000000FC0
0000000FE0
0000000FC0
0000000FC0
0000001FC0
0000001FC0
1800001FC0
3C00003F80
7F00007F80
7F8000FF00
FFE003FF00
7FFFFFFE00
3FFFFFFC00
0FFFFFF800
07FFFFF000
01FFFFC000
003FFE0000
ENDCHAR
STARTCHAR T
ENCODING 84
SWIDTH 590 0
DWIDTH 44 0
BBX 42 53 1 0
BITMAP
FFFFFFFFFFC0
FFFFFFFFFFC0
FFFFFFFFFFC0
FFFFFFFFFFC0
FFFFFFFFFFC0
FFFFFFFFFFC0
00007F000000
00007F000000
00007F000000
00007F000000
00007F000000
00007F000000
00007F000000
00007F000000
00007F000000
00007F000000
00007F000000
00007F000000
00007F000000
00007F000000
00007F000000
00007F000000
00007F000000
00007F000000
00007F000000
00007F000000
00007F000000
00007F000000
00007F000000
00007F000000
00007F000000
00007F000000
00007F000000
00007F000000
00007F000000
00007F000000
00007F000000
00007F000000
00007F000000
00007F000000
00007F000000
00007F000000
00007F000000
00007F000000
00007F000000
00007F000000
00007F000000
00007F000000
00007F000000
00007F000000
00007F000000
00007F000000
00007F000000
ENDCHAR
STARTCHAR U
ENCODING 85
SWIDTH 730 0
DWIDTH 54 0
BBX 42 53 6 0
BITMAP
FE0000001FC0
FE0000001FC0
FE0000001FC0
FE0000001FC0
FE0000001FC0
FE0000001FC0
FE0000001FC0
FE0000001FC0
FE0000001FC0
FE0000001FC0
FE0000001FC0
FE0000001FC0
FE0000001FC0
FE0000001FC0
FE0000001FC0
FE0000001FC0
FE0000001FC0
FE0000001FC0
FE0000001FC0
FE0000001FC0
FE0000001FC0
FE0000001FC0
FE0000001FC0
FE0000001FC0
FE0000001FC0
FE0000001FC0
FE0000001FC0
FE0000001FC0
FE0000001FC0
FE0000001FC0
FE0000001FC0
FE0000001FC0
FE0000001FC0
FE0000001FC0
FE0000001FC0
FE0000001FC0
FE0000001FC0
FF0000003FC0
7F0000003F80
7F0000003F80
7F8000007F80
3F8000007F00
3FC00000FF00
1FE00001FE00
1FF00003FE00
0FF80007FC00
07FE001FF800
03FFFFFFF000
01FFFFFFE000
00FFFFFFC000
007FFFFF8000
001FFFFE0000
0003FFF00000
ENDCHAR
STARTCHAR V
ENCODING 86
SWIDTH 680 0
DWIDTH 50 0
BBX 50 53 0 0
BITMAP
FF000000001FC0
7F000000003F80
7F800000007F80
3F800000007F80
3FC00000007F00
1FC0000000FF00
1FC0000000FE00
1FE0000001FE00
0FE0000001FE00
0FF0000001FC00
07F0000003FC00
07F0000003F800
07F8000007F800
03F8000007F000
03FC000007F000
01FC00000FF000
01FC00000FE000
01FE00001FE000
00FE00001FC000
00FF00001FC000
007F00003FC000
007F00003F8000
007F80007F8000
003F80007F0000
003FC0007F0000
001FC000FF0000
001FC000FE0000
000FE001FE0000
000FE001FC0000
000FF001FC0000
0007F003FC0000
0007F003F80000
0003F807F80000
0003F807F00000
0003FC07F00000
0001FC0FF00000
0001FC0FE00000
0000FE1FE00000
0000FE1FC00000
0000FF1FC00000
00007F3F800000
00007F3F800000
00003FBF800000
00003FBF000000
00003FFF000000
00001FFE000000
00001FFE000000
00000FFE000000
00000FFC000000
00000FFC000000
000007F8000000
000007F8000000
000003F8000000
ENDCHAR
STARTCHAR W
ENCODING 87
SWIDTH 1019 0
DWIDTH 75 0
BBX 74 53 1 0
BITMAP
FE0000003F0000001FC0
FF0000003F0000003F80
FF0000007F8000003F80
7F0000007F8000007F80
7F800000FF8000007F00
7F800000FFC000007F00
3F800000FFC00000FF00
3FC00001FFC00000FF00
3FC00001FFE00000FE00
3FC00001FFE00000FE00
1FE00003FFE00001FE00
1FE00003F7F00001FC00
1FE00003F7F00001FC00
0FE00007F3F00003FC00
0FF00007E3F80003F800
0FF00007E3F80003F800
07F0000FE1F80007F800
07F8000FC1FC0007F000
07F8000FC1FC0007F000
03F8001FC0FC0007F000
03FC001F80FE000FE000
03FC001F80FE000FE000
01FC003F807E000FE000
01FC003F007F001FE000
01FE003F007F001FC000
01FE007F003F001FC000
00FE007E003F803FC000
00FF007E003F803F8000
00FF00FE001F803F8000
007F00FC001FC03F8000
007F00FC001FC07F0000
007F81FC000FC07F0000
003F81F8000FE07F0000
003F81F8000FE0FE0000
003FC3F80007E0FE0000
001FC3F00007F0FE0000
001FC3F00007F1FC0000
001FE7F00003F1FC0000
000FE7E00003F9FC0000
000FE7E00003F9FC0000
000FEFE00001FBF80000
000FFFC00001FFF80000
0007FFC00001FFF80000
0007FFC00000FFF00000
0007FF800000FFF00000
0003FF800000FFF00000
0003FF8000007FE00000
0003FF0000007FE00000
0001FF0000007FE00000
0001FF0000003FC00000
0001FE0000003FC00000
0000FE0000003FC00000
0000FE0000001F800000
ENDCHAR
STARTCHAR X
ENCODING 88
SWIDTH 643 0
DWIDTH 48 0
BBX 46 53 1 0
BITMAP
FF80000007F8
7FC0000007F0
3FC000000FF0
1FE000001FE0
1FF000001FC0
0FF000003FC0
07F800007F80
07F800007F00
03FC0000FF00
01FE0001FE00
01FE0001FC00
00FF0003F800
007F8007F800
007F8007F000
003FC00FE000
001FE01FE000
001FE01FC000
000FF03F8000
0007F87F8000
0007F87F0000
0003FCFE0000
0001FFFE0000
0000FFFC0000
0000FFF80000
00007FF80000
00003FF00000
00007FF80000
00007FF80000
0000FFFC0000
0001FFFC0000
0001FDFE0000
0003FCFF0000
0007F87F0000
0007F07F8000
000FF03FC000
001FE01FC000
001FC01FE000
003FC00FF000
007F800FF000
007F0007F800
00FF0003FC00
01FE0003FC00
01FC0001FE00
03FC0000FF00
07F80000FF00
07F000007F80
0FF000003FC0
1FE000003FC0
1FC000001FE0
3FC000001FF0
7F8000000FF0
FF00000007F8
FE00000003FC
ENDCHAR
STARTCHAR Y
ENCODING 89
SWIDTH 629 0
DWIDTH 47 0
BBX 46 53 0 0
BITMAP
FF00000001FC
7F80000003F8
3FC0000007F8
3FC000000FF0
1FE000000FF0
0FE000001FE0
0FF000001FC0
07F000003FC0
07F800003F80
03FC00007F80
01FC0000FF00
01FE0000FE00
00FE0001FE00
007F0001FC00
007F8003F800
003F8007F800
003FC007F000
001FC00FF000
000FE00FE000
000FF01FC000
0007F03FC000
0007F83F8000
0003F87F8000
0001FC7F0000
0001FCFE0000
0000FEFE0000
0000FEFC0000
00007FFC0000
00003FF80000
00003FF00000
00001FF00000
00001FE00000
00000FE00000
00000FE00000
00000FE00000
00000FE00000
00000FE00000
00000FE00000
00000FE00000
00000FE00000
00000FE00000
00000FE00000
00000FE00000
00000FE00000
00000FE00000
00000FE00000
00000FE00000
00000FE00000
00000FE00000
00000FE00000
00000FE00000
00000FE00000
00000FE00000
ENDCHAR
STARTCHAR Z
ENCODING 90
SWIDTH 624 0
DWIDTH 46 0
BBX 40 53 3 0
BITMAP
3FFFFFFFFF
3FFFFFFFFF
3FFFFFFFFF
3FFFFFFFFF
3FFFFFFFFF
3FFFFFFFFE
00000001FE
00000003FC
00000007F8
0000000FF0
0000000FF0
0000001FE0
0000003FC0
0000003FC0
0000007F80
000000FF00
000001FE00
000001FE00
000003FC00
000007F800
000007F800
00000FF000
00001FE000
00003FC000
00003FC000
00007F8000
0000FF0000
0000FF0000
0001FE0000
0003FC0000
0007F80000
0007F80000
000FF00000
001FE00000
001FE00000
003FC00000
007F800000
00FF000000
00FF000000
01FE000000
03FC000000
03FC000000
07F8000000
0FF0000000
1FE0000000
1FE0000000
3FC0000000
7FFFFFFFFF
7FFFFFFFFF
FFFFFFFFFF
FFFFFFFFFF
FFFFFFFFFF
FFFFFFFFFF
ENDCHAR
STARTCHAR bracketleft
ENCODING 91
SWIDTH 300 0
DWIDTH 22 0
BBX 14 67 5 -11
BITMAP
FFFC
FFFC
FFFC
FFF8
FC00
FC00
FC00
FC00
FC00
FC00
FC00
FC00
FC00
FC00
FC00
FC00
FC00
FC00
FC00
FC00
FC00
FC00
FC00
FC00
FC00
FC00
FC00
FC00
FC00
FC00
FC00
FC00
FC00
FC00
FC00
FC00
FC00
FC00
FC00
FC00
FC00
FC00
FC00
FC00
FC00
FC00
FC00
FC00
FC00
FC00
FC00
FC00
FC00
FC00
FC00
FC00
FC00
FC00
FC00
FC00
FC00
FC00
FC00
FFF8
FFFC
FFFC
FFFC
ENDCHAR
STARTCHAR backslash
ENCODING 92
SWIDTH 375 0
DWIDTH 28 0
BBX 28 57 -1 -3
BITMAP
F8000000
7C000000
7E000000
3E000000
3E000000
3F000000
1F000000
1F800000
0F800000
0F800000
0FC00000
07C00000
07E00000
03E00000
03E00000
01F00000
01F00000
01F80000
00F80000
00F80000
007C0000
007C0000
007E0000
003E0000
003E0000
001F0000
001F0000
001F8000
000F8000
000F8000
0007C000
0007C000
0007E000
0003E000
0003E000
0001F000
0001F000
0001F800
0000F800
0000FC00
00007C00
00007C00
00007E00
00003E00
00003F00
00001F00
00001F00
00001F80
00000F80
00000FC0
000007C0
000007C0
000007E0
000003E0
000003F0
000001F0
000001F0
ENDCHAR
STARTCHAR bracketright
ENCODING 93
SWIDTH 300 0
DWIDTH 22 0
BBX 14 67 3 -11
BITMAP
FFFC
FFFC
FFFC
7FFC
00FC
00FC
00FC
00FC
00FC
00FC
00FC
00FC
00FC
00FC
00FC
00FC
00FC
00FC
00FC
00FC
00FC
00FC
00FC
00FC
00FC
00FC
00FC
00FC
00FC
00FC
00FC
00FC
00FC
00FC
00FC
00FC
00FC
00FC
00FC
00FC
00FC
00FC
00FC
00FC
00FC
00FC
00FC
00FC
00FC
00FC
00FC
00FC
00FC
00FC
00FC
00FC
00FC
00FC
00FC
00FC
00FC
00FC
00FC
7FFC
FFFC
FFFC
FFFC
ENDCHAR
STARTCHAR asciicircum
ENCODING 94
SWIDTH 580 0
DWIDTH 43 0
BBX 31 24 6 29
BITMAP
0007C000
000FC000
000FE000
001FE000
001FF000
003FF000
007FF800
007EF800
00FEFC00
00FC7E00
01FC7E00
01F83F00
03F03F00
03F01F80
07E01F80
07E00FC0
0FC007C0
1FC007E0
1F8003F0
3F8003F0
3F0001F8
7E0001F8
7E0000FC
FC00007E
ENDCHAR
STARTCHAR underscore
ENCODING 95
SWIDTH 394 0
DWIDTH 29 0
BBX 29 4 0 -11
BITMAP
FFFFFFF8
FFFFFFF8
FFFFFFF8
FFFFFFF8
ENDCHAR
STARTCHAR grave
ENCODING 96
SWIDTH 307 0
DWIDTH 23 0
BBX 15 11 1 43
BITMAP
FE00
7F80
3FC0
1FC0
0FE0
07F0
03F0
01F8
00FC
007C
003E
ENDCHAR
STARTCHAR a
ENCODING 97
SWIDTH 507 0
DWIDTH 38 0
BBX 30 38 3 0
BITMAP
00008000
003FFC00
00FFFF00
03FFFFC0
0FFFFFE0
1FFFFFE0
3FE00FF0
1F8007F8
0F0003F8
000001F8
000001FC
000001FC
000001FC
000001FC
000001FC
000001FC
000001FC
0000FFFC
001FFFFC
00FFFFFC
03FFFFFC
0FFF01FC
1FF001FC
3FC001FC
7F0001FC
7E0001FC
7E0001FC
FE0001FC
FE0001FC
FE0003FC
7E0007FC
7F000FFC
7F803FFC
7FFFFEFC
3FFFFCFC
1FFFF07C
0FFFE07C
03FF807C
ENDCHAR
STARTCHAR b
ENCODING 98
SWIDTH 559 0
DWIDTH 41 0
BBX 33 54 6 0
BITMAP
FC00000000
FC00000000
FC00000000
FC00000000
FC00000000
FC00000000
FC00000000
FC00000000
FC00000000
FC00000000
FC00000000
FC00000000
FC00000000
FC00000000
FC00000000
FC00000000
FC00200000
FC07FF0000
FC1FFFC000
FC7FFFE000
FCFFFFF000
FDFFFFF800
FFF007FC00
FFC003FC00
FF8001FE00
FF0000FE00
FE0000FE00
FC00007F00
FC00007F00
FC00007F00
FC00003F00
FC00003F00
FC00003F80
FC00003F80
FC00003F80
FC00003F80
FC00003F80
FC00003F80
FC00003F80
FC00003F00
FC00007F00
FC00007F00
FC00007F00
FC0000FE00
FC0000FE00
FE0001FE00
FF0003FC00
FF8007F800
FFE00FF800
FFFFFFF000
FDFFFFE000
FCFFFFC000
FC7FFF0000
F81FFC0000
ENDCHAR
STARTCHAR c
ENCODING 99
SWIDTH 467 0
DWIDTH 35 0
BBX 30 38 3 0
BITMAP
00008000
001FFF00
007FFFC0
01FFFFE0
03FFFFF8
07FFFFFC
0FF803F8
1FE000F0
3FC00020
3F800000
7F800000
7F000000
7F000000
FE000000
FE000000
FE000000
FE000000
FE000000
FE000000
FE000000
FE000000
FE000000
FE000000
FE000000
FE000000
FE000000
7F000000
7F000000
7F800000
3F800000
3FC00070
1FE000F8
0FF803FC
0FFFFFF8
07FFFFF0
01FFFFE0
00FFFF80
003FFE00
ENDCHAR
STARTCHAR d
ENCODING 100
SWIDTH 559 0
DWIDTH 41 0
BBX 33 54 3 0
BITMAP
0000003F80
0000003F80
0000003F80
0000003F80
0000003F80
0000003F80
0000003F80
0000003F80
0000003F80
0000003F80
0000003F80
0000003F80
0000003F80
0000003F80
0000003F80
0000003F80
0001003F80
003FF83F80
00FFFE3F80
01FFFFBF80
07FFFFFF80
0FFFFFFF80
0FF803FF80
1FE000FF80
3FC0007F80
3F80003F80
7F80003F80
7F00003F80
7F00003F80
FE00003F80
FE00003F80
FE00003F80
FE00003F80
FE00003F80
FC00003F80
FC00003F80
FC00003F80
FC00003F80
FE00003F80
FE00003F80
FE00003F80
FE00003F80
FE00003F80
7F00003F80
7F00003F80
7F00007F80
3F8000FF80
3FC003FF80
1FF007FF80
1FFFFF9F80
0FFFFF1F80
07FFFE1F80
01FFF81F80
00FFE01F80
ENDCHAR
STARTCHAR e
ENCODING 101
SWIDTH 524 0
DWIDTH 39 0
BBX 33 38 3 0
BITMAP
0000800000
001FFE0000
007FFF8000
01FFFFE000
03FFFFF000
07FFFFF800
0FF803FC00
1FE001FE00
3FC0007E00
3F80007F00
7F00003F00
7E00003F00
7E00001F00
FE00001F80
FE00001F80
FFFFFFFF80
FFFFFFFF80
FFFFFFFF80
FFFFFFFF00
FC00000000
FC00000000
FC00000000
FE00000000
FE00000000
FE00000000
7E00000000
7F00000000
7F00000000
3F80000000
3F80000000
1FC0001E00
1FF0003E00
0FF801FF00
07FFFFFF00
03FFFFFE00
01FFFFF800
007FFFE000
001FFF8000
ENDCHAR
STARTCHAR f
ENCODING 102
SWIDTH 337 0
DWIDTH 25 0
BBX 23 54 1 0
BITMAP
000020
0007FE
001FFE
003FFE
007FFE
00FFFE
01FF00
01FC00
01FC00
03F800
03F800
03F000
03F000
03F000
03F000
03F000
03F000
FFFFFE
FFFFFE
FFFFFE
FFFFFE
7FFFFE
0FF800
03F800
03F800
03F800
03F800
03F800
03F800
03F800
03F800
03F800
03F800
03F800
03F800
03F800
03F800
03F800
03F800
03F800
03F800
03F800
03F800
03F800
03F800
03F800
03F800
03F800
03F800
03F800
03F800
03F800
03F800
03F800
ENDCHAR
STARTCHAR g
ENCODING 103
SWIDTH 511 0
DWIDTH 38 0
BBX 35 53 2 -15
BITMAP
0001000000
003FFC0000
00FFFF0000
03FFFFFFE0
07FFFFFFE0
0FFFFFFFE0
0FF00FFFC0
1FC003FC00
1F8001F800
3F8001FC00
3F0000FC00
3F0000FC00
3F0000FC00
3F0000FC00
3F0000FC00
3F0000FC00
3F0000FC00
1F8001F800
1FC003F800
0FE007F000
0FF81FE000
07FFFFC000
01FFFF8000
01FFFE0000
03FFF00000
07C0000000
0F80000000
1F80000000
1F80000000
1F80000000
1FF0000000
1FFFFFC000
0FFFFFF800
07FFFFFE00
03FFFFFF00
0FFFFFFF80
1F8003FF80
3F00003FC0
7E00001FC0
FC00001FC0
FC00000FC0
FC00000FC0
FC00001F80
FC00001F80
FC00003F80
FE00007F00
7F8000FF00
7FF007FE00
3FFFFFFC00
1FFFFFF800
07FFFFE000
01FFFF8000
003FFC0000
ENDCHAR
STARTCHAR h
ENCODING 104
SWIDTH 556 0
DWIDTH 41 0
BBX 32 54 5 0
BITMAP
FE000000
FE000000
FE000000
FE000000
FE000000
FE000000
FE000000
FE000000
FE000000
FE000000
FE000000
FE000000
FE000000
FE000000
FE000000
FE000000
FE002000
FE07FF00
FE1FFFC0
FE3FFFF0
FE7FFFF8
FEFFFFF8
FFF807FC
FFE001FC
FFC001FE
FF0000FE
FE0000FE
FE00007E
FE00007E
FE00007F
FE00007F
FE00007F
FE00007F
FE00007F
FE00007F
FE00007F
FE00007F
FE00007F
FE00007F
FE00007F
FE00007F
FE00007F
FE00007F
FE00007F
FE00007F
FE00007F
FE00007F
FE00007F
FE00007F
FE00007F
FE00007F
FE00007F
FE00007F
FE00007F
ENDCHAR
STARTCHAR i
ENCODING 105
SWIDTH 256 0
DWIDTH 19 0
BBX 9 54 5 0
BITMAP
3E00
7F00
FF80
FF80
FF80
FF80
FF80
7F00
3E00
0000
0000
0000
0000
0000
0000
0000
0000
7F00
7F00
7F00
7F00
7F00
7F00
7F00
7F00
7F00
7F00
7F00
7F00
7F00
7F00
7F00
7F00
7F00
7F00
7F00
7F00
7F00
7F00
7F00
7F00
7F00
7F00
7F00
7F00
7F00
7F00
7F00
7F00
7F00
7F00
7F00
7F00
7F00
ENDCHAR
STARTCHAR j
ENCODING 106
SWIDTH 254 0
DWIDTH 19 0
BBX 16 68 -2 -14
BITMAP
007C
00FE
01FF
01FF
01FF
01FF
01FF
00FE
007C
0000
0000
0000
0000
0000
0000
0000
0000
00FE
00FE
00FE
00FE
00FE
00FE
00FE
00FE
00FE
00FE
00FE
00FE
00FE
00FE
00FE
00FE
00FE
00FE
00FE
00FE
00FE
00FE
00FE
00FE
00FE
00FE
00FE
00FE
00FE
00FE
00FE
00FE
00FE
00FE
00FE
00FE
00FE
00FE
00FE
00FE
00FE
00FE
00FE
00FC
01FC
07FC
FFF8
FFF8
FFF0
FFC0
7F00
ENDCHAR
STARTCHAR k
ENCODING 107
SWIDTH 524 0
DWIDTH 39 0
BBX 32 54 6 0
BITMAP
FC000000
FC000000
FC000000
FC000000
FC000000
FC000000
FC000000
FC000000
FC000000
FC000000
FC000000
FC000000
FC000000
FC000000
FC000000
FC000000
FC000000
FC0001FE
FC0003F8
FC0007F0
FC000FE0
FC001FC0
FC003F80
FC007F00
FC00FE00
FC01FC00
FC03F800
FC07F000
FC0FE000
FC1FC000
FC3F8000
FFFF0000
FFFE0000
FFFF0000
FFFF0000
FFFF8000
FC3FC000
FC1FE000
FC0FF000
FC07F000
FC07F800
FC03FC00
FC01FE00
FC00FE00
FC007F00
FC007F80
FC003FC0
FC001FE0
FC000FE0
FC0007F0
FC0007F8
FC0003FC
FC0001FC
FC0000FF
ENDCHAR
STARTCHAR l
ENCODING 108
SWIDTH 256 0
DWIDTH 19 0
BBX 7 54 6 0
BITMAP
FE
FE
FE
FE
FE
FE
FE
FE
FE
FE
FE
FE
FE
FE
FE
FE
FE
FE
FE
FE
FE
FE
FE
FE
FE
FE
FE
FE
FE
FE
FE
FE
FE
FE
FE
FE
FE
FE
FE
FE
FE
FE
FE
FE
FE
FE
FE
FE
FE
FE
FE
FE
FE
FE
ENDCHAR
STARTCHAR m
ENCODING 109
SWIDTH 821 0
DWIDTH 61 0
BBX 51 38 5 0
BITMAP
00008000020000
FC0FFC007FF000
FC1FFE01FFFC00
FC7FFF03FFFE00
FCFFFF87FFFF00
FDFFFFCFFFFF80
FFF01FCF807F80
FFC00FDF003FC0
FF8007FE001FC0
FF0003FC000FE0
FE0003FC000FE0
FE0003F8000FE0
FE0003F8000FE0
FE0003F80007E0
FE0003F80007E0
FE0003F80007E0
FE0003F80007E0
FE0003F80007E0
FE0003F80007E0
FE0003F80007E0
FE0003F80007E0
FE0003F80007E0
FE0003F80007E0
FE0003F80007E0
FE0003F80007E0
FE0003F80007E0
FE0003F80007E0
FE0003F80007E0
FE0003F80007E0
FE0003F80007E0
FE0003F80007E0
FE0003F80007E0
FE0003F80007E0
FE0003F80007E0
FE0003F80007E0
FE0003F80007E0
FE0003F80007E0
FE0003F80007E0
ENDCHAR
STARTCHAR n
ENCODING 110
SWIDTH 556 0
DWIDTH 41 0
BBX 32 38 5 0
BITMAP
00002000
FC03FF00
FC0FFFC0
FC3FFFF0
FC7FFFF8
FCFFFFF8
FFF807FC
FFE001FC
FFC001FE
FF0000FE
FE0000FE
FE00007E
FE00007E
FE00007F
FE00007F
FE00007F
FE00007F
FE00007F
FE00007F
FE00007F
FE00007F
FE00007F
FE00007F
FE00007F
FE00007F
FE00007F
FE00007F
FE00007F
FE00007F
FE00007F
FE00007F
FE00007F
FE00007F
FE00007F
FE00007F
FE00007F
FE00007F
FE00007F
ENDCHAR
STARTCHAR o
ENCODING 111
SWIDTH 556 0
DWIDTH 41 0
BBX 35 38 3 0
BITMAP
0000400000
001FFF0000
007FFFC000
01FFFFF000
03FFFFF800
07FFFFFC00
0FF803FE00
1FE000FF00
3FC0007F80
3F80003F80
7F00001FC0
7F00001FC0
7F00000FC0
FE00000FE0
FE00000FE0
FE00000FE0
FE00000FE0
FE000007E0
FC000007E0
FC000007E0
FC000007E0
FE000007E0
FE00000FE0
FE00000FE0
FE00000FE0
FE00000FE0
7E00000FC0
7F00001FC0
7F00001FC0
3F80003F80
3FC0007F80
1FE000FF00
0FF803FE00
07FFFFFC00
03FFFFF800
01FFFFF000
007FFFC000
001FFF0000
ENDCHAR
STARTCHAR p
ENCODING 112
SWIDTH 552 0
DWIDTH 41 0
BBX 33 51 5 -13
BITMAP
0000200000
FC03FF8000
FC0FFFE000
FC3FFFF000
FC7FFFF800
FCFFFFFC00
FFF807FC00
FFE001FE00
FFC000FE00
FF00007F00
FF00007F00
FE00007F00
FE00003F80
FE00003F80
FE00003F80
FE00003F80
FE00001F80
FE00001F80
FE00001F80
FE00001F80
FE00001F80
FE00001F80
FE00003F80
FE00003F80
FE00003F80
FE00003F80
FE00003F00
FE00007F00
FE00007F00
FE0000FE00
FF0001FE00
FF8003FC00
FFE00FFC00
FFFFFFF800
FFFFFFF000
FEFFFFE000
FE3FFF8000
FE0FFE0000
FE00800000
FE00000000
FE00000000
FE00000000
FE00000000
FE00000000
FE00000000
FE00000000
FE00000000
FE00000000
FE00000000
FE00000000
FE00000000
ENDCHAR
STARTCHAR q
ENCODING 113
SWIDTH 559 0
DWIDTH 41 0
BBX 33 51 3 -13
BITMAP
0001000000
003FF81F80
00FFFE1F80
01FFFF9F80
07FFFFDF80
0FFFFFFF80
0FF803FF80
1FE000FF80
3FC0007F80
3F80003F80
7F80003F80
7F00003F80
7F00003F80
FE00003F80
FE00003F80
FE00003F80
FE00003F80
FE00003F80
FC00003F80
FC00003F80
FC00003F80
FC00003F80
FE00003F80
FE00003F80
FE00003F80
FE00003F80
FE00003F80
7F00003F80
7F00003F80
7F00007F80
3F8000FF80
3FC003FF80
1FF007FF80
1FFFFFBF80
0FFFFF3F80
07FFFE3F80
01FFF83F80
00FFE03F80
0004003F80
0000003F80
0000003F80
0000003F80
0000003F80
0000003F80
0000003F80
0000003F80
0000003F80
0000003F80
0000003F80
0000003F80
0000003F80
ENDCHAR
STARTCHAR r
ENCODING 114
SWIDTH 403 0
DWIDTH 30 0
BBX 23 38 5 0
BITMAP
000040
FC07FE
FC0FFE
FC3FFE
FC7FFE
FC7FFE
FCFFFC
FFF000
FFE000
FFC000
FF8000
FF0000
FF0000
FE0000
FE0000
FE0000
FE0000
FE0000
FE0000
FE0000
FE0000
FE0000
FE0000
FE0000
FE0000
FE0000
FE0000
FE0000
FE0000
FE0000
FE0000
FE0000
FE0000
FE0000
FE0000
FE0000
FE0000
FE0000
ENDCHAR
STARTCHAR s
ENCODING 115
SWIDTH 434 0
DWIDTH 32 0
BBX 27 38 2 0
BITMAP
00020000
007FF800
03FFFE00
07FFFF00
0FFFFFC0
1FFFFFC0
3FE01F80
3F800380
3F000000
7F000000
7F000000
7F000000
7F000000
3F800000
3FC00000
3FF00000
1FFE0000
0FFFC000
07FFF800
01FFFE00
003FFF00
0007FF80
0000FFC0
00003FC0
00000FE0
00000FE0
000007E0
000007E0
000007E0
00000FE0
38000FC0
3C001FC0
7F007FC0
FFFFFF80
7FFFFF00
1FFFFE00
0FFFF800
01FFE000
ENDCHAR
STARTCHAR t
ENCODING 116
SWIDTH 373 0
DWIDTH 28 0
BBX 24 50 2 0
BITMAP
007000
01F000
01F000
01F000
01F000
01F000
01F000
03F000
03F000
03F000
03F000
03F000
03F000
3FFFFE
FFFFFE
FFFFFE
FFFFFE
FFFFFE
03F000
03F000
03F000
03F000
03F000
03F000
03F000
03F000
03F000
03F000
03F000
03F000
03F000
03F000
03F000
03F000
03F000
03F000
03F000
03F000
03F000
03F000
03F000
03F000
03F000
03F800
03FC1C
03FFFE
01FFFE
01FFFF
00FFFC
003FF0
ENDCHAR
STARTCHAR u
ENCODING 117
SWIDTH 556 0
DWIDTH 41 0
BBX 31 37 5 0
BITMAP
FC0000FE
FC0000FE
FC0000FE
FC0000FE
FC0000FE
FC0000FE
FC0000FE
FC0000FE
FC0000FE
FC0000FE
FC0000FE
FC0000FE
FC0000FE
FC0000FE
FC0000FE
FC0000FE
FC0000FE
FC0000FE
FC0000FE
FC0000FE
FC0000FE
FC0000FE
FC0000FE
FC0000FE
FC0000FE
FC0000FE
FC0000FE
FE0000FE
FE0001FE
FF0003FE
7F000FFE
7FC03FFE
3FFFFF7E
1FFFFE7E
1FFFF87E
07FFF07E
01FFC07E
ENDCHAR
STARTCHAR v
ENCODING 118
SWIDTH 512 0
DWIDTH 38 0
BBX 36 37 1 0
BITMAP
FC000003F0
FE000007F0
7F000007E0
7F00000FE0
3F00000FC0
3F80001FC0
3F80001FC0
1FC0001F80
1FC0003F80
0FC0003F00
0FE0007F00
0FE0007E00
07F0007E00
07F000FE00
03F000FC00
03F801FC00
03F801F800
01FC01F800
01FC03F800
00FC03F000
00FE07F000
007E07E000
007F07E000
007F0FE000
003F0FC000
003F9FC000
001F9F8000
001F9F8000
001FFF0000
000FFF0000
000FFF0000
0007FE0000
0007FE0000
0003FC0000
0003FC0000
0003FC0000
0001F80000
ENDCHAR
STARTCHAR w
ENCODING 119
SWIDTH 766 0
DWIDTH 57 0
BBX 55 37 1 0
BITMAP
FC00007C00007E
FE0000FE0000FE
FE0000FE0000FC
7E0000FF0000FC
7F0001FF0001FC
7F0001FF0001F8
3F0001FF8001F8
3F8003FF8003F8
3F8003EF8003F0
1F8003EF8003F0
1F8007EFC003F0
1FC007CFC007E0
0FC007C7C007E0
0FC00FC7E007E0
0FE00F87E00FC0
07E00F83E00FC0
07E01F83F00FC0
07F01F03F01F80
03F01F01F01F80
03F03F01F81F80
03F03E01F83F00
01F83E00F83F00
01F87E00FC3F00
01F87C00FC3E00
00FC7C007C7E00
00FCFC007E7E00
00FCF8007E7E00
007CF8003EFC00
007FF8003EFC00
007FF0003FFC00
003FF0001FF800
003FF0001FF800
003FE0001FF800
003FE0000FF000
001FE0000FF000
001FC0000FF000
001FC00007E000
ENDCHAR
STARTCHAR x
ENCODING 120
SWIDTH 504 0
DWIDTH 37 0
BBX 35 37 1 0
BITMAP
7F00001FE0
3F80001FC0
3FC0003F80
1FC0007F00
0FE0007E00
0FF000FE00
07F001FC00
03F801F800
03FC03F800
01FC07F000
00FE0FE000
007F0FE000
007F1FC000
003F9F8000
001FFF0000
001FFF0000
000FFE0000
0007FC0000
0007FE0000
000FFE0000
001FFF0000
001FBF8000
003FBF8000
007F1FC000
007F0FE000
00FE0FE000
01FC07F000
01FC07F800
03F803F800
07F001FC00
07E001FE00
0FE000FE00
1FC0007F00
3F80007F80
3F80003F80
7F00001FC0
FE00000FE0
ENDCHAR
STARTCHAR y
ENCODING 121
SWIDTH 512 0
DWIDTH 38 0
BBX 36 50 1 -13
BITMAP
FE000003F0
FE000007F0
7F000007E0
7F00000FE0
7F80000FC0
3F80001FC0
3F80001FC0
1FC0001F80
1FC0003F80
0FE0003F00
0FE0007F00
07F0007E00
07F0007E00
07F000FC00
03F800FC00
03F801FC00
01FC01F800
01FC03F800
00FC03F000
00FE03F000
00FE07E000
007F07E000
007F0FE000
003F8FC000
003F8FC000
001F9F8000
001FDF8000
000FDF0000
000FFF0000
000FFF0000
0007FE0000
0007FE0000
0003FC0000
0003FC0000
0001F80000
0001F80000
0003F80000
0003F00000
0003F00000
0007E00000
0007E00000
000FC00000
000FC00000
001FC00000
001F800000
003F800000
003F000000
007F000000
007E000000
00FE000000
ENDCHAR
STARTCHAR z
ENCODING 122
SWIDTH 462 0
DWIDTH 34 0
BBX 29 37 3 0
BITMAP
7FFFFFF8
7FFFFFF8
7FFFFFF8
7FFFFFF0
7FFFFFF0
000007E0
00000FE0
00001FC0
00003F80
00003F00
00007F00
0000FE00
0001FC00
0001F800
0003F800
0007F000
000FE000
000FC000
001FC000
003F8000
007F0000
00FE0000
00FE0000
01FC0000
03F80000
07F00000
07E00000
0FE00000
1FC00000
3F800000
3F000000
7F000000
FFFFFFF0
FFFFFFF0
FFFFFFF0
FFFFFFF0
FFFFFFF0
ENDCHAR
STARTCHAR braceleft
ENCODING 123
SWIDTH 300 0
DWIDTH 22 0
BBX 17 67 2 -11
BITMAP
001F80
00FF80
01FF80
03FF80
07F000
0FE000
0FC000
1F8000
1F8000
1F8000
1F8000
1F8000
1F8000
1F8000
1F8000
1F8000
1F8000
1F8000
0F8000
0FC000
0FC000
0FC000
0FC000
07C000
07C000
07C000
07C000
0FC000
0FC000
1F8000
3F8000
FF0000
FC0000
FC0000
FE0000
3F0000
1F8000
0FC000
0FC000
07C000
07C000
07C000
07C000
0FC000
0FC000
0FC000
0FC000
0FC000
0F8000
1F8000
1F8000
1F8000
1F8000
1F8000
1F8000
1F8000
1F8000
1F8000
1F8000
1F8000
0FC000
0FE000
07F000
03FF80
01FF80
00FF80
001F80
ENDCHAR
STARTCHAR bar
ENCODING 124
SWIDTH 300 0
DWIDTH 22 0
BBX 5 69 9 -13
BITMAP
F8
F8
F8
F8
F8
F8
F8
F8
F8
F8
F8
F8
F8
F8
F8
F8
F8
F8
F8
F8
F8
F8
F8
F8
F8
F8
F8
F8
F8
F8
F8
F8
F8
F8
F8
F8
F8
F8
F8
F8
F8
F8
F8
F8
F8
F8
F8
F8
F8
F8
F8
F8
F8
F8
F8
F8
F8
F8
F8
F8
F8
F8
F8
F8
F8
F8
F8
F8
F8
ENDCHAR
STARTCHAR braceright
ENCODING 125
SWIDTH 300 0
DWIDTH 22 0
BBX 18 67 3 -11
BITMAP
FC0000
FF8000
FFE000
7FF000
07F000
01F800
01F800
00FC00
00FC00
007C00
007C00
007C00
007C00
00FC00
00FC00
00FC00
00FC00
00FC00
00F800
00F800
01F800
01F800
01F800
01F800
01F800
01F800
01F800
01F800
01F800
00FC00
007E00
003FC0
001FC0
001FC0
003FC0
007E00
00FC00
01F800
01F800
01F800
01F800
01F800
01F800
01F800
01F800
01F800
01F800
00F800
00FC00
00FC00
00FC00
00FC00
00FC00
007C00
007C00
007C00
007C00
007C00
00FC00
00FC00
01F800
01F800
07F000
7FF000
FFC000
FF8000
FC0000
ENDCHAR
STARTCHAR asciitilde
ENCODING 126
SWIDTH 580 0
DWIDTH 43 0
BBX 35 13 4 15
BITMAP
00000007E0
00000007C0
01FC0007C0
07FF800FC0
1FFFE00FC0
1FFFFC3F80
3FFFFFFF80
7F07FFFF00
7E00FFFE00
7C003FFC00
FC0007F000
FC00000000
FC00000000
ENDCHAR
STARTCHAR uni00A0
ENCODING 160
SWIDTH 193 0
DWIDTH 14 0
BBX 1 1 0 0
BITMAP
00
ENDCHAR
STARTCHAR exclamdown
ENCODING 161
SWIDTH 343 0
DWIDTH 25 0
BBX 9 51 8 -13
BITMAP
0800
3F00
7F80
FF80
FF80
FF80
FF80
7F80
3F00
0800
0000
0000
0000
0000
0000
0000
0000
0000
3E00
3E00
3E00
3E00
3F00
3F00
3F00
3F00
3F00
3F00
3F00
3F00
3F00
3F00
3F00
3F00
3F00
3F00
3F00
3F00
3F00
3F00
3F00
3F00
3F00
3F00
3F00
3F00
3F00
3F00
3F00
3F00
3F00
ENDCHAR
STARTCHAR cent
ENCODING 162
SWIDTH 580 0
DWIDTH 43 0
BBX 33 55 5 -9
BITMAP
0000060000
00001E0000
00001E0000
00001E0000
00001E0000
00001E0000
00001E0000
00003E0000
00003E0000
000FFFC000
003FFFF800
00FFFFFC00
01FFFFFF00
07FFFFFF00
0FFC3C7E00
0FF03C0E00
1FE03C0000
3FC03C0000
3F803C0000
3F003C0000
7F003C0000
7E007C0000
7E007C0000
FE007C0000
FE00780000
FE00780000
FE00780000
FE00780000
FE00780000
FE00780000
FE00780000
FE00780000
7E00780000
7E00780000
7F00780000
7F00780000
3F80F80000
3FC0F80000
1FE0F00600
1FF0F01F00
0FFCF07F80
07FFFFFF00
03FFFFFE00
01FFFFFC00
007FFFF000
001FFFC000
0003F00000
0000F00000
0000F00000
0000F00000
0001F00000
0001F00000
0001F00000
0001F00000
0001E00000
ENDCHAR
STARTCHAR sterling
ENCODING 163
SWIDTH 580 0
DWIDTH 43 0
BBX 39 54 2 0
BITMAP
0000020000
00007FF800
0001FFFF00
0007FFFF80
000FFFFFC0
001FFFFFE0
003FE01FF0
003FC007F8
007F0003F8
007F0001FC
00FE0000F0
00FE000000
00FC000000
01FC000000
01FC000000
01FC000000
01FC000000
01FC000000
01FC000000
01FC000000
01FC000000
01FC000000
01FC000000
01FC000000
01FC000000
01FC000000
01FC000000
7FFFFFFC00
FFFFFFFC00
FFFFFFFC00
FFFFFFFC00
01FC000000
01FC000000
01FC000000
01FC000000
01FC000000
01FC000000
01FC000000
01FC000000
01FC000000
01FC000000
01FC000000
01FC000000
01FC000000
01F8000000
03F8000000
03F0000000
07F0000000
0FE0000000
1FFFFFFFFE
7FFFFFFFFE
7FFFFFFFFE
7FFFFFFFFE
7FFFFFFFFC
ENDCHAR
STARTCHAR currency
ENCODING 164
SWIDTH 580 0
DWIDTH 43 0
BBX 33 34 5 7
BITMAP
2000000400
3000000E00
7800001F00
FC01003F80
7E0FF87F00
3F3FFEFE00
1FFFFFFC00
0FFFFFF800
07FFFFF000
03F80FE000
07E003F000
0FC001F800
0F8000F800
0F8000F800
1F0000F800
1F00007C00
1F00007C00
1F00007C00
1F00007C00
0F8000F800
0F8000F800
0FC001F800
07C003F000
07F007F000
07FC1FF000
0FFFFFF800
0FFFFFFC00
1FFFFFFE00
3F3FFE7F00
7E0FF03F80
FC00001F80
7800000F00
3000000600
2000000000
ENDCHAR
STARTCHAR yen
ENCODING 165
SWIDTH 580 0
DWIDTH 43 0
BBX 39 53 2 0
BITMAP
FE000000FE
FF000001FC
7F000001FC
7F800003F8
3F800003F8
3F800007F0
1FC00007F0
1FC0000FE0
0FE0000FE0
0FE0001FC0
07F0001FC0
07F0003F80
03F8003F80
03F8007F00
01FC007F00
01FC00FE00
00FE00FE00
00FE01FC00
007F01FC00
007F03F800
003F83F800
003F87F000
001FC7F000
001FCFE000
000FEFE000
000FEFC000
0007FFC000
0007FF8000
0003FF8000
0003FF0000
1FFFFFFFE0
1FFFFFFFE0
1FFFFFFFE0
1FFFFFFFE0
0000FE0000
0000FE0000
0000FE0000
1FFFFFFFE0
1FFFFFFFE0
1FFFFFFFE0
1FFFFFFFE0
0000FE0000
0000FE0000
0000FE0000
0000FE0000
0000FE0000
0000FE0000
0000FE0000
0000FE0000
0000FE0000
0000FE0000
0000FE0000
0000FE0000
ENDCHAR
STARTCHAR brokenbar
ENCODING 166
SWIDTH 300 0
DWIDTH 22 0
BBX 5 69 9 -13
BITMAP
F8
F8
F8
F8
F8
F8
F8
F8
F8
F8
F8
F8
F8
F8
F8
F8
F8
F8
F8
F8
F8
F8
F8
F8
F8
F8
F8
F8
F8
00
00
00
00
00
00
00
00
00
00
00
F8
F8
F8
F8
F8
F8
F8
F8
F8
F8
F8
F8
F8
F8
F8
F8
F8
F8
F8
F8
F8
F8
F8
F8
F8
F8
F8
F8
F8
ENDCHAR
STARTCHAR section
ENCODING 167
SWIDTH 503 0
DWIDTH 37 0
BBX 29 59 4 -5
BITMAP
00010000
003FFC00
00FFFF00
01FFFFC0
07FFFFE0
07FFFFF0
0FF007E0
1FC001C0
1F800000
1F800000
1F800000
1F800000
1F800000
1F800000
1FC00000
1FE00000
0FF80000
0FFE0000
07FFC000
03FFF000
07FFFC00
0FFFFF00
1FDFFF80
3F03FFC0
7E00FFE0
7C003FF0
FC000FF8
FC0003F8
FC0003F8
FC0001F8
FE0000F8
7F0000F8
7FC000F8
3FF001F8
3FFC01F0
0FFF03F0
07FFE7E0
01FFFFC0
007FFF80
001FFF00
0003FF80
0000FFC0
00003FC0
00001FE0
000007E0
000007E0
000003F0
000003F0
000003E0
000007E0
000007E0
3C000FE0
3F001FC0
7FE07FC0
7FFFFF80
1FFFFF00
0FFFFE00
03FFF800
007FC000
ENDCHAR
STARTCHAR dieresis
ENCODING 168
SWIDTH 307 0
DWIDTH 23 0
BBX 21 8 1 44
BITMAP
3C01E0
FE03F0
FF07F8
FF07F8
FF07F8
FF07F8
FE03F0
3C01E0
ENDCHAR
STARTCHAR copyright
ENCODING 169
SWIDTH 798 0
DWIDTH 59 0
BBX 54 54 3 0
BITMAP
00000020000000
00001FFFC00000
0000FFFFF80000
0003FFFFFE0000
000FF0007F8000
001F80000FC000
003E000003E000
00FC000000F800
01F00000007C00
03E00000003E00
03C00000001F00
078003FF000F00
0F000FFFE00780
1F003FFFF803C0
1E00FFFFFC03C0
3C01FFFFFE01E0
3C03FF00FC01E0
7803FC003C00F0
7807F0001000F0
780FE000000070
F00FC000000078
F01FC000000078
F01F8000000078
F01F8000000038
E01F8000000038
E01F8000000038
E01F000000003C
E03F000000003C
E01F000000003C
E01F000000003C
E01F8000000038
F01F8000000038
F01F8000000078
F01FC000000078
F00FC000000078
700FE000000070
7807F0001800F0
7807F8003C00F0
3C03FF01FE01E0
3C01FFFFFE01E0
1E00FFFFFC03C0
1E007FFFF003C0
0F001FFFE00780
078003FF000F00
03C00000001F00
03E00000003E00
01F00000007C00
00F8000000F800
003E000003F000
001F80000FC000
000FF0007F8000
0003FFFFFE0000
0000FFFFF80000
00001FFFC00000
ENDCHAR
STARTCHAR ordfeminine
ENCODING 170
SWIDTH 342 0
DWIDTH 25 0
BBX 19 23 3 31
BITMAP
002000
07FE00
0FFF00
3FFF80
3FFFC0
3C07C0
0003E0
0003E0
0003E0
0003E0
007FE0
07FFE0
1FFFE0
3F83E0
7E03E0
7803E0
F803E0
F803E0
7807E0
7C1FE0
7FFDE0
3FF9E0
0FE0E0
ENDCHAR
STARTCHAR guillemotleft
ENCODING 171
SWIDTH 463 0
DWIDTH 34 0
BBX 23 29 5 5
BITMAP
00600C
00F01E
01F83E
01F03E
03E07C
03E07C
07C0F8
0FC1F8
0F81F0
1F03E0
3F07E0
3E07C0
7E0FC0
FC1F80
F81F00
7C1F80
7E0FC0
3E07C0
3F07E0
1F83E0
0F81F0
0FC1F8
07C0F8
03E07C
03F07E
01F03E
00F01E
00F81E
00600C
ENDCHAR
STARTCHAR logicalnot
ENCODING 172
SWIDTH 580 0
DWIDTH 43 0
BBX 32 15 5 12
BITMAP
FFFFFFFF
FFFFFFFF
FFFFFFFF
FFFFFFFF
FFFFFFFF
0000001F
0000001F
0000001F
0000001F
0000001F
0000001F
0000001F
0000001F
0000001F
0000001F
ENDCHAR
STARTCHAR uni00AD
ENCODING 173
SWIDTH 347 0
DWIDTH 26 0
BBX 18 5 4 19
BITMAP
FFFFC0
FFFFC0
FFFFC0
FFFFC0
FFFFC0
ENDCHAR
STARTCHAR registered
ENCODING 174
SWIDTH 798 0
DWIDTH 59 0
BBX 54 54 3 0
BITMAP
00000020000000
00001FFFC00000
0000FFFFF80000
0003FFFFFE0000
000FF0007F8000
001F80000FC000
003E000003E000
00FC000000F800
01F00000007C00
03E00000003E00
03C00000001F00
0781FFFE000F00
0F01FFFFC00780
1F01FFFFF003C0
1E01FFFFF803C0
3C01F803F801E0
3C01F801FC01E0
7801F800FC00F0
7801F8007C00F0
7801F8007E0070
F001F8007E0078
F001F8007E0078
F001F8007C0078
F001F800FC0038
E001F800FC0038
E001F801F80038
E001F807F0003C
E001FFFFE0003C
E001FFFFC0003C
E001FFFE00003C
E001FFFF000038
F001F83F000038
F001F81F800078
F001F81FC00078
F001F80FC00078
7001F807E00070
7801F807F000F0
7801F803F800F0
3C01F801F801E0
3C01F801FC01E0
1E01F800FE03C0
1E01F8007E03C0
0F01F8007F0780
0781F8003F8F00
03C00000001F00
03E00000003E00
01F00000007C00
00F8000000F800
003E000003F000
001F80000FC000
000FF0007F8000
0003FFFFFE0000
0000FFFFF80000
00001FFFC00000
ENDCHAR
STARTCHAR macron
ENCODING 175
SWIDTH 307 0
DWIDTH 23 0
BBX 21 4 1 45
BITMAP
FFFFF8
FFFFF8
FFFFF8
FFFFF8
ENDCHAR
STARTCHAR degree
ENCODING 176
SWIDTH 397 0
DWIDTH 29 0
BBX 24 24 3 30
BITMAP
001000
01FF80
07FFC0
0FFFF0
1FFFF8
3F01FC
7E007C
7C007E
F8003E
F8001E
F0001F
F0001F
F0001F
F0001F
F8001F
F8003E
F8003E
7C007C
7E00FC
3F83F8
1FFFF0
0FFFE0
03FFC0
00FE00
ENDCHAR
STARTCHAR plusminus
ENCODING 177
SWIDTH 580 0
DWIDTH 43 0
BBX 35 42 4 3
BITMAP
0001F00000
0001F00000
0001F00000
0001F00000
0001F00000
0001F00000
0001F00000
0001F00000
0001F00000
0001F00000
0001F00000
0001F00000
0001F00000
0001F00000
FFFFFFFFE0
FFFFFFFFE0
FFFFFFFFE0
FFFFFFFFE0
FFFFFFFFE0
0001F00000
0001F00000
0001F00000
0001F00000
0001F00000
0001F00000
0001F00000
0001F00000
0001F00000
0001F00000
0001F00000
0001F00000
0001F00000
0001F00000
0000000000
0000000000
0000000000
0000000000
FFFFFFFFE0
FFFFFFFFE0
FFFFFFFFE0
FFFFFFFFE0
FFFFFFFFE0
ENDCHAR
STARTCHAR twosuperior
ENCODING 178
SWIDTH 332 0
DWIDTH 25 0
BBX 19 27 3 33
BITMAP
03F800
0FFE00
1FFF00
3FFF80
7E0FC0
7C07C0
7C07C0
F807C0
0007C0
0007C0
0007C0
000F80
000F80
001F00
003E00
007E00
00FC00
01F800
03F000
07E000
0FC000
1F8000
3F0000
7FFFE0
FFFFE0
FFFFE0
FFFFE0
ENDCHAR
STARTCHAR threesuperior
ENCODING 179
SWIDTH 332 0
DWIDTH 25 0
BBX 19 28 3 33
BITMAP
01F800
07FE00
1FFF80
1FFF80
3F0FC0
7C07C0
7C03C0
7803C0
0003C0
0007C0
0007C0
001F80
00FF00
00FC00
00FF00
000FC0
0007C0
0003E0
0003E0
2003E0
F803E0
F803E0
7C07C0
7E0FC0
3FFF80
1FFF00
0FFE00
03F800
ENDCHAR
STARTCHAR acute
ENCODING 180
SWIDTH 307 0
DWIDTH 23 0
BBX 15 11 7 43
BITMAP
007E
03FC
07F8
07F0
0FE0
0FE0
1FC0
3F80
3F00
7E00
FC00
ENDCHAR
STARTCHAR mu
ENCODING 181
SWIDTH 556 0
DWIDTH 41 0
BBX 31 50 5 -13
BITMAP
FC0000FE
FC0000FE
FC0000FE
FC0000FE
FC0000FE
FC0000FE
FC0000FE
FC0000FE
FC0000FE
FC0000FE
FC0000FE
FC0000FE
FC0000FE
FC0000FE
FC0000FE
FC0000FE
FC0000FE
FC0000FE
FC0000FE
FC0000FE
FC0000FE
FC0000FE
FC0000FE
FC0000FE
FC0000FE
FC0000FE
FC0000FE
FE0001FE
FE0003FE
FF0007FE
FF801FFE
FFE07F7E
FFFFFE7E
FBFFFC7E
F9FFF87E
FCFFF07E
FC3F803E
FC000000
FC000000
FC000000
FC000000
FC000000
FC000000
FC000000
FC000000
FC000000
FC000000
FC000000
FC000000
7C000000
ENDCHAR
STARTCHAR paragraph
ENCODING 182
SWIDTH 669 0
DWIDTH 50 0
BBX 46 60 2 -7
BITMAP
001FFFFFFFFC
00FFFFFFFFFC
03FFFFFFFFFC
0FFFFFFFFFFC
1FFFFFFFFFFC
3FFFFC00FC00
3FFFFC00FC00
7FFFFC00FC00
7FFFFC00FC00
FFFFFC00FC00
FFFFFC00FC00
FFFFFC00FC00
FFFFFC00FC00
FFFFFC00FC00
FFFFFC00FC00
FFFFFC00FC00
FFFFFC00FC00
FFFFFC00FC00
FFFFFC00FC00
7FFFFC00FC00
7FFFFC00FC00
3FFFFC00FC00
1FFFFC00FC00
0FFFFC00FC00
07FFFC00FC00
03FFFC00FC00
00FFFC00FC00
000FFC00FC00
0000FC00FC00
0000FC00FC00
0000FC00FC00
0000FC00FC00
0000FC00FC00
0000FC00FC00
0000FC00FC00
0000FC00FC00
0000FC00FC00
0000FC00FC00
0000FC00FC00
0000FC00FC00
0000FC00FC00
0000FC00FC00
0000FC00FC00
0000FC00FC00
0000FC00FC00
0000FC00FC00
0000FC00FC00
0000FC00FC00
0000FC00FC00
0000FC00FC00
0000FC00FC00
0000FC00FC00
0000FC00FC00
0000FC00FC00
0000FC00FC00
0000FC00FC00
0000FC00FC00
0000FC00FC00
0000FC00FC00
0000FC00FC00
ENDCHAR
STARTCHAR periodcentered
ENCODING 183
SWIDTH 273 0
DWIDTH 20 0
BBX 11 11 5 16
BITMAP
1E00
7F80
FFC0
FFC0
FFE0
FFE0
FFE0
FFC0
FFC0
7F80
1E00
ENDCHAR
STARTCHAR cedilla
ENCODING 184
SWIDTH 307 0
DWIDTH 23 0
BBX 13 14 5 -13
BITMAP
0F00
1F00
1E00
1E00
3FC0
3FF0
03F8
00F8
00F8
00F8
61F8
FFF0
FFE0
3F80
ENDCHAR
STARTCHAR onesuperior
ENCODING 185
SWIDTH 332 0
DWIDTH 25 0
BBX 17 27 4 33
BITMAP
00F800
01F800
03F800
07F800
1FF800
3FF800
7EF800
FCF800
38F800
20F800
00F800
00F800
00F800
00F800
00F800
00F800
00F800
00F800
00F800
00F800
00F800
00F800
00F800
00F800
3FFF80
3FFF80
3FFF80
ENDCHAR
STARTCHAR ordmasculine
ENCODING 186
SWIDTH 381 0
DWIDTH 28 0
BBX 23 24 3 30
BITMAP
002000
03FF00
0FFFC0
1FFFE0
3FFFF0
7E01F8
7C00F8
FC00FC
F8007C
F8007C
F8007C
F8007C
F8007E
F8007C
F8007C
F8007C
FC007C
7C00FC
7E01F8
3F03F0
3FFFF0
1FFFE0
07FF80
01FE00
ENDCHAR
STARTCHAR guillemotright
ENCODING 187
SWIDTH 463 0
DWIDTH 34 0
BBX 23 29 6 5
BITMAP
600C00
F01E00
F83F00
F81F00
7C0F80
7C0F80
3E07C0
3F07E0
1F03E0
0F81F0
0FC1F8
07C0F8
07E0FC
03F07E
01F03E
03F07C
07E0FC
07C0F8
0FC1F8
0F83F0
1F03E0
3F07E0
3E07C0
7C0F80
FC1F80
F81F00
F03E00
F01E00
600C00
ENDCHAR
STARTCHAR onequarter
ENCODING 188
SWIDTH 712 0
DWIDTH 53 0
BBX 48 53 4 0
BITMAP
01F0000003E0
03F0000007C0
07F000000F80
0FF000001F00
1FF000001F00
3FF000003E00
FFF000003E00
FDF000007C00
71F00000F800
21F00000F800
01F00001F000
01F00001F000
01F00003E000
01F00007C000
01F00007C000
01F0000F8000
01F0000F8000
01F0001F0000
01F0003E0000
01F0003E0000
01F0007C0000
01F0007C0000
01F000F80000
01F001F80000
3FFF81F00000
3FFF83E00000
3FFF83E001F0
000007C003F0
00000FC007F0
00000F8007F0
00001F000FF0
00001F001FF0
00003E003EF0
00007E003CF0
00007C007CF0
0000F800F8F0
0000F801F0F0
0001F001E0F0
0003F003E0F0
0003E007C0F0
0007C00F80F0
0007C00F00F0
000F801F00F0
001F801FFFFF
001F001FFFFF
003E001FFFFF
003E000000F0
007C000000F0
007C000000F0
00F8000000F0
01F0000000F0
01F0000000F0
03E0000000F0
ENDCHAR
STARTCHAR onehalf
ENCODING 189
SWIDTH 712 0
DWIDTH 53 0
BBX 47 53 4 0
BITMAP
01F000000F80
03F000001F00
07F000003E00
0FF000003E00
1FF000007C00
3FF000007C00
FFF00000F800
FDF00001F000
71F00001F000
21F00003E000
01F00003E000
01F00007C000
01F0000F8000
01F0000F8000
01F0001F0000
01F0001F0000
01F0003E0000
01F0007C0000
01F0007C0000
01F000F80000
01F000F80000
01F001F00000
01F003E00000
01F003E00000
3FFF87C00000
3FFF87C00000
3FFF8F803F80
00001F00FFE0
00001F01FFF0
00003E03FFF8
00003E07E1FC
00007C07C07C
0000FC0F807C
0000F80F807C
0001F000007C
0001F000007C
0003E000007C
0007E00000F8
0007C00000F8
000F800001F0
000F800003E0
001F000007C0
003F00000F80
003E00001F00
007C00003E00
007C00007C00
00F80000FC00
01F80001F800
01F00003F000
03E00007FFFC
03E0000FFFFE
07C0000FFFFE
0F80000FFFFE
ENDCHAR
STARTCHAR threequarters
ENCODING 190
SWIDTH 713 0
DWIDTH 53 0
BBX 49 53 3 0
BITMAP
03F8000001F000
0FFE000003E000
1FFF000007C000
3FFF800007C000
7E1F80000F8000
7C07C0001F0000
7807C0001F0000
F807C0003E0000
0007C0003E0000
000780007C0000
000F8000F80000
001F0000F80000
01FE0001F00000
01FC0001F00000
01FF0003E00000
001F8007C00000
0007C007C00000
0007C00F800000
0007C00F800000
7007C01F000000
F007C03E000000
F807C03E000000
7E1FC07C000000
7FFF807C000000
3FFF00F8000000
1FFE01F0000000
07F801F000F800
000003E001F800
000003E003F800
000007C003F800
00000FC007F800
00000F800FF800
00001F001F7800
00001F001E7800
00003E003C7800
00007E007C7800
00007C00F87800
0000F800F07800
0000F801F07800
0001F003E07800
0003F007C07800
0003E007807800
0007C00F807800
0007C00FFFFF80
000F800FFFFF80
001F800FFFFF80
001F0000007800
003E0000007800
003E0000007800
007C0000007800
007C0000007800
00F80000007800
01F00000007800
ENDCHAR
STARTCHAR questiondown
ENCODING 191
SWIDTH 398 0
DWIDTH 29 0
BBX 26 51 2 -13
BITMAP
00020000
000F8000
001FC000
003FE000
003FE000
003FE000
003FE000
001FC000
000FC000
00020000
00000000
00000000
00000000
00000000
00000000
00000000
00000000
00000000
000F8000
000F8000
000F8000
000F8000
000F8000
001F8000
001F8000
003F8000
007F8000
00FF0000
03FE0000
07FC0000
1FF00000
3FC00000
3F800000
7F000000
7E000000
FE000000
FC000000
FC000000
FC000000
FC000000
FC000000
FC000000
FE000200
FE000380
7F800F80
7FE07FC0
3FFFFFC0
1FFFFF80
0FFFFE00
03FFF800
00FFC000
ENDCHAR
STARTCHAR Agrave
ENCODING 192
SWIDTH 680 0
DWIDTH 50 0
BBX 50 66 0 0
BITMAP
001FE000000000
0007FC00000000
0003FE00000000
0000FF00000000
00007F80000000
00003FC0000000
00000FE0000000
000007F0000000
000001F8000000
00000004000000
00000000000000
00000000000000
00000000000000
000007F8000000
000007F8000000
000007FC000000
00000FFC000000
00000FFE000000
00001FFE000000
00001FFE000000
00001FFF000000
00003FBF000000
00003F3F800000
00007F3F800000
00007F1F800000
00007E1FC00000
0000FE1FC00000
0000FE0FE00000
0001FC0FE00000
0001FC07E00000
0001F807F00000
0003F807F00000
0003F803F80000
0007F003F80000
0007F001F80000
0007E001FC0000
000FE001FC0000
000FE000FE0000
001FC000FE0000
001FC0007E0000
001F80007F0000
003F80007F0000
003F80003F8000
007F00003F8000
007F00001F8000
007F00001FC000
00FFFFFFFFC000
00FFFFFFFFE000
01FFFFFFFFE000
01FFFFFFFFE000
01FFFFFFFFF000
03F8000007F000
03F8000003F800
07F0000003F800
07F0000003F800
07F0000001FC00
0FE0000001FC00
0FE0000000FE00
1FE0000000FE00
1FC0000000FE00
1FC00000007F00
3F800000007F00
3F800000007F80
7F800000003F80
7F000000003F80
FE000000001FC0
ENDCHAR
STARTCHAR Aacute
ENCODING 193
SWIDTH 680 0
DWIDTH 50 0
BBX 50 66 0 0
BITMAP
00000003F80000
0000001FF00000
0000003FE00000
0000007F800000
000000FF000000
000001FC000000
000003F8000000
000007F0000000
00000FC0000000
00001000000000
00000000000000
00000000000000
00000000000000
000007F8000000
000007F8000000
000007FC000000
00000FFC000000
00000FFE000000
00001FFE000000
00001FFE000000
00001FFF000000
00003FBF000000
00003F3F800000
00007F3F800000
00007F1F800000
00007E1FC00000
0000FE1FC00000
0000FE0FE00000
0001FC0FE00000
0001FC07E00000
0001F807F00000
0003F807F00000
0003F803F80000
0007F003F80000
0007F001F80000
0007E001FC0000
000FE001FC0000
000FE000FE0000
001FC000FE0000
001FC0007E0000
001F80007F0000
003F80007F0000
003F80003F8000
007F00003F8000
007F00001F8000
007F00001FC000
00FFFFFFFFC000
00FFFFFFFFE000
01FFFFFFFFE000
01FFFFFFFFE000
01FFFFFFFFF000
03F8000007F000
03F8000003F800
07F0000003F800
07F0000003F800
07F0000001FC00
0FE0000001FC00
0FE0000000FE00
1FE0000000FE00
1FC0000000FE00
1FC00000007F00
3F800000007F00
3F800000007F80
7F800000003F80
7F000000003F80
FE000000001FC0
ENDCHAR
STARTCHAR Acircumflex
ENCODING 194
SWIDTH 680 0
DWIDTH 50 0
BBX 50 65 0 0
BITMAP
000007F8000000
00000FFC000000
00001FFE000000
00003FFF000000
00007F1FC00000
0000FE0FE00000
0001F807F00000
0003F001F80000
00040000000000
00000000000000
00000000000000
00000000000000
000007F8000000
000007F8000000
000007FC000000
00000FFC000000
00000FFE000000
00001FFE000000
00001FFE000000
00001FFF000000
00003FBF000000
00003F3F800000
00007F3F800000
00007F1F800000
00007E1FC00000
0000FE1FC00000
0000FE0FE00000
0001FC0FE00000
0001FC07E00000
0001F807F00000
0003F807F00000
0003F803F80000
0007F003F80000
0007F001F80000
0007E001FC0000
000FE001FC0000
000FE000FE0000
001FC000FE0000
001FC0007E0000
001F80007F0000
003F80007F0000
003F80003F8000
007F00003F8000
007F00001F8000
007F00001FC000
00FFFFFFFFC000
00FFFFFFFFE000
01FFFFFFFFE000
01FFFFFFFFE000
01FFFFFFFFF000
03F8000007F000
03F8000003F800
07F0000003F800
07F0000003F800
07F0000001FC00
0FE0000001FC00
0FE0000000FE00
1FE0000000FE00
1FC0000000FE00
1FC00000007F00
3F800000007F00
3F800000007F80
7F800000003F80
7F000000003F80
FE000000001FC0
ENDCHAR
STARTCHAR Atilde
ENCODING 195
SWIDTH 680 0
DWIDTH 50 0
BBX 50 64 0 0
BITMAP
00001F00F00000
00007FC0F00000
0000FFF1F00000
0000FFFFE00000
0001F1FFE00000
0001E07FC00000
0001E01F800000
00000000000000
00000000000000
00000000000000
00000000000000
000007F8000000
000007F8000000
000007FC000000
00000FFC000000
00000FFE000000
00001FFE000000
00001FFE000000
00001FFF000000
00003FBF000000
00003F3F800000
00007F3F800000
00007F1F800000
00007E1FC00000
0000FE1FC00000
0000FE0FE00000
0001FC0FE00000
0001FC07E00000
0001F807F00000
0003F807F00000
0003F803F80000
0007F003F80000
0007F001F80000
0007E001FC0000
000FE001FC0000
000FE000FE0000
001FC000FE0000
001FC0007E0000
001F80007F0000
003F80007F0000
003F80003F8000
007F00003F8000
007F00001F8000
007F00001FC000
00FFFFFFFFC000
00FFFFFFFFE000
01FFFFFFFFE000
01FFFFFFFFE000
01FFFFFFFFF000
03F8000007F000
03F8000003F800
07F0000003F800
07F0000003F800
07F0000001FC00
0FE0000001FC00
0FE0000000FE00
1FE0000000FE00
1FC0000000FE00
1FC00000007F00
3F800000007F00
3F800000007F80
7F800000003F80
7F000000003F80
FE000000001FC0
ENDCHAR
STARTCHAR Adieresis
ENCODING 196
SWIDTH 680 0
DWIDTH 50 0
BBX 50 66 0 0
BITMAP
0000E001E00000
0003F803F00000
0003F807F80000
0007F807F80000
0007FC07F80000
0003F807F80000
0003F803F00000
0000E001E00000
00000000000000
00000000000000
00000000000000
00000000000000
00000000000000
000007F8000000
000007F8000000
000007FC000000
00000FFC000000
00000FFE000000
00001FFE000000
00001FFE000000
00001FFF000000
00003FBF000000
00003F3F800000
00007F3F800000
00007F1F800000
00007E1FC00000
0000FE1FC00000
0000FE0FE00000
0001FC0FE00000
0001FC07E00000
0001F807F00000
0003F807F00000
0003F803F80000
0007F003F80000
0007F001F80000
0007E001FC0000
000FE001FC0000
000FE000FE0000
001FC000FE0000
001FC0007E0000
001F80007F0000
003F80007F0000
003F80003F8000
007F00003F8000
007F00001F8000
007F00001FC000
00FFFFFFFFC000
00FFFFFFFFE000
01FFFFFFFFE000
01FFFFFFFFE000
01FFFFFFFFF000
03F8000007F000
03F8000003F800
07F0000003F800
07F0000003F800
07F0000001FC00
0FE0000001FC00
0FE0000000FE00
1FE0000000FE00
1FC0000000FE00
1FC00000007F00
3F800000007F00
3F800000007F80
7F800000003F80
7F000000003F80
FE000000001FC0
ENDCHAR
STARTCHAR Aring
ENCODING 197
SWIDTH 680 0
DWIDTH 50 0
BBX 50 68 0 0
BITMAP
000001F0000000
000007FC000000
00000FFE000000
00001E0F000000
00001C07000000
00003C07000000
00003C07000000
00003C07000000
00001C07000000
00001E0F000000
00000FFE000000
000007FC000000
000001F0000000
00000000000000
00000000000000
000007F8000000
000007F8000000
000007FC000000
00000FFC000000
00000FFE000000
00001FFE000000
00001FFE000000
00001FFF000000
00003FBF000000
00003F3F800000
00007F3F800000
00007F1F800000
00007E1FC00000
0000FE1FC00000
0000FE0FE00000
0001FC0FE00000
0001FC07E00000
0001F807F00000
0003F807F00000
0003F803F80000
0007F003F80000
0007F001F80000
0007E001FC0000
000FE001FC0000
000FE000FE0000
001FC000FE0000
001FC0007E0000
001F80007F0000
003F80007F0000
003F80003F8000
007F00003F8000
007F00001F8000
007F00001FC000
00FFFFFFFFC000
00FFFFFFFFE000
01FFFFFFFFE000
01FFFFFFFFE000
01FFFFFFFFF000
03F8000007F000
03F8000003F800
07F0000003F800
07F0000003F800
07F0000001FC00
0FE0000001FC00
0FE0000000FE00
1FE0000000FE00
1FC0000000FE00
1FC00000007F00
3F800000007F00
3F800000007F80
7F800000003F80
7F000000003F80
FE000000001FC0
ENDCHAR
STARTCHAR AE
ENCODING 198
SWIDTH 929 0
DWIDTH 69 0
BBX 66 53 -1 0
BITMAP
0000000FFFFFFFFFC0
0000001FFFFFFFFFC0
0000001FFFFFFFFFC0
0000003FFFFFFFFFC0
0000003FFFFFFFFFC0
0000007FFFFFFFFFC0
0000007FFC00000000
000000FEFC00000000
000000FCFC00000000
000001FCFE00000000
000001F8FE00000000
000003F8FE00000000
000003F0FE00000000
000007F0FE00000000
00000FE07E00000000
00000FE07E00000000
00001FC07E00000000
00001FC07F00000000
00003F807F00000000
00003F807F00000000
00007F007F00000000
00007F007F00000000
0000FE003F00000000
0000FE003F00000000
0001FC003FFFFFF800
0001FC003FFFFFF800
0003F8003FFFFFF800
0003F8003FFFFFF800
0007F0003FFFFFF800
0007F0003F80000000
000FE0001F80000000
001FC0001F80000000
001FC0001FC0000000
003FFFFFFFC0000000
003FFFFFFFC0000000
007FFFFFFFC0000000
007FFFFFFFC0000000
00FFFFFFFFC0000000
00FE00000FC0000000
01FC00000FC0000000
01FC00000FE0000000
03F800000FE0000000
03F800000FE0000000
07F000000FE0000000
07F000000FE0000000
0FE000000FE0000000
0FE0000007E0000000
1FC0000007FFFFFFC0
3FC0000007FFFFFFC0
3F80000007FFFFFFC0
7F80000007FFFFFFC0
7F00000007FFFFFFC0
FE00000007FFFFFFC0
ENDCHAR
STARTCHAR Ccedilla
ENCODING 199
SWIDTH 685 0
DWIDTH 51 0
BBX 45 67 3 -13
BITMAP
000000200000
00001FFFE000
0000FFFFFC00
0003FFFFFF00
000FFFFFFF80
001FFFFFFFE0
007FFFFFFFF0
00FFF0003FF8
01FFC0000FF0
03FF000003E0
03FE000001C0
07FC00000000
0FF800000000
0FF000000000
1FE000000000
1FE000000000
3FC000000000
3FC000000000
3F8000000000
7F8000000000
7F8000000000
7F0000000000
7F0000000000
7F0000000000
FF0000000000
FF0000000000
FF0000000000
FF0000000000
FF0000000000
FF0000000000
FF0000000000
7F0000000000
7F0000000000
7F0000000000
7F0000000000
7F8000000000
7F8000000000
3F8000000000
3FC000000000
3FC000000000
1FE000000000
1FF000000000
0FF800000000
0FF8000000C0
07FE000001E0
03FF000007F0
01FF80000FF8
01FFF0007FF0
00FFFFFFFFE0
003FFFFFFFC0
001FFFFFFF80
0007FFFFFE00
0003FFFFF800
00007FFFE000
000003E00000
000001E00000
000003C00000
000003F80000
000003FE0000
0000007F0000
0000001F0000
0000001F8000
0000001F8000
00000C1F0000
00000FFF0000
00001FFE0000
000007F00000
ENDCHAR
STARTCHAR Egrave
ENCODING 200
SWIDTH 581 0
DWIDTH 43 0
BBX 33 66 6 0
BITMAP
0FF0000000
03FE000000
01FF000000
007F800000
003FC00000
001FE00000
0007F00000
0003F80000
0000FC0000
0000020000
0000000000
0000000000
0000000000
FFFFFFFF80
FFFFFFFF80
FFFFFFFF80
FFFFFFFF80
FFFFFFFF80
FFFFFFFF80
FF00000000
FF00000000
FF00000000
FF00000000
FF00000000
FF00000000
FF00000000
FF00000000
FF00000000
FF00000000
FF00000000
FF00000000
FF00000000
FF00000000
FF00000000
FF00000000
FF00000000
FF00000000
FFFFFFF000
FFFFFFF000
FFFFFFF000
FFFFFFF000
FFFFFFF000
FF00000000
FF00000000
FF00000000
FF00000000
FF00000000
FF00000000
FF00000000
FF00000000
FF00000000
FF00000000
FF00000000
FF00000000
FF00000000
FF00000000
FF00000000
FF00000000
FF00000000
FF00000000
FFFFFFFF80
FFFFFFFF80
FFFFFFFF80
FFFFFFFF80
FFFFFFFF80
FFFFFFFF80
ENDCHAR
STARTCHAR Eacute
ENCODING 201
SWIDTH 581 0
DWIDTH 43 0
BBX 33 66 6 0
BITMAP
000001FC00
00000FF800
00001FF000
00003FC000
00007F8000
0000FE0000
0001FC0000
0003F80000
0007E00000
0008000000
0000000000
0000000000
0000000000
FFFFFFFF80
FFFFFFFF80
FFFFFFFF80
FFFFFFFF80
FFFFFFFF80
FFFFFFFF80
FF00000000
FF00000000
FF00000000
FF00000000
FF00000000
FF00000000
FF00000000
FF00000000
FF00000000
FF00000000
FF00000000
FF00000000
FF00000000
FF00000000
FF00000000
FF00000000
FF00000000
FF00000000
FFFFFFF000
FFFFFFF000
FFFFFFF000
FFFFFFF000
FFFFFFF000
FF00000000
FF00000000
FF00000000
FF00000000
FF00000000
FF00000000
FF00000000
FF00000000
FF00000000
FF00000000
FF00000000
FF00000000
FF00000000
FF00000000
FF00000000
FF00000000
FF00000000
FF00000000
FFFFFFFF80
FFFFFFFF80
FFFFFFFF80
FFFFFFFF80
FFFFFFFF80
FFFFFFFF80
ENDCHAR
STARTCHAR Ecircumflex
ENCODING 202
SWIDTH 581 0
DWIDTH 43 0
BBX 33 65 6 0
BITMAP
0007F80000
000FFC0000
001FFE0000
003FFF0000
007F1FC000
00FE0FE000
01F807F000
03F001F800
0400000000
0000000000
0000000000
0000000000
FFFFFFFF80
FFFFFFFF80
FFFFFFFF80
FFFFFFFF80
FFFFFFFF80
FFFFFFFF80
FF00000000
FF00000000
FF00000000
FF00000000
FF00000000
FF00000000
FF00000000
FF00000000
FF00000000
FF00000000
FF00000000
FF00000000
FF00000000
FF00000000
FF00000000
FF00000000
FF00000000
FF00000000
FFFFFFF000
FFFFFFF000
FFFFFFF000
FFFFFFF000
FFFFFFF000
FF00000000
FF00000000
FF00000000
FF00000000
FF00000000
FF00000000
FF00000000
FF00000000
FF00000000
FF00000000
FF00000000
FF00000000
FF00000000
FF00000000
FF00000000
FF00000000
FF00000000
FF00000000
FFFFFFFF80
FFFFFFFF80
FFFFFFFF80
FFFFFFFF80
FFFFFFFF80
FFFFFFFF80
ENDCHAR
STARTCHAR Edieresis
ENCODING 203
SWIDTH 581 0
DWIDTH 43 0
BBX 33 66 6 0
BITMAP
00E001E000
03F803F000
03F807F800
07F807F800
07FC07F800
03F807F800
03F803F000
00E001E000
0000000000
0000000000
0000000000
0000000000
0000000000
FFFFFFFF80
FFFFFFFF80
FFFFFFFF80
FFFFFFFF80
FFFFFFFF80
FFFFFFFF80
FF00000000
FF00000000
FF00000000
FF00000000
FF00000000
FF00000000
FF00000000
FF00000000
FF00000000
FF00000000
FF00000000
FF00000000
FF00000000
FF00000000
FF00000000
FF00000000
FF00000000
FF00000000
FFFFFFF000
FFFFFFF000
FFFFFFF000
FFFFFFF000
FFFFFFF000
FF00000000
FF00000000
FF00000000
FF00000000
FF00000000
FF00000000
FF00000000
FF00000000
FF00000000
FF00000000
FF00000000
FF00000000
FF00000000
FF00000000
FF00000000
FF00000000
FF00000000
FF00000000
FFFFFFFF80
FFFFFFFF80
FFFFFFFF80
FFFFFFFF80
FFFFFFFF80
FFFFFFFF80
ENDCHAR
STARTCHAR Igrave
ENCODING 204
SWIDTH 307 0
DWIDTH 23 0
BBX 19 66 -2 0
BITMAP
FF0000
3FE000
1FF000
07F800
03FC00
01FE00
007F00
003F80
000FC0
000020
000000
000000
000000
003F80
003F80
003F80
003F80
003F80
003F80
003F80
003F80
003F80
003F80
003F80
003F80
003F80
003F80
003F80
003F80
003F80
003F80
003F80
003F80
003F80
003F80
003F80
003F80
003F80
003F80
003F80
003F80
003F80
003F80
003F80
003F80
003F80
003F80
003F80
003F80
003F80
003F80
003F80
003F80
003F80
003F80
003F80
003F80
003F80
003F80
003F80
003F80
003F80
003F80
003F80
003F80
003F80
ENDCHAR
STARTCHAR Iacute
ENCODING 205
SWIDTH 307 0
DWIDTH 23 0
BBX 18 66 6 0
BITMAP
001FC0
00FF80
01FF00
03FC00
07F800
0FE000
1FC000
3F8000
7E0000
800000
000000
000000
000000
3F8000
3F8000
3F8000
3F8000
3F8000
3F8000
3F8000
3F8000
3F8000
3F8000
3F8000
3F8000
3F8000
3F8000
3F8000
3F8000
3F8000
3F8000
3F8000
3F8000
3F8000
3F8000
3F8000
3F8000
3F8000
3F8000
3F8000
3F8000
3F8000
3F8000
3F8000
3F8000
3F8000
3F8000
3F8000
3F8000
3F8000
3F8000
3F8000
3F8000
3F8000
3F8000
3F8000
3F8000
3F8000
3F8000
3F8000
3F8000
3F8000
3F8000
3F8000
3F8000
3F8000
ENDCHAR
STARTCHAR Icircumflex
ENCODING 206
SWIDTH 307 0
DWIDTH 23 0
BBX 24 65 -1 0
BITMAP
00FF00
01FF80
03FFC0
07FFE0
0FE3F8
1FC1FC
3F00FE
7E003F
800000
000000
000000
000000
007F00
007F00
007F00
007F00
007F00
007F00
007F00
007F00
007F00
007F00
007F00
007F00
007F00
007F00
007F00
007F00
007F00
007F00
007F00
007F00
007F00
007F00
007F00
007F00
007F00
007F00
007F00
007F00
007F00
007F00
007F00
007F00
007F00
007F00
007F00
007F00
007F00
007F00
007F00
007F00
007F00
007F00
007F00
007F00
007F00
007F00
007F00
007F00
007F00
007F00
007F00
007F00
007F00
ENDCHAR
STARTCHAR Idieresis
ENCODING 207
SWIDTH 307 0
DWIDTH 23 0
BBX 24 66 -1 0
BITMAP
1C003C
7F007E
7F00FF
FF00FF
FF80FF
7F00FF
7F007E
1C003C
000000
000000
000000
000000
000000
007F00
007F00
007F00
007F00
007F00
007F00
007F00
007F00
007F00
007F00
007F00
007F00
007F00
007F00
007F00
007F00
007F00
007F00
007F00
007F00
007F00
007F00
007F00
007F00
007F00
007F00
007F00
007F00
007F00
007F00
007F00
007F00
007F00
007F00
007F00
007F00
007F00
007F00
007F00
007F00
007F00
007F00
007F00
007F00
007F00
007F00
007F00
007F00
007F00
007F00
007F00
007F00
007F00
ENDCHAR
STARTCHAR Eth
ENCODING 208
SWIDTH 789 0
DWIDTH 58 0
BBX 53 53 2 0
BITMAP
01FFFFFF800000
01FFFFFFF00000
01FFFFFFFE0000
01FFFFFFFF8000
01FFFFFFFFC000
01FFFFFFFFF000
01FC0000FFF800
01FC00001FFC00
01FC000007FE00
01FC000003FF00
01FC000000FF00
01FC0000007F80
01FC0000007FC0
01FC0000003FC0
01FC0000001FE0
01FC0000001FE0
01FC0000000FE0
01FC0000000FF0
01FC00000007F0
01FC00000007F0
01FC00000007F8
01FC00000007F8
01FC00000007F8
01FC00000003F8
FFFFFFF00003F8
FFFFFFF00003F8
FFFFFFF00003F8
FFFFFFF00003F8
01FC00000003F8
01FC00000003F8
01FC00000007F8
01FC00000007F8
01FC00000007F8
01FC00000007F0
01FC00000007F0
01FC0000000FF0
01FC0000000FF0
01FC0000001FE0
01FC0000001FE0
01FC0000003FC0
01FC0000003FC0
01FC0000007F80
01FC000000FF80
01FC000003FF00
01FC000007FE00
01FC00001FFC00
01FC0000FFF800
01FFFFFFFFF000
01FFFFFFFFE000
01FFFFFFFF8000
01FFFFFFFE0000
01FFFFFFF80000
01FFFFFF800000
ENDCHAR
STARTCHAR Ntilde
ENCODING 209
SWIDTH 756 0
DWIDTH 56 0
BBX 43 64 6 0
BITMAP
00007C03C000
0001FF03C000
0003FFC7C000
0003FFFF8000
0007C7FF8000
000781FF0000
0007807E0000
000000000000
000000000000
000000000000
000000000000
FC00000007E0
FE00000007E0
FF00000007E0
FF00000007E0
FF80000007E0
FFC0000007E0
FFE0000007E0
FFE0000007E0
FFF0000007E0
FFF8000007E0
FFFC000007E0
FFFE000007E0
FFFE000007E0
FEFF000007E0
FE7F800007E0
FE7FC00007E0
FE3FC00007E0
FE1FE00007E0
FE0FF00007E0
FE07F80007E0
FE07F80007E0
FE03FC0007E0
FE01FE0007E0
FE00FF0007E0
FE00FF8007E0
FE007F8007E0
FE003FC007E0
FE001FE007E0
FE001FF007E0
FE000FF007E0
FE0007F807E0
FE0003FC07E0
FE0003FE07E0
FE0001FE07E0
FE0000FF07E0
FE00007F87E0
FE00003FC7E0
FE00003FE7E0
FE00001FE7E0
FE00000FF7E0
FE000007FFE0
FE000007FFE0
FE000003FFE0
FE000001FFE0
FE000000FFE0
FE000000FFE0
FE0000007FE0
FE0000003FE0
FE0000001FE0
FE0000000FE0
FE0000000FE0
FE00000007E0
FE00000003E0
ENDCHAR
STARTCHAR Ograve
ENCODING 210
SWIDTH 798 0
DWIDTH 59 0
BBX 53 66 3 0
BITMAP
0007F800000000
0001FF00000000
0000FF80000000
00003FC0000000
00001FE0000000
00000FF0000000
000003F8000000
000001FC000000
0000007E000000
00000001000000
00000000000000
00000000000000
00000020000000
00001FFFC00000
0000FFFFF80000
0003FFFFFE0000
000FFFFFFF8000
001FFFFFFFC000
007FFFFFFFF000
00FFF0007FF800
01FFC0001FFC00
03FF000007FE00
03FE000003FE00
07F8000000FF00
0FF80000007F80
0FF00000007F80
1FE00000003FC0
1FC00000001FC0
3FC00000001FE0
3FC00000000FE0
3F800000000FE0
7F800000000FF0
7F800000000FF0
7F0000000007F0
7F0000000007F0
7F0000000007F0
7F0000000007F8
FF0000000007F8
FF0000000007F8
FF0000000007F8
FF0000000007F8
FF0000000007F8
7F0000000007F8
7F0000000007F0
7F0000000007F0
7F0000000007F0
7F8000000007F0
7F800000000FF0
3F800000000FE0
3F800000000FE0
3FC00000001FE0
1FC00000001FC0
1FE00000003FC0
0FF00000007F80
0FF00000007F80
07F8000000FF00
07FC000001FF00
03FF000007FE00
01FFC0000FFC00
00FFF0007FF800
007FFFFFFFF000
003FFFFFFFE000
000FFFFFFF8000
0003FFFFFE0000
0000FFFFF80000
00001FFFC00000
ENDCHAR
STARTCHAR Oacute
ENCODING 211
SWIDTH 798 0
DWIDTH 59 0
BBX 53 66 3 0
BITMAP
00000000FE0000
00000007FC0000
0000000FF80000
0000001FE00000
0000003FC00000
0000007F000000
000000FE000000
000001FC000000
000003F0000000
00000400000000
00000000000000
00000000000000
00000020000000
00001FFFC00000
0000FFFFF80000
0003FFFFFE0000
000FFFFFFF8000
001FFFFFFFC000
007FFFFFFFF000
00FFF0007FF800
01FFC0001FFC00
03FF000007FE00
03FE000003FE00
07F8000000FF00
0FF80000007F80
0FF00000007F80
1FE00000003FC0
1FC00000001FC0
3FC00000001FE0
3FC00000000FE0
3F800000000FE0
7F800000000FF0
7F800000000FF0
7F0000000007F0
7F0000000007F0
7F0000000007F0
7F0000000007F8
FF0000000007F8
FF0000000007F8
FF0000000007F8
FF0000000007F8
FF0000000007F8
7F0000000007F8
7F0000000007F0
7F0000000007F0
7F0000000007F0
7F8000000007F0
7F800000000FF0
3F800000000FE0
3F800000000FE0
3FC00000001FE0
1FC00000001FC0
1FE00000003FC0
0FF00000007F80
0FF00000007F80
07F8000000FF00
07FC000001FF00
03FF000007FE00
01FFC0000FFC00
00FFF0007FF800
007FFFFFFFF000
003FFFFFFFE000
000FFFFFFF8000
0003FFFFFE0000
0000FFFFF80000
00001FFFC00000
ENDCHAR
STARTCHAR Ocircumflex
ENCODING 212
SWIDTH 798 0
DWIDTH 59 0
BBX 53 65 3 0
BITMAP
000003FC000000
000007FE000000
00000FFF000000
00001FFF800000
00003F8FE00000
00007F07F00000
0000FC03F80000
0001F800FC0000
00020000000000
00000000000000
00000000000000
00000020000000
00001FFFC00000
0000FFFFF80000
0003FFFFFE0000
000FFFFFFF8000
001FFFFFFFC000
007FFFFFFFF000
00FFF0007FF800
01FFC0001FFC00
03FF000007FE00
03FE000003FE00
07F8000000FF00
0FF80000007F80
0FF00000007F80
1FE00000003FC0
1FC00000001FC0
3FC00000001FE0
3FC00000000FE0
3F800000000FE0
7F800000000FF0
7F800000000FF0
7F0000000007F0
7F0000000007F0
7F0000000007F0
7F0000000007F8
FF0000000007F8
FF0000000007F8
FF0000000007F8
FF0000000007F8
FF0000000007F8
7F0000000007F8
7F0000000007F0
7F0000000007F0
7F0000000007F0
7F8000000007F0
7F800000000FF0
3F800000000FE0
3F800000000FE0
3FC00000001FE0
1FC00000001FC0
1FE00000003FC0
0FF00000007F80
0FF00000007F80
07F8000000FF00
07FC000001FF00
03FF000007FE00
01FFC0000FFC00
00FFF0007FF800
007FFFFFFFF000
003FFFFFFFE000
000FFFFFFF8000
0003FFFFFE0000
0000FFFFF80000
00001FFFC00000
ENDCHAR
STARTCHAR Otilde
ENCODING 213
SWIDTH 798 0
DWIDTH 59 0
BBX 53 64 3 0
BITMAP
00000F80780000
00003FE0780000
00007FF8F80000
00007FFFF00000
0000F8FFF00000
0000F03FE00000
0000F00FC00000
00000000000000
00000000000000
00000000000000
00000020000000
00001FFFC00000
0000FFFFF80000
0003FFFFFE0000
000FFFFFFF8000
001FFFFFFFC000
007FFFFFFFF000
00FFF0007FF800
01FFC0001FFC00
03FF000007FE00
03FE000003FE00
07F8000000FF00
0FF80000007F80
0FF00000007F80
1FE00000003FC0
1FC00000001FC0
3FC00000001FE0
3FC00000000FE0
3F800000000FE0
7F800000000FF0
7F800000000FF0
7F0000000007F0
7F0000000007F0
7F0000000007F0
7F0000000007F8
FF0000000007F8
FF0000000007F8
FF0000000007F8
FF0000000007F8
FF0000000007F8
7F0000000007F8
7F0000000007F0
7F0000000007F0
7F0000000007F0
7F8000000007F0
7F800000000FF0
3F800000000FE0
3F800000000FE0
3FC00000001FE0
1FC00000001FC0
1FE00000003FC0
0FF00000007F80
0FF00000007F80
07F8000000FF00
07FC000001FF00
03FF000007FE00
01FFC0000FFC00
00FFF0007FF800
007FFFFFFFF000
003FFFFFFFE000
000FFFFFFF8000
0003FFFFFE0000
0000FFFFF80000
00001FFFC00000
ENDCHAR
STARTCHAR Odieresis
ENCODING 214
SWIDTH 798 0
DWIDTH 59 0
BBX 53 66 3 0
BITMAP
00007000F00000
0001FC01F80000
0001FC03FC0000
0003FC03FC0000
0003FE03FC0000
0001FC03FC0000
0001FC01F80000
00007000F00000
00000000000000
00000000000000
00000000000000
00000000000000
00000020000000
00001FFFC00000
0000FFFFF80000
0003FFFFFE0000
000FFFFFFF8000
001FFFFFFFC000
007FFFFFFFF000
00FFF0007FF800
01FFC0001FFC00
03FF000007FE00
03FE000003FE00
07F8000000FF00
0FF80000007F80
0FF00000007F80
1FE00000003FC0
1FC00000001FC0
3FC00000001FE0
3FC00000000FE0
3F800000000FE0
7F800000000FF0
7F800000000FF0
7F0000000007F0
7F0000000007F0
7F0000000007F0
7F0000000007F8
FF0000000007F8
FF0000000007F8
FF0000000007F8
FF0000000007F8
FF0000000007F8
7F0000000007F8
7F0000000007F0
7F0000000007F0
7F0000000007F0
7F8000000007F0
7F800000000FF0
3F800000000FE0
3F800000000FE0
3FC00000001FE0
1FC00000001FC0
1FE00000003FC0
0FF00000007F80
0FF00000007F80
07F8000000FF00
07FC000001FF00
03FF000007FE00
01FFC0000FFC00
00FFF0007FF800
007FFFFFFFF000
003FFFFFFFE000
000FFFFFFF8000
0003FFFFFE0000
0000FFFFF80000
00001FFFC00000
ENDCHAR
STARTCHAR multiply
ENCODING 215
SWIDTH 580 0
DWIDTH 43 0
BBX 33 33 5 8
BITMAP
1000000400
3800000E00
7C00001F00
FE00003F80
7F00007F00
3F8000FE00
1FC001FC00
0FE003F800
07F007F000
03F80FE000
01FC1FC000
00FE3F8000
007F7F0000
003FFE0000
001FFC0000
000FF80000
0007F00000
000FF80000
001FFC0000
003FFE0000
007F7F0000
00FE3F8000
01FC1FC000
03F80FE000
07F007F000
0FE003F800
1FC001FC00
3F8000FE00
7F00007F00
FE00003F80
7C00001F00
3800000E00
1000000400
ENDCHAR
STARTCHAR Oslash
ENCODING 216
SWIDTH 798 0
DWIDTH 59 0
BBX 53 60 3 -4
BITMAP
000000000001E0
000000000007C0
00000020000FC0
00001FFFC01F80
0000FFFFF81F00
0003FFFFFE3F00
000FFFFFFFFE00
001FFFFFFFFC00
007FFFFFFFF800
00FFF0007FF800
01FFC0001FFC00
03FF000007FE00
03FE000007FE00
07F800000FFF00
0FF800000FFF80
0FF000001F7F80
1FE000003F3FC0
1FC000007E3FC0
3FC000007C1FE0
3FC00000F81FE0
3F800001F80FE0
7F800003F00FF0
7F800003E00FF0
7F000007C007F0
7F00000FC007F0
7F00001F8007F0
7F00001F0007F8
FF00003F0007F8
FF00007E0007F8
FF00007C0007F8
FF0000F80007F8
FF0001F80007F8
7F0003F00007F8
7F0003E00007F0
7F0007C00007F0
7F000FC00007F0
7F801F800007F0
7F801F00000FF0
3F803E00000FE0
3F807E00000FE0
3FC0FC00001FE0
1FC0F800001FC0
1FE1F000003FC0
0FF3F000007F80
0FF3E000007F80
07FFC00000FF00
07FFC00001FF00
03FF800007FE00
01FF80000FFC00
00FFF0007FF800
007FFFFFFFF000
00FFFFFFFFE000
00FFFFFFFF8000
01F7FFFFFE0000
03F0FFFFF80000
07E01FFFC00000
07C00020000000
0F800000000000
1F800000000000
3E000000000000
ENDCHAR
STARTCHAR Ugrave
ENCODING 217
SWIDTH 730 0
DWIDTH 54 0
BBX 42 66 6 0
BITMAP
01FE00000000
007FC0000000
003FE0000000
000FF0000000
0007F8000000
0003FC000000
0000FE000000
00007F000000
00001F800000
000000400000
000000000000
000000000000
000000000000
FE0000001FC0
FE0000001FC0
FE0000001FC0
FE0000001FC0
FE0000001FC0
FE0000001FC0
FE0000001FC0
FE0000001FC0
FE0000001FC0
FE0000001FC0
FE0000001FC0
FE0000001FC0
FE0000001FC0
FE0000001FC0
FE0000001FC0
FE0000001FC0
FE0000001FC0
FE0000001FC0
FE0000001FC0
FE0000001FC0
FE0000001FC0
FE0000001FC0
FE0000001FC0
FE0000001FC0
FE0000001FC0
FE0000001FC0
FE0000001FC0
FE0000001FC0
FE0000001FC0
FE0000001FC0
FE0000001FC0
FE0000001FC0
FE0000001FC0
FE0000001FC0
FE0000001FC0
FE0000001FC0
FE0000001FC0
FF0000003FC0
7F0000003F80
7F0000003F80
7F8000007F80
3F8000007F00
3FC00000FF00
1FE00001FE00
1FF00003FE00
0FF80007FC00
07FE001FF800
03FFFFFFF000
01FFFFFFE000
00FFFFFFC000
007FFFFF8000
001FFFFE0000
0003FFF00000
ENDCHAR
STARTCHAR Uacute
ENCODING 218
SWIDTH 730 0
DWIDTH 54 0
BBX 42 66 6 0
BITMAP
0000003F8000
000001FF0000
000003FE0000
000007F80000
00000FF00000
00001FC00000
00003F800000
00007F000000
0000FC000000
000100000000
000000000000
000000000000
000000000000
FE0000001FC0
FE0000001FC0
FE0000001FC0
FE0000001FC0
FE0000001FC0
FE0000001FC0
FE0000001FC0
FE0000001FC0
FE0000001FC0
FE0000001FC0
FE0000001FC0
FE0000001FC0
FE0000001FC0
FE0000001FC0
FE0000001FC0
FE0000001FC0
FE0000001FC0
FE0000001FC0
FE0000001FC0
FE0000001FC0
FE0000001FC0
FE0000001FC0
FE0000001FC0
FE0000001FC0
FE0000001FC0
FE0000001FC0
FE0000001FC0
FE0000001FC0
FE0000001FC0
FE0000001FC0
FE0000001FC0
FE0000001FC0
FE0000001FC0
FE0000001FC0
FE0000001FC0
FE0000001FC0
FE0000001FC0
FF0000003FC0
7F0000003F80
7F0000003F80
7F8000007F80
3F8000007F00
3FC00000FF00
1FE00001FE00
1FF00003FE00
0FF80007FC00
07FE001FF800
03FFFFFFF000
01FFFFFFE000
00FFFFFFC000
007FFFFF8000
001FFFFE0000
0003FFF00000
ENDCHAR
STARTCHAR Ucircumflex
ENCODING 219
SWIDTH 730 0
DWIDTH 54 0
BBX 42 65 6 0
BITMAP
00007F800000
0000FFC00000
0001FFE00000
0003FFF00000
0007F1FC0000
000FE0FE0000
001F807F0000
003F001F8000
004000000000
000000000000
000000000000
000000000000
FE0000001FC0
FE0000001FC0
FE0000001FC0
FE0000001FC0
FE0000001FC0
FE0000001FC0
FE0000001FC0
FE0000001FC0
FE0000001FC0
FE0000001FC0
FE0000001FC0
FE0000001FC0
FE0000001FC0
FE0000001FC0
FE0000001FC0
FE0000001FC0
FE0000001FC0
FE0000001FC0
FE0000001FC0
FE0000001FC0
FE0000001FC0
FE0000001FC0
FE0000001FC0
FE0000001FC0
FE0000001FC0
FE0000001FC0
FE0000001FC0
FE0000001FC0
FE0000001FC0
FE0000001FC0
FE0000001FC0
FE0000001FC0
FE0000001FC0
FE0000001FC0
FE0000001FC0
FE0000001FC0
FE0000001FC0
FF0000003FC0
7F0000003F80
7F0000003F80
7F8000007F80
3F8000007F00
3FC00000FF00
1FE00001FE00
1FF00003FE00
0FF80007FC00
07FE001FF800
03FFFFFFF000
01FFFFFFE000
00FFFFFFC000
007FFFFF8000
001FFFFE0000
0003FFF00000
ENDCHAR
STARTCHAR Udieresis
ENCODING 220
SWIDTH 730 0
DWIDTH 54 0
BBX 42 66 6 0
BITMAP
000E001E0000
003F803F0000
003F807F8000
007F807F8000
007FC07F8000
003F807F8000
003F803F0000
000E001E0000
000000000000
000000000000
000000000000
000000000000
000000000000
FE0000001FC0
FE0000001FC0
FE0000001FC0
FE0000001FC0
FE0000001FC0
FE0000001FC0
FE0000001FC0
FE0000001FC0
FE0000001FC0
FE0000001FC0
FE0000001FC0
FE0000001FC0
FE0000001FC0
FE0000001FC0
FE0000001FC0
FE0000001FC0
FE0000001FC0
FE0000001FC0
FE0000001FC0
FE0000001FC0
FE0000001FC0
FE0000001FC0
FE0000001FC0
FE0000001FC0
FE0000001FC0
FE0000001FC0
FE0000001FC0
FE0000001FC0
FE0000001FC0
FE0000001FC0
FE0000001FC0
FE0000001FC0
FE0000001FC0
FE0000001FC0
FE0000001FC0
FE0000001FC0
FE0000001FC0
FF0000003FC0
7F0000003F80
7F0000003F80
7F8000007F80
3F8000007F00
3FC00000FF00
1FE00001FE00
1FF00003FE00
0FF80007FC00
07FE001FF800
03FFFFFFF000
01FFFFFFE000
00FFFFFFC000
007FFFFF8000
001FFFFE0000
0003FFF00000
ENDCHAR
STARTCHAR Yacute
ENCODING 221
SWIDTH 629 0
DWIDTH 47 0
BBX 46 66 0 0
BITMAP
00000007F000
0000003FE000
0000007FC000
000000FF0000
000001FE0000
000003F80000
000007F00000
00000FE00000
00001F800000
000020000000
000000000000
000000000000
000000000000
FF00000001FC
7F80000003F8
3FC0000007F8
3FC000000FF0
1FE000000FF0
0FE000001FE0
0FF000001FC0
07F000003FC0
07F800003F80
03FC00007F80
01FC0000FF00
01FE0000FE00
00FE0001FE00
007F0001FC00
007F8003F800
003F8007F800
003FC007F000
001FC00FF000
000FE00FE000
000FF01FC000
0007F03FC000
0007F83F8000
0003F87F8000
0001FC7F0000
0001FCFE0000
0000FEFE0000
0000FEFC0000
00007FFC0000
00003FF80000
00003FF00000
00001FF00000
00001FE00000
00000FE00000
00000FE00000
00000FE00000
00000FE00000
00000FE00000
00000FE00000
00000FE00000
00000FE00000
00000FE00000
00000FE00000
00000FE00000
00000FE00000
00000FE00000
00000FE00000
00000FE00000
00000FE00000
00000FE00000
00000FE00000
00000FE00000
00000FE00000
00000FE00000
ENDCHAR
STARTCHAR Thorn
ENCODING 222
SWIDTH 611 0
DWIDTH 45 0
BBX 36 53 7 0
BITMAP
FE00000000
FE00000000
FE00000000
FE00000000
FE00000000
FE00000000
FE00000000
FE00000000
FE00000000
FE00000000
FFFFFC0000
FFFFFFC000
FFFFFFF000
FFFFFFF800
FFFFFFFE00
FE000FFF00
FE0001FF80
FE00007F80
FE00003FC0
FE00003FC0
FE00001FE0
FE00000FE0
FE00000FE0
FE00000FE0
FE00000FF0
FE00000FF0
FE00000FF0
FE00000FF0
FE00000FE0
FE00000FE0
FE00000FE0
FE00001FE0
FE00001FE0
FE00003FC0
FE00007FC0
FE0000FF80
FE0003FF00
FE001FFE00
FFFFFFFC00
FFFFFFF800
FFFFFFE000
FFFFFF8000
FFFFF80000
FE00000000
FE00000000
FE00000000
FE00000000
FE00000000
FE00000000
FE00000000
FE00000000
FE00000000
FE00000000
ENDCHAR
STARTCHAR germandbls
ENCODING 223
SWIDTH 609 0
DWIDTH 45 0
BBX 35 54 7 0
BITMAP
0000400000
001FFF0000
007FFFC000
01FFFFF000
03FFFFF800
0FFFFFFC00
0FF803FE00
1FE000FE00
3FC0007F00
3F80003F00
7F00003F00
7F00003F80
FE00003F80
FE00003F80
FE00003F00
FE00007F00
FE0000FF00
FE0001FE00
FE0003FC00
FE0007F800
FE000FF000
FE003FC000
FE007F8000
FE00FF0000
FE00FE0000
FE01FC0000
FE01FC0000
FE01FC0000
FE01FE0000
FE01FF0000
FE00FF8000
FE00FFE000
FE007FF800
FE003FFE00
FE001FFF00
FE0007FF80
FE0001FFC0
FE00007FC0
FE00001FE0
FE00000FE0
FE00000FE0
FE000007E0
FE000007E0
FE000007E0
FE000007E0
FE000007E0
FE0C000FE0
FE1F001FC0
FE1FC03FC0
FE3FFFFF80
FE1FFFFF00
FE0FFFFE00
FE03FFFC00
FE00FFE000
ENDCHAR
STARTCHAR agrave
ENCODING 224
SWIDTH 507 0
DWIDTH 38 0
BBX 30 54 3 0
BITMAP
03F80000
01FE0000
00FF0000
007F0000
003F8000
001FC000
000FC000
0007E000
0003F000
0001F000
0000F800
00000000
00000000
00000000
00000000
00000000
00008000
003FFC00
00FFFF00
03FFFFC0
0FFFFFE0
1FFFFFE0
3FE00FF0
1F8007F8
0F0003F8
000001F8
000001FC
000001FC
000001FC
000001FC
000001FC
000001FC
000001FC
0000FFFC
001FFFFC
00FFFFFC
03FFFFFC
0FFF01FC
1FF001FC
3FC001FC
7F0001FC
7E0001FC
7E0001FC
FE0001FC
FE0001FC
FE0003FC
7E0007FC
7F000FFC
7F803FFC
7FFFFEFC
3FFFFCFC
1FFFF07C
0FFFE07C
03FF807C
ENDCHAR
STARTCHAR aacute
ENCODING 225
SWIDTH 507 0
DWIDTH 38 0
BBX 30 54 3 0
BITMAP
000007E0
00003FC0
00007F80
00007F00
0000FE00
0000FE00
0001FC00
0003F800
0003F000
0007E000
0007C000
00080000
00000000
00000000
00000000
00000000
00008000
003FFC00
00FFFF00
03FFFFC0
0FFFFFE0
1FFFFFE0
3FE00FF0
1F8007F8
0F0003F8
000001F8
000001FC
000001FC
000001FC
000001FC
000001FC
000001FC
000001FC
0000FFFC
001FFFFC
00FFFFFC
03FFFFFC
0FFF01FC
1FF001FC
3FC001FC
7F0001FC
7E0001FC
7E0001FC
FE0001FC
FE0001FC
FE0003FC
7E0007FC
7F000FFC
7F803FFC
7FFFFEFC
3FFFFCFC
1FFFF07C
0FFFE07C
03FF807C
ENDCHAR
STARTCHAR acircumflex
ENCODING 226
SWIDTH 507 0
DWIDTH 38 0
BBX 30 53 3 0
BITMAP
0007F000
000FF800
001FFC00
003FFC00
007F7E00
00FE3F00
00FC1F80
01F80FC0
03F007E0
07C001F0
00000000
00000000
00000000
00000000
00000000
00008000
003FFC00
00FFFF00
03FFFFC0
0FFFFFE0
1FFFFFE0
3FE00FF0
1F8007F8
0F0003F8
000001F8
000001FC
000001FC
000001FC
000001FC
000001FC
000001FC
000001FC
0000FFFC
001FFFFC
00FFFFFC
03FFFFFC
0FFF01FC
1FF001FC
3FC001FC
7F0001FC
7E0001FC
7E0001FC
FE0001FC
FE0001FC
FE0003FC
7E0007FC
7F000FFC
7F803FFC
7FFFFEFC
3FFFFCFC
1FFFF07C
0FFFE07C
03FF807C
ENDCHAR
STARTCHAR atilde
ENCODING 227
SWIDTH 507 0
DWIDTH 38 0
BBX 30 52 3 0
BITMAP
003E01E0
00FF81E0
01FFE3E0
01FFFFE0
03E3FFC0
03C1FFC0
03C07F80
03C01E00
00000000
00000000
00000000
00000000
00000000
00000000
00008000
003FFC00
00FFFF00
03FFFFC0
0FFFFFE0
1FFFFFE0
3FE00FF0
1F8007F8
0F0003F8
000001F8
000001FC
000001FC
000001FC
000001FC
000001FC
000001FC
000001FC
0000FFFC
001FFFFC
00FFFFFC
03FFFFFC
0FFF01FC
1FF001FC
3FC001FC
7F0001FC
7E0001FC
7E0001FC
FE0001FC
FE0001FC
FE0003FC
7E0007FC
7F000FFC
7F803FFC
7FFFFEFC
3FFFFCFC
1FFFF07C
0FFFE07C
03FF807C
ENDCHAR
STARTCHAR adieresis
ENCODING 228
SWIDTH 507 0
DWIDTH 38 0
BBX 30 52 3 0
BITMAP
00F00780
03F80FC0
03FC1FE0
03FC1FE0
03FC1FE0
03FC1FE0
03F80FC0
00F00780
00000000
00000000
00000000
00000000
00000000
00000000
00008000
003FFC00
00FFFF00
03FFFFC0
0FFFFFE0
1FFFFFE0
3FE00FF0
1F8007F8
0F0003F8
000001F8
000001FC
000001FC
000001FC
000001FC
000001FC
000001FC
000001FC
0000FFFC
001FFFFC
00FFFFFC
03FFFFFC
0FFF01FC
1FF001FC
3FC001FC
7F0001FC
7E0001FC
7E0001FC
FE0001FC
FE0001FC
FE0003FC
7E0007FC
7F000FFC
7F803FFC
7FFFFEFC
3FFFFCFC
1FFFF07C
0FFFE07C
03FF807C
ENDCHAR
STARTCHAR aring
ENCODING 229
SWIDTH 507 0
DWIDTH 38 0
BBX 30 56 3 0
BITMAP
0003E000
000FF800
001FFC00
003C3E00
00781E00
00780F00
00780F00
00780F00
00780F00
00781E00
003C3E00
001FFC00
000FF800
0007E000
00000000
00000000
00000000
00000000
00008000
003FFC00
00FFFF00
03FFFFC0
0FFFFFE0
1FFFFFE0
3FE00FF0
1F8007F8
0F0003F8
000001F8
000001FC
000001FC
000001FC
000001FC
000001FC
000001FC
000001FC
0000FFFC
001FFFFC
00FFFFFC
03FFFFFC
0FFF01FC
1FF001FC
3FC001FC
7F0001FC
7E0001FC
7E0001FC
FE0001FC
FE0001FC
FE0003FC
7E0007FC
7F000FFC
7F803FFC
7FFFFEFC
3FFFFCFC
1FFFF07C
0FFFE07C
03FF807C
ENDCHAR
STARTCHAR ae
ENCODING 230
SWIDTH 816 0
DWIDTH 60 0
BBX 54 38 3 0
BITMAP
00010000010000
003FFC003FF800
00FFFF00FFFE00
03FFFF81FFFF80
0FFFFFC3FFFFC0
1FFFFFC7FFFFE0
3FE00FEFF00FE0
1F8007FFC007F0
1F0003FF8003F8
040001FF0001F8
000001FE0001F8
000001FE0000FC
000001FC0000FC
000001FC0000FC
000001FC0000FC
000001FC00007C
0000FFFFFFFFFC
001FFFFFFFFFFC
00FFFFFFFFFFFC
03FFFFFFFFFFFC
07FF81FC000000
1FF001FC000000
3FC001FC000000
3F8001FC000000
7F0001FC000000
7E0001FE000000
7E0001FE000000
FE0001FE000000
FE0003FF000000
FE0003FF000000
7E0007DF800070
7F000FDFC000F8
7F803F8FF003FC
3FFFFF07FFFFF8
3FFFFE03FFFFF0
1FFFFC01FFFFE0
0FFFF800FFFF80
03FFC0003FFE00
ENDCHAR
STARTCHAR ccedilla
ENCODING 231
SWIDTH 467 0
DWIDTH 35 0
BBX 30 51 3 -13
BITMAP
00008000
001FFF00
007FFFC0
01FFFFE0
03FFFFF8
07FFFFFC
0FF803F8
1FE000F0
3FC00020
3F800000
7F800000
7F000000
7F000000
FE000000
FE000000
FE000000
FE000000
FE000000
FE000000
FE000000
FE000000
FE000000
FE000000
FE000000
FE000000
FE000000
7F000000
7F000000
7F000000
3F800000
3FC00030
1FE000F8
1FF801FC
0FFF1FFC
07FFFFF8
03FFFFE0
00FFFFC0
003FFE00
0003E000
0003C000
0007C000
0007F000
0007FC00
0000FE00
00003E00
00003F00
00003F00
00183E00
001FFE00
003FFC00
000FE000
ENDCHAR
STARTCHAR egrave
ENCODING 232
SWIDTH 524 0
DWIDTH 39 0
BBX 33 54 3 0
BITMAP
01FC000000
00FF000000
007F800000
003F800000
001FC00000
000FE00000
0007E00000
0003F00000
0001F80000
0000F80000
00007C0000
0000000000
0000000000
0000000000
0000000000
0000000000
0000800000
001FFE0000
007FFF8000
01FFFFE000
03FFFFF000
07FFFFF800
0FF803FC00
1FE001FE00
3FC0007E00
3F80007F00
7F00003F00
7E00003F00
7E00001F00
FE00001F80
FE00001F80
FFFFFFFF80
FFFFFFFF80
FFFFFFFF80
FFFFFFFF00
FC00000000
FC00000000
FC00000000
FE00000000
FE00000000
FE00000000
7E00000000
7F00000000
7F00000000
3F80000000
3F80000000
1FC0001E00
1FF0003E00
0FF801FF00
07FFFFFF00
03FFFFFE00
01FFFFF800
007FFFE000
001FFF8000
ENDCHAR
STARTCHAR eacute
ENCODING 233
SWIDTH 524 0
DWIDTH 39 0
BBX 33 54 3 0
BITMAP
000003F000
00001FE000
00003FC000
00003F8000
00007F0000
00007F0000
0000FE0000
0001FC0000
0001F80000
0003F00000
0003E00000
0004000000
0000000000
0000000000
0000000000
0000000000
0000800000
001FFE0000
007FFF8000
01FFFFE000
03FFFFF000
07FFFFF800
0FF803FC00
1FE001FE00
3FC0007E00
3F80007F00
7F00003F00
7E00003F00
7E00001F00
FE00001F80
FE00001F80
FFFFFFFF80
FFFFFFFF80
FFFFFFFF80
FFFFFFFF00
FC00000000
FC00000000
FC00000000
FE00000000
FE00000000
FE00000000
7E00000000
7F00000000
7F00000000
3F80000000
3F80000000
1FC0001E00
1FF0003E00
0FF801FF00
07FFFFFF00
03FFFFFE00
01FFFFF800
007FFFE000
001FFF8000
ENDCHAR
STARTCHAR ecircumflex
ENCODING 234
SWIDTH 524 0
DWIDTH 39 0
BBX 33 53 3 0
BITMAP
0003F80000
0007FC0000
000FFE0000
001FFE0000
003FBF0000
007F1F8000
007E0FC000
00FC07E000
01F803F000
03E000F800
0000000000
0000000000
0000000000
0000000000
0000000000
0000800000
001FFE0000
007FFF8000
01FFFFE000
03FFFFF000
07FFFFF800
0FF803FC00
1FE001FE00
3FC0007E00
3F80007F00
7F00003F00
7E00003F00
7E00001F00
FE00001F80
FE00001F80
FFFFFFFF80
FFFFFFFF80
FFFFFFFF80
FFFFFFFF00
FC00000000
FC00000000
FC00000000
FE00000000
FE00000000
FE00000000
7E00000000
7F00000000
7F00000000
3F80000000
3F80000000
1FC0001E00
1FF0003E00
0FF801FF00
07FFFFFF00
03FFFFFE00
01FFFFF800
007FFFE000
001FFF8000
ENDCHAR
STARTCHAR edieresis
ENCODING 235
SWIDTH 524 0
DWIDTH 39 0
BBX 33 52 3 0
BITMAP
007803C000
01FC07E000
01FE0FF000
01FE0FF000
01FE0FF000
01FE0FF000
01FC07E000
007803C000
0000000000
0000000000
0000000000
0000000000
0000000000
0000000000
0000800000
001FFE0000
007FFF8000
01FFFFE000
03FFFFF000
07FFFFF800
0FF803FC00
1FE001FE00
3FC0007E00
3F80007F00
7F00003F00
7E00003F00
7E00001F00
FE00001F80
FE00001F80
FFFFFFFF80
FFFFFFFF80
FFFFFFFF80
FFFFFFFF00
FC00000000
FC00000000
FC00000000
FE00000000
FE00000000
FE00000000
7E00000000
7F00000000
7F00000000
3F80000000
3F80000000
1FC0001E00
1FF0003E00
0FF801FF00
07FFFFFF00
03FFFFFE00
01FFFFF800
007FFFE000
001FFF8000
ENDCHAR
STARTCHAR igrave
ENCODING 236
SWIDTH 256 0
DWIDTH 19 0
BBX 15 54 -1 0
BITMAP
FE00
7F80
3FC0
1FC0
0FE0
07F0
03F0
01F8
00FC
007C
003E
0000
0000
0000
0000
0000
0000
01FC
01FC
01FC
01FC
01FC
01FC
01FC
01FC
01FC
01FC
01FC
01FC
01FC
01FC
01FC
01FC
01FC
01FC
01FC
01FC
01FC
01FC
01FC
01FC
01FC
01FC
01FC
01FC
01FC
01FC
01FC
01FC
01FC
01FC
01FC
01FC
01FC
ENDCHAR
STARTCHAR iacute
ENCODING 237
SWIDTH 256 0
DWIDTH 19 0
BBX 15 54 5 0
BITMAP
007E
03FC
07F8
07F0
0FE0
0FE0
1FC0
3F80
3F00
7E00
7C00
8000
0000
0000
0000
0000
0000
7F00
7F00
7F00
7F00
7F00
7F00
7F00
7F00
7F00
7F00
7F00
7F00
7F00
7F00
7F00
7F00
7F00
7F00
7F00
7F00
7F00
7F00
7F00
7F00
7F00
7F00
7F00
7F00
7F00
7F00
7F00
7F00
7F00
7F00
7F00
7F00
7F00
ENDCHAR
STARTCHAR icircumflex
ENCODING 238
SWIDTH 256 0
DWIDTH 19 0
BBX 23 53 -2 0
BITMAP
00FE00
01FF00
03FF80
07FF80
0FEFC0
1FC7E0
1F83F0
3F01F8
7E00FC
F8003E
000000
000000
000000
000000
000000
000000
00FE00
00FE00
00FE00
00FE00
00FE00
00FE00
00FE00
00FE00
00FE00
00FE00
00FE00
00FE00
00FE00
00FE00
00FE00
00FE00
00FE00
00FE00
00FE00
00FE00
00FE00
00FE00
00FE00
00FE00
00FE00
00FE00
00FE00
00FE00
00FE00
00FE00
00FE00
00FE00
00FE00
00FE00
00FE00
00FE00
00FE00
ENDCHAR
STARTCHAR idieresis
ENCODING 239
SWIDTH 256 0
DWIDTH 19 0
BBX 21 52 -1 0
BITMAP
3C01E0
FE03F0
FF07F8
FF07F8
FF07F8
FF07F8
FE03F0
3C01E0
000000
000000
000000
000000
000000
000000
000000
01FC00
01FC00
01FC00
01FC00
01FC00
01FC00
01FC00
01FC00
01FC00
01FC00
01FC00
01FC00
01FC00
01FC00
01FC00
01FC00
01FC00
01FC00
01FC00
01FC00
01FC00
01FC00
01FC00
01FC00
01FC00
01FC00
01FC00
01FC00
01FC00
01FC00
01FC00
01FC00
01FC00
01FC00
01FC00
01FC00
01FC00
ENDCHAR
STARTCHAR eth
ENCODING 240
SWIDTH 553 0
DWIDTH 41 0
BBX 35 52 3 0
BITMAP
00F0001000
00FE003800
00FFC0F800
00FFF1FC00
00FFFFF000
003FFFE000
0007FFC000
0000FFC000
0000FFE000
0003FFF000
0007F7F800
000FC3FC00
000F80FC00
000600FE00
0004007F00
0000003F00
0000003F80
0000001F80
000FF81F80
007FFE0FC0
01FFFF8FC0
03FFFFCFC0
07FFFFE7C0
0FFC07F7E0
1FF001FFE0
3FC0007FE0
3F80003FE0
7F00001FE0
7F00001FE0
7E00000FE0
FE00000FE0
FE000007E0
FE000007E0
FC000007E0
FC000007E0
FC00000FE0
FC00000FE0
FE00000FC0
FE00000FC0
FE00000FC0
7E00001FC0
7F00001F80
7F00003F80
3F80007F00
3FC0007F00
1FE001FE00
0FF803FC00
0FFFFFFC00
03FFFFF800
01FFFFE000
00FFFFC000
001FFE0000
ENDCHAR
STARTCHAR ntilde
ENCODING 241
SWIDTH 556 0
DWIDTH 41 0
BBX 32 52 5 0
BITMAP
003E01E0
00FF81E0
01FFE3E0
01FFFFE0
03E3FFC0
03C1FFC0
03C07F80
03C01E00
00000000
00000000
00000000
00000000
00000000
00000000
00002000
FC03FF00
FC0FFFC0
FC3FFFF0
FC7FFFF8
FCFFFFF8
FFF807FC
FFE001FC
FFC001FE
FF0000FE
FE0000FE
FE00007E
FE00007E
FE00007F
FE00007F
FE00007F
FE00007F
FE00007F
FE00007F
FE00007F
FE00007F
FE00007F
FE00007F
FE00007F
FE00007F
FE00007F
FE00007F
FE00007F
FE00007F
FE00007F
FE00007F
FE00007F
FE00007F
FE00007F
FE00007F
FE00007F
FE00007F
FE00007F
ENDCHAR
STARTCHAR ograve
ENCODING 242
SWIDTH 556 0
DWIDTH 41 0
BBX 35 54 3 0
BITMAP
01FC000000
00FF000000
007F800000
003F800000
001FC00000
000FE00000
0007E00000
0003F00000
0001F80000
0000F80000
00007C0000
0000000000
0000000000
0000000000
0000000000
0000000000
0000400000
001FFF0000
007FFFC000
01FFFFF000
03FFFFF800
07FFFFFC00
0FF803FE00
1FE000FF00
3FC0007F80
3F80003F80
7F00001FC0
7F00001FC0
7F00000FC0
FE00000FE0
FE00000FE0
FE00000FE0
FE00000FE0
FE000007E0
FC000007E0
FC000007E0
FC000007E0
FE000007E0
FE00000FE0
FE00000FE0
FE00000FE0
FE00000FE0
7E00000FC0
7F00001FC0
7F00001FC0
3F80003F80
3FC0007F80
1FE000FF00
0FF803FE00
07FFFFFC00
03FFFFF800
01FFFFF000
007FFFC000
001FFF0000
ENDCHAR
STARTCHAR oacute
ENCODING 243
SWIDTH 556 0
DWIDTH 41 0
BBX 35 54 3 0
BITMAP
000003F000
00001FE000
00003FC000
00003F8000
00007F0000
00007F0000
0000FE0000
0001FC0000
0001F80000
0003F00000
0003E00000
0004000000
0000000000
0000000000
0000000000
0000000000
0000400000
001FFF0000
007FFFC000
01FFFFF000
03FFFFF800
07FFFFFC00
0FF803FE00
1FE000FF00
3FC0007F80
3F80003F80
7F00001FC0
7F00001FC0
7F00000FC0
FE00000FE0
FE00000FE0
FE00000FE0
FE00000FE0
FE000007E0
FC000007E0
FC000007E0
FC000007E0
FE000007E0
FE00000FE0
FE00000FE0
FE00000FE0
FE00000FE0
7E00000FC0
7F00001FC0
7F00001FC0
3F80003F80
3FC0007F80
1FE000FF00
0FF803FE00
07FFFFFC00
03FFFFF800
01FFFFF000
007FFFC000
001FFF0000
ENDCHAR
STARTCHAR ocircumflex
ENCODING 244
SWIDTH 556 0
DWIDTH 41 0
BBX 35 53 3 0
BITMAP
0003F80000
0007FC0000
000FFE0000
001FFE0000
003FBF0000
007F1F8000
007E0FC000
00FC07E000
01F803F000
03E000F800
0000000000
0000000000
0000000000
0000000000
0000000000
0000400000
001FFF0000
007FFFC000
01FFFFF000
03FFFFF800
07FFFFFC00
0FF803FE00
1FE000FF00
3FC0007F80
3F80003F80
7F00001FC0
7F00001FC0
7F00000FC0
FE00000FE0
FE00000FE0
FE00000FE0
FE00000FE0
FE000007E0
FC000007E0
FC000007E0
FC000007E0
FE000007E0
FE00000FE0
FE00000FE0
FE00000FE0
FE00000FE0
7E00000FC0
7F00001FC0
7F00001FC0
3F80003F80
3FC0007F80
1FE000FF00
0FF803FE00
07FFFFFC00
03FFFFF800
01FFFFF000
007FFFC000
001FFF0000
ENDCHAR
STARTCHAR otilde
ENCODING 245
SWIDTH 556 0
DWIDTH 41 0
BBX 35 52 3 0
BITMAP
001F00F000
007FC0F000
00FFF1F000
00FFFFF000
01F1FFE000
01E0FFE000
01E03FC000
01E00F0000
0000000000
0000000000
0000000000
0000000000
0000000000
0000000000
0000400000
001FFF0000
007FFFC000
01FFFFF000
03FFFFF800
07FFFFFC00
0FF803FE00
1FE000FF00
3FC0007F80
3F80003F80
7F00001FC0
7F00001FC0
7F00000FC0
FE00000FE0
FE00000FE0
FE00000FE0
FE00000FE0
FE000007E0
FC000007E0
FC000007E0
FC000007E0
FE000007E0
FE00000FE0
FE00000FE0
FE00000FE0
FE00000FE0
7E00000FC0
7F00001FC0
7F00001FC0
3F80003F80
3FC0007F80
1FE000FF00
0FF803FE00
07FFFFFC00
03FFFFF800
01FFFFF000
007FFFC000
001FFF0000
ENDCHAR
STARTCHAR odieresis
ENCODING 246
SWIDTH 556 0
DWIDTH 41 0
BBX 35 52 3 0
BITMAP
007803C000
01FC07E000
01FE0FF000
01FE0FF000
01FE0FF000
01FE0FF000
01FC07E000
007803C000
0000000000
0000000000
0000000000
0000000000
0000000000
0000000000
0000400000
001FFF0000
007FFFC000
01FFFFF000
03FFFFF800
07FFFFFC00
0FF803FE00
1FE000FF00
3FC0007F80
3F80003F80
7F00001FC0
7F00001FC0
7F00000FC0
FE00000FE0
FE00000FE0
FE00000FE0
FE00000FE0
FE000007E0
FC000007E0
FC000007E0
FC000007E0
FE000007E0
FE00000FE0
FE00000FE0
FE00000FE0
FE00000FE0
7E00000FC0
7F00001FC0
7F00001FC0
3F80003F80
3FC0007F80
1FE000FF00
0FF803FE00
07FFFFFC00
03FFFFF800
01FFFFF000
007FFFC000
001FFF0000
ENDCHAR
STARTCHAR divide
ENCODING 247
SWIDTH 580 0
DWIDTH 43 0
BBX 35 35 4 7
BITMAP
0001E00000
0003F80000
0007FC0000
0007FC0000
0007FC0000
0007FC0000
0007FC0000
0003F80000
0001E00000
0000000000
0000000000
0000000000
0000000000
0000000000
0000000000
FFFFFFFFE0
FFFFFFFFE0
FFFFFFFFE0
FFFFFFFFE0
FFFFFFFFE0
0000000000
0000000000
0000000000
0000000000
0000000000
0000000000
0001E00000
0003F80000
0007FC0000
0007FC0000
0007FC0000
0007FC0000
0007FC0000
0003F80000
0001E00000
ENDCHAR
STARTCHAR oslash
ENCODING 248
SWIDTH 556 0
DWIDTH 41 0
BBX 38 44 2 -3
BITMAP
000000003C
00000000F8
00000001F0
00002003F0
000FFF83E0
003FFFE7C0
00FFFFFF80
01FFFFFF80
03FFFFFF00
07FC01FF00
0FF0007F80
1FE0007FC0
1FC000FFC0
3F8001FFE0
3F8003F7E0
3F0003E7E0
7F0007C7F0
7F000F83F0
7E001F03F0
7E001F03F0
7E003E03F0
7E007C03F0
7E00F803F0
7E00F803F0
7E01F003F0
7E03E003F0
7E07C003F0
7F07C007F0
7F0F8007F0
3F1F0007F0
3FBE000FE0
3FFE000FE0
1FFC001FC0
0FF8003FC0
0FF0007F80
07FC01FF00
03FFFFFF00
07FFFFFE00
0FFFFFF800
0FBFFFF000
1F0FFF8000
3E00200000
7C00000000
F800000000
ENDCHAR
STARTCHAR ugrave
ENCODING 249
SWIDTH 556 0
DWIDTH 41 0
BBX 31 54 5 0
BITMAP
07F00000
03FC0000
01FE0000
00FE0000
007F0000
003F8000
001F8000
000FC000
0007E000
0003E000
0001F000
00000000
00000000
00000000
00000000
00000000
00000000
FC0000FE
FC0000FE
FC0000FE
FC0000FE
FC0000FE
FC0000FE
FC0000FE
FC0000FE
FC0000FE
FC0000FE
FC0000FE
FC0000FE
FC0000FE
FC0000FE
FC0000FE
FC0000FE
FC0000FE
FC0000FE
FC0000FE
FC0000FE
FC0000FE
FC0000FE
FC0000FE
FC0000FE
FC0000FE
FC0000FE
FC0000FE
FE0000FE
FE0001FE
FF0003FE
7F000FFE
7FC03FFE
3FFFFF7E
1FFFFE7E
1FFFF87E
07FFF07E
01FFC07E
ENDCHAR
STARTCHAR uacute
ENCODING 250
SWIDTH 556 0
DWIDTH 41 0
BBX 31 54 5 0
BITMAP
00000FC0
00007F80
0000FF00
0000FE00
0001FC00
0001FC00
0003F800
0007F000
0007E000
000FC000
000F8000
00100000
00000000
00000000
00000000
00000000
00000000
FC0000FE
FC0000FE
FC0000FE
FC0000FE
FC0000FE
FC0000FE
FC0000FE
FC0000FE
FC0000FE
FC0000FE
FC0000FE
FC0000FE
FC0000FE
FC0000FE
FC0000FE
FC0000FE
FC0000FE
FC0000FE
FC0000FE
FC0000FE
FC0000FE
FC0000FE
FC0000FE
FC0000FE
FC0000FE
FC0000FE
FC0000FE
FE0000FE
FE0001FE
FF0003FE
7F000FFE
7FC03FFE
3FFFFF7E
1FFFFE7E
1FFFF87E
07FFF07E
01FFC07E
ENDCHAR
STARTCHAR ucircumflex
ENCODING 251
SWIDTH 556 0
DWIDTH 41 0
BBX 31 53 5 0
BITMAP
000FE000
001FF000
003FF800
007FF800
00FEFC00
01FC7E00
01F83F00
03F01F80
07E00FC0
0F8003E0
00000000
00000000
00000000
00000000
00000000
00000000
FC0000FE
FC0000FE
FC0000FE
FC0000FE
FC0000FE
FC0000FE
FC0000FE
FC0000FE
FC0000FE
FC0000FE
FC0000FE
FC0000FE
FC0000FE
FC0000FE
FC0000FE
FC0000FE
FC0000FE
FC0000FE
FC0000FE
FC0000FE
FC0000FE
FC0000FE
FC0000FE
FC0000FE
FC0000FE
FC0000FE
FC0000FE
FE0000FE
FE0001FE
FF0003FE
7F000FFE
7FC03FFE
3FFFFF7E
1FFFFE7E
1FFFF87E
07FFF07E
01FFC07E
ENDCHAR
STARTCHAR udieresis
ENCODING 252
SWIDTH 556 0
DWIDTH 41 0
BBX 31 52 5 0
BITMAP
01E00F00
07F01F80
07F83FC0
07F83FC0
07F83FC0
07F83FC0
07F01F80
01E00F00
00000000
00000000
00000000
00000000
00000000
00000000
00000000
FC0000FE
FC0000FE
FC0000FE
FC0000FE
FC0000FE
FC0000FE
FC0000FE
FC0000FE
FC0000FE
FC0000FE
FC0000FE
FC0000FE
FC0000FE
FC0000FE
FC0000FE
FC0000FE
FC0000FE
FC0000FE
FC0000FE
FC0000FE
FC0000FE
FC0000FE
FC0000FE
FC0000FE
FC0000FE
FC0000FE
FC0000FE
FE0000FE
FE0001FE
FF0003FE
7F000FFE
7FC03FFE
3FFFFF7E
1FFFFE7E
1FFFF87E
07FFF07E
01FFC07E
ENDCHAR
STARTCHAR yacute
ENCODING 253
SWIDTH 512 0
DWIDTH 38 0
BBX 36 67 1 -13
BITMAP
000001F800
00000FF000
00001FE000
00001FC000
00003F8000
00003F8000
00007F0000
0000FE0000
0000FC0000
0001F80000
0001F00000
0002000000
0000000000
0000000000
0000000000
0000000000
0000000000
FE000003F0
FE000007F0
7F000007E0
7F00000FE0
7F80000FC0
3F80001FC0
3F80001FC0
1FC0001F80
1FC0003F80
0FE0003F00
0FE0007F00
07F0007E00
07F0007E00
07F000FC00
03F800FC00
03F801FC00
01FC01F800
01FC03F800
00FC03F000
00FE03F000
00FE07E000
007F07E000
007F0FE000
003F8FC000
003F8FC000
001F9F8000
001FDF8000
000FDF0000
000FFF0000
000FFF0000
0007FE0000
0007FE0000
0003FC0000
0003FC0000
0001F80000
0001F80000
0003F80000
0003F00000
0003F00000
0007E00000
0007E00000
000FC00000
000FC00000
001FC00000
001F800000
003F800000
003F000000
007F000000
007E000000
00FE000000
ENDCHAR
STARTCHAR thorn
ENCODING 254
SWIDTH 552 0
DWIDTH 41 0
BBX 33 67 5 -13
BITMAP
FE00000000
FE00000000
FE00000000
FE00000000
FE00000000
FE00000000
FE00000000
FE00000000
FE00000000
FE00000000
FE00000000
FE00000000
FE00000000
FE00000000
FE00000000
FE00000000
FE00200000
FE03FF8000
FE0FFFE000
FE3FFFF000
FE7FFFF800
FEFFFFFC00
FFF807FC00
FFE001FE00
FFC000FE00
FF00007F00
FF00007F00
FE00007F80
FE00003F80
FE00003F80
FE00003F80
FE00003F80
FE00001F80
FE00001F80
FE00001F80
FE00001F80
FE00001F80
FE00001F80
FE00003F80
FE00003F80
FE00003F80
FE00003F80
FE00003F00
FE00007F00
FE00007F00
FE0000FE00
FF0001FE00
FF8003FC00
FFE00FFC00
FFFFFFF800
FEFFFFF000
FE7FFFE000
FE3FFF8000
FE0FFE0000
FE00800000
FE00000000
FE00000000
FE00000000
FE00000000
FE00000000
FE00000000
FE00000000
FE00000000
FE00000000
FE00000000
FE00000000
FE00000000
ENDCHAR
STARTCHAR ydieresis
ENCODING 255
SWIDTH 512 0
DWIDTH 38 0
BBX 36 65 1 -13
BITMAP
003C01E000
00FE03F000
00FF07F800
00FF07F800
00FF07F800
00FF07F800
00FE03F000
003C01E000
0000000000
0000000000
0000000000
0000000000
0000000000
0000000000
0000000000
FE000003F0
FE000007F0
7F000007E0
7F00000FE0
7F80000FC0
3F80001FC0
3F80001FC0
1FC0001F80
1FC0003F80
0FE0003F00
0FE0007F00
07F0007E00
07F0007E00
07F000FC00
03F800FC00
03F801FC00
01FC01F800
01FC03F800
00FC03F000
00FE03F000
00FE07E000
007F07E000
007F0FE000
003F8FC000
003F8FC000
001F9F8000
001FDF8000
000FDF0000
000FFF0000
000FFF0000
0007FE0000
0007FE0000
0003FC0000
0003FC0000
0001F80000
0001F80000
0003F80000
0003F00000
0003F00000
0007E00000
0007E00000
000FC00000
000FC00000
001FC00000
001F800000
003F800000
003F000000
007F000000
007E000000
00FE000000
ENDCHAR
STARTCHAR Aogonek
ENCODING 260
SWIDTH 680 0
DWIDTH 50 0
BBX 53 66 0 -13
BITMAP
000007F8000000
000007F8000000
000007FC000000
00000FFC000000
00000FFE000000
00001FFE000000
00001FFE000000
00001FFF000000
00003FBF000000
00003F3F800000
00007F3F800000
00007F1F800000
00007E1FC00000
0000FE1FC00000
0000FE0FE00000
0001FC0FE00000
0001FC07E00000
0001F807F00000
0003F807F00000
0003F803F80000
0007F003F80000
0007F001F80000
0007E001FC0000
000FE001FC0000
000FE000FE0000
001FC000FE0000
001FC0007E0000
001F80007F0000
003F80007F0000
003F80003F8000
007F00003F8000
007F00001F8000
007F00001FC000
00FFFFFFFFC000
00FFFFFFFFE000
01FFFFFFFFE000
01FFFFFFFFE000
01FFFFFFFFF000
03F8000007F000
03F8000003F800
07F0000003F800
07F0000003F800
07F0000001FC00
0FE0000001FC00
0FE0000000FE00
1FE0000000FE00
1FC0000000FE00
1FC00000007F00
3F800000007F00
3F800000007F80
7F800000003F80
7F000000003F80
7E000000001FC0
80000000000F00
00000000003E00
00000000007C00
00000000007800
0000000000F800
0000000000F000
0000000001F000
0000000001F800
0000000001FC30
0000000000FFF0
0000000000FFF8
00000000007FF0
00000000001FC0
ENDCHAR
STARTCHAR aogonek
ENCODING 261
SWIDTH 507 0
DWIDTH 38 0
BBX 34 51 3 -13
BITMAP
0000800000
003FFC0000
00FFFF0000
03FFFFC000
0FFFFFE000
1FFFFFE000
3FE00FF000
1F8007F800
0F0003F800
000001F800
000001FC00
000001FC00
000001FC00
000001FC00
000001FC00
000001FC00
000001FC00
0000FFFC00
001FFFFC00
00FFFFFC00
03FFFFFC00
0FFF01FC00
1FF001FC00
3FC001FC00
7F0001FC00
7E0001FC00
7E0001FC00
FE0001FC00
FE0001FC00
FE0003FC00
7E0007FC00
7F000FFC00
7F803FFC00
7FFFFEFC00
3FFFFCFC00
1FFFF07C00
0FFFE07C00
03FF807C00
0020007800
000000F000
000001E000
000003C000
000007C000
000007C000
000007C000
000007C000
000007E180
000007FF80
000007FFC0
000003FF80
000000FE00
ENDCHAR
STARTCHAR Cacute
ENCODING 262
SWIDTH 685 0
DWIDTH 51 0
BBX 45 66 3 0
BITMAP
00000000FE00
00000007FC00
0000000FF800
0000001FE000
0000003FC000
0000007F0000
000000FE0000
000001FC0000
000003F00000
000004000000
000000000000
000000000000
000000200000
00001FFFE000
0000FFFFFC00
0003FFFFFF00
000FFFFFFF80
001FFFFFFFE0
007FFFFFFFF0
00FFF0003FF8
01FFC0000FF0
03FF000003E0
03FE000001C0
07FC00000000
0FF800000000
0FF000000000
1FE000000000
1FE000000000
3FC000000000
3FC000000000
3F8000000000
7F8000000000
7F8000000000
7F0000000000
7F0000000000
7F0000000000
FF0000000000
FF0000000000
FF0000000000
FF0000000000
FF0000000000
FF0000000000
FF0000000000
7F0000000000
7F0000000000
7F0000000000
7F0000000000
7F8000000000
7F8000000000
3F8000000000
3FC000000000
1FC000000000
1FE000000000
1FF000000000
0FF800000000
07F8000000C0
07FE000001E0
03FF000007F0
01FF80000FF8
00FFF0007FF0
007FFFFFFFE0
003FFFFFFFC0
001FFFFFFF00
0007FFFFFE00
0001FFFFF800
00003FFFC000
ENDCHAR
STARTCHAR cacute
ENCODING 263
SWIDTH 467 0
DWIDTH 35 0
BBX 30 54 3 0
BITMAP
000003F0
00001FE0
00003FC0
00003F80
00007F00
00007F00
0000FE00
0001FC00
0001F800
0003F000
0003E000
00040000
00000000
00000000
00000000
00000000
00008000
001FFF00
007FFFC0
01FFFFE0
03FFFFF8
07FFFFFC
0FF803F8
1FE000F0
3FC00020
3F800000
7F800000
7F000000
7F000000
FE000000
FE000000
FE000000
FE000000
FE000000
FE000000
FE000000
FE000000
FE000000
FE000000
FE000000
FE000000
FE000000
7F000000
7F000000
7F800000
3F800000
3FC00070
1FE000F8
0FF803FC
0FFFFFF8
07FFFFF0
01FFFFE0
00FFFF80
003FFE00
ENDCHAR
STARTCHAR Eogonek
ENCODING 280
SWIDTH 594 0
DWIDTH 44 0
BBX 34 66 6 -13
BITMAP
FFFFFFFF80
FFFFFFFF80
FFFFFFFF80
FFFFFFFF80
FFFFFFFF80
FFFFFFFF80
FF00000000
FF00000000
FF00000000
FF00000000
FF00000000
FF00000000
FF00000000
FF00000000
FF00000000
FF00000000
FF00000000
FF00000000
FF00000000
FF00000000
FF00000000
FF00000000
FF00000000
FF00000000
FFFFFFF000
FFFFFFF000
FFFFFFF000
FFFFFFF000
FFFFFFF000
FF00000000
FF00000000
FF00000000
FF00000000
FF00000000
FF00000000
FF00000000
FF00000000
FF00000000
FF00000000
FF00000000
FF00000000
FF00000000
FF00000000
FF00000000
FF00000000
FF00000000
FF00000000
FFFFFFFF80
FFFFFFFF80
FFFFFFFF80
FFFFFFFF80
FFFFFFFF80
FFFFFFFF80
0000007800
000000F000
000001E000
000003C000
000007C000
0000078000
00000F8000
00000FC000
00000FE180
000007FF80
000007FFC0
000003FF80
000000FE00
ENDCHAR
STARTCHAR eogonek
ENCODING 281
SWIDTH 524 0
DWIDTH 39 0
BBX 33 51 3 -13
BITMAP
0000800000
001FFE0000
007FFF8000
01FFFFE000
03FFFFF000
07FFFFF800
0FF803FC00
1FE001FE00
3FC0007E00
3F80007F00
7F00003F00
7E00003F00
7E00001F00
FE00001F80
FE00001F80
FFFFFFFF80
FFFFFFFF80
FFFFFFFF80
FFFFFFFF00
FC00000000
FC00000000
FC00000000
FE00000000
FE00000000
FE00000000
7E00000000
7F00000000
7F00000000
3F80000000
3F80000000
1FC0001E00
1FF0003E00
0FF801FF00
07FFFFFF00
03FFFFFE00
01FFFFF800
007FFFE000
001FFF8000
00007C0000
0000F00000
0001E00000
0003E00000
0003C00000
0007C00000
0007C00000
0007C00000
0007E08000
0007FFC000
0003FFC000
0001FFC000
00007E0000
ENDCHAR
STARTCHAR dotlessi
ENCODING 305
SWIDTH 256 0
DWIDTH 19 0
BBX 7 37 6 0
BITMAP
FE
FE
FE
FE
FE
FE
FE
FE
FE
FE
FE
FE
FE
FE
FE
FE
FE
FE
FE
FE
FE
FE
FE
FE
FE
FE
FE
FE
FE
FE
FE
FE
FE
FE
FE
FE
FE
ENDCHAR
STARTCHAR Lslash
ENCODING 321
SWIDTH 543 0
DWIDTH 40 0
BBX 37 53 2 0
BITMAP
01FC000000
01FC000000
01FC000000
01FC000000
01FC000000
01FC000000
01FC000000
01FC000000
01FC000000
01FC000000
01FC000000
01FC000000
01FC000000
01FC000000
01FC000000
01FC000000
01FC001000
01FC007000
01FC01F000
01FC07F000
01FC1FF000
01FC7FF000
01FDFFE000
01FFFF8000
01FFFE0000
01FFF80000
01FFE00000
07FF800000
1FFE000000
7FFC000000
FFFC000000
FFFC000000
FFFC000000
F9FC000000
E1FC000000
81FC000000
01FC000000
01FC000000
01FC000000
01FC000000
01FC000000
01FC000000
01FC000000
01FC000000
01FC000000
01FC000000
01FC000000
01FFFFFFF8
01FFFFFFF8
01FFFFFFF8
01FFFFFFF8
01FFFFFFF8
01FFFFFFF8
ENDCHAR
STARTCHAR lslash
ENCODING 322
SWIDTH 321 0
DWIDTH 24 0
BBX 20 54 2 0
BITMAP
01F800
01F800
01F800
01F800
01F800
01F800
01F800
01F800
01F800
01F800
01F800
01F800
01F800
01F800
01F800
01F800
01F800
01F800
01F800
01F870
01F9F0
01FFF0
01FFF0
01FFE0
07FF80
3FFE00
FFF800
FFF800
FFF800
F9F800
C1F800
01F800
01F800
01F800
01F800
01F800
01F800
01F800
01F800
01F800
01F800
01F800
01F800
01F800
01F800
01F800
01F800
01F800
01F800
01F800
01F800
01F800
01F800
01F800
ENDCHAR
STARTCHAR Nacute
ENCODING 323
SWIDTH 756 0
DWIDTH 56 0
BBX 43 66 6 0
BITMAP
0000000FE000
0000007FC000
000000FF8000
000001FE0000
000003FC0000
000007F00000
00000FE00000
00001FC00000
00003F000000
000040000000
000000000000
000000000000
000000000000
FC00000007E0
FE00000007E0
FF00000007E0
FF00000007E0
FF80000007E0
FFC0000007E0
FFE0000007E0
FFE0000007E0
FFF0000007E0
FFF8000007E0
FFFC000007E0
FFFE000007E0
FFFE000007E0
FEFF000007E0
FE7F800007E0
FE7FC00007E0
FE3FC00007E0
FE1FE00007E0
FE0FF00007E0
FE07F80007E0
FE07F80007E0
FE03FC0007E0
FE01FE0007E0
FE00FF0007E0
FE00FF8007E0
FE007F8007E0
FE003FC007E0
FE001FE007E0
FE001FF007E0
FE000FF007E0
FE0007F807E0
FE0003FC07E0
FE0003FE07E0
FE0001FE07E0
FE0000FF07E0
FE00007F87E0
FE00003FC7E0
FE00003FE7E0
FE00001FE7E0
FE00000FF7E0
FE000007FFE0
FE000007FFE0
FE000003FFE0
FE000001FFE0
FE000000FFE0
FE000000FFE0
FE0000007FE0
FE0000003FE0
FE0000001FE0
FE0000000FE0
FE0000000FE0
FE00000007E0
FE00000003E0
ENDCHAR
STARTCHAR nacute
ENCODING 324
SWIDTH 556 0
DWIDTH 41 0
BBX 32 54 5 0
BITMAP
000007E0
00003FC0
00007F80
00007F00
0000FE00
0000FE00
0001FC00
0003F800
0003F000
0007E000
0007C000
00080000
00000000
00000000
00000000
00000000
00002000
FC03FF00
FC0FFFC0
FC3FFFF0
FC7FFFF8
FCFFFFF8
FFF807FC
FFE001FC
FFC001FE
FF0000FE
FE0000FE
FE00007E
FE00007E
FE00007F
FE00007F
FE00007F
FE00007F
FE00007F
FE00007F
FE00007F
FE00007F
FE00007F
FE00007F
FE00007F
FE00007F
FE00007F
FE00007F
FE00007F
FE00007F
FE00007F
FE00007F
FE00007F
FE00007F
FE00007F
FE00007F
FE00007F
FE00007F
FE00007F
ENDCHAR
STARTCHAR OE
ENCODING 338
SWIDTH 1096 0
DWIDTH 81 0
BBX 74 54 3 0
BITMAP
00000100000000000000
00007FFE003FFFFFFFC0
0003FFFF803FFFFFFFC0
000FFFFFE03FFFFFFFC0
001FFFFFF83FFFFFFFC0
003FFFFFFC3FFFFFFFC0
00FFFFFFFE3FFFFFFFC0
01FFE003FF3F80000000
01FF80007FBF80000000
03FE00003FFF80000000
07FC00001FFF80000000
0FF800000FFF80000000
0FF0000007FF80000000
1FE0000003FF80000000
1FE0000001FF80000000
1FC0000001FF80000000
3FC0000000FF80000000
3F80000000FF80000000
3F80000000FF80000000
7F800000007F80000000
7F000000007F80000000
7F000000007F80000000
7F000000007F80000000
7F000000007F80000000
FF000000007F80000000
FF000000007FFFFFF800
FF000000003FFFFFF800
FF000000003FFFFFF800
FF000000003FFFFFF800
FF000000007FFFFFF800
7F000000007F80000000
7F000000007F80000000
7F000000007F80000000
7F000000007F80000000
7F000000007F80000000
7F800000007F80000000
7F80000000FF80000000
3F80000000FF80000000
3FC0000000FF80000000
3FC0000001FF80000000
1FE0000001FF80000000
1FE0000003FF80000000
0FF0000007FF80000000
0FF800000FFF80000000
07FC00001FFF80000000
03FE00003FFF80000000
03FF80007FBF80000000
01FFE001FF3F80000000
00FFFFFFFE3FFFFFFFC0
007FFFFFFC3FFFFFFFC0
001FFFFFF83FFFFFFFC0
000FFFFFF03FFFFFFFC0
0003FFFFC03FFFFFFFC0
00007FFE003FFFFFFFC0
ENDCHAR
STARTCHAR oe
ENCODING 339
SWIDTH 867 0
DWIDTH 64 0
BBX 58 38 3 0
BITMAP
0001000000100000
003FFC0003FF8000
00FFFF000FFFE000
01FFFFC01FFFF800
07FFFFE07FFFFC00
0FFFFFF0FFFFFC00
0FF007F8FE01FE00
1FE001F9FC007F00
3FC000FFF8003F00
3F80007FF0001F80
7F00007FE0001F80
7F00003FE0000F80
7E00003FC0000FC0
FE00003FC0000FC0
FE00003FC0000FC0
FE00001FC0000FC0
FE00001FFFFFFFC0
FE00001FFFFFFFC0
FC00001FFFFFFFC0
FC00001FFFFFFFC0
FC00001F80000000
FE00001FC0000000
FE00001FC0000000
FE00001FC0000000
FE00003FC0000000
FE00003FC0000000
7E00003FE0000000
7F00003FE0000000
7F00007FF0000000
3F80007FF0000000
3FC000FDF8000700
1FE001F9FC001F80
1FF007F8FF007FC0
0FFFFFF07FFFFF80
07FFFFE07FFFFF00
03FFFFC01FFFFE00
00FFFF000FFFF800
003FFC0003FFC000
ENDCHAR
STARTCHAR Sacute
ENCODING 346
SWIDTH 548 0
DWIDTH 41 0
BBX 35 66 2 0
BITMAP
0000007F00
000003FE00
000007FC00
00000FF000
00001FE000
00003F8000
00007F0000
0000FE0000
0001F80000
0002000000
0000000000
0000000000
0000200000
000FFFC000
003FFFF000
00FFFFFC00
01FFFFFF00
03FFFFFF80
07FFFFFF80
07FC00FF80
0FF0003F00
0FE0000F00
1FC0000000
1FC0000000
1F80000000
3F80000000
3F80000000
3F80000000
3F80000000
1FC0000000
1FC0000000
1FE0000000
1FF0000000
0FFC000000
0FFF800000
07FFF00000
03FFFE0000
01FFFF8000
007FFFE000
001FFFF800
0007FFFC00
0000FFFE00
00001FFF00
000003FF80
000000FF80
0000007FC0
0000003FC0
0000001FC0
0000001FC0
0000000FC0
0000000FE0
0000000FC0
0000000FC0
0000001FC0
0000001FC0
1800001FC0
3C00003F80
7F00007F80
7F8000FF00
FFE003FF00
7FFFFFFE00
3FFFFFFC00
0FFFFFF800
07FFFFF000
01FFFFC000
003FFE0000
ENDCHAR
STARTCHAR sacute
ENCODING 347
SWIDTH 434 0
DWIDTH 32 0
BBX 27 54 2 0
BITMAP
00000FC0
00007F80
0000FF00
0000FE00
0001FC00
0001FC00
0003F800
0007F000
0007E000
000FC000
000F8000
00100000
00000000
00000000
00000000
00000000
00020000
007FF800
03FFFE00
07FFFF00
0FFFFFC0
1FFFFFC0
3FE01F80
3F800380
3F000000
7F000000
7F000000
7F000000
7F000000
3F800000
3FC00000
3FF00000
1FFE0000
0FFFC000
07FFF800
01FFFE00
003FFF00
0007FF80
0000FFC0
00003FC0
00000FE0
00000FE0
000007E0
000007E0
000007E0
00000FE0
38000FC0
3C001FC0
7F007FC0
FFFFFF80
7FFFFF00
1FFFFE00
0FFFF800
01FFE000
ENDCHAR
STARTCHAR Scaron
ENCODING 352
SWIDTH 530 0
DWIDTH 39 0
BBX 35 65 2 0
BITMAP
01FC007E00
007E01FC00
003F83F800
001FC7F000
000FFFC000
0007FF8000
0003FF0000
0000FE0000
0000000000
0000000000
0000000000
0000200000
000FFFC000
003FFFF000
00FFFFFC00
01FFFFFF00
03FFFFFF80
07FFFFFF80
07FC00FF80
0FF0003F00
0FE0000F00
1FC0000000
1FC0000000
1F80000000
3F80000000
3F80000000
3F80000000
3F80000000
1FC0000000
1FC0000000
1FE0000000
1FF0000000
0FFC000000
0FFF800000
07FFF00000
03FFFE0000
01FFFF8000
007FFFE000
001FFFF800
0007FFFC00
0000FFFE00
00001FFF00
000003FF80
000000FF80
0000007FC0
0000003FC0
0000001FC0
0000001FC0
0000000FC0
0000000FE0
0000000FC0
0000000FC0
0000001FC0
0000001FC0
1800001FC0
3C00003F80
7F00007F80
7F8000FF00
FFE003FF00
7FFFFFFE00
3FFFFFFC00
0FFFFFF800
07FFFFF000
01FFFFC000
003FFE0000
ENDCHAR
STARTCHAR scaron
ENCODING 353
SWIDTH 434 0
DWIDTH 32 0
BBX 27 53 2 0
BITMAP
0FC007E0
07E00F80
03F01F00
01F83F00
00FC7E00
007EFC00
003FF800
001FF000
001FE000
000FC000
00000000
00000000
00000000
00000000
00000000
00020000
007FF800
03FFFE00
07FFFF00
0FFFFFC0
1FFFFFC0
3FE01F80
3F800380
3F000000
7F000000
7F000000
7F000000
7F000000
3F800000
3FC00000
3FF00000
1FFE0000
0FFFC000
07FFF800
01FFFE00
003FFF00
0007FF80
0000FFC0
00003FC0
00000FE0
00000FE0
000007E0
000007E0
000007E0
00000FE0
38000FC0
3C001FC0
7F007FC0
FFFFFF80
7FFFFF00
1FFFFE00
0FFFF800
01FFE000
ENDCHAR
STARTCHAR Ydieresis
ENCODING 376
SWIDTH 629 0
DWIDTH 47 0
BBX 46 66 0 0
BITMAP
000380078000
000FE00FC000
000FE01FE000
001FE01FE000
001FF01FE000
000FE01FE000
000FE00FC000
000380078000
000000000000
000000000000
000000000000
000000000000
000000000000
FF00000001FC
7F80000003F8
3FC0000007F8
3FC000000FF0
1FE000000FF0
0FE000001FE0
0FF000001FC0
07F000003FC0
07F800003F80
03FC00007F80
01FC0000FF00
01FE0000FE00
00FE0001FE00
007F0001FC00
007F8003F800
003F8007F800
003FC007F000
001FC00FF000
000FE00FE000
000FF01FC000
0007F03FC000
0007F83F8000
0003F87F8000
0001FC7F0000
0001FCFE0000
0000FEFE0000
0000FEFC0000
00007FFC0000
00003FF80000
00003FF00000
00001FF00000
00001FE00000
00000FE00000
00000FE00000
00000FE00000
00000FE00000
00000FE00000
00000FE00000
00000FE00000
00000FE00000
00000FE00000
00000FE00000
00000FE00000
00000FE00000
00000FE00000
00000FE00000
00000FE00000
00000FE00000
00000FE00000
00000FE00000
00000FE00000
00000FE00000
00000FE00000
ENDCHAR
STARTCHAR Zacute
ENCODING 377
SWIDTH 624 0
DWIDTH 46 0
BBX 40 66 3 0
BITMAP
0000003F80
000001FF00
000003FE00
000007F800
00000FF000
00001FC000
00003F8000
00007F0000
0000FC0000
0001000000
0000000000
0000000000
0000000000
3FFFFFFFFF
3FFFFFFFFF
3FFFFFFFFF
3FFFFFFFFF
3FFFFFFFFF
3FFFFFFFFE
00000001FE
00000003FC
00000007F8
0000000FF0
0000000FF0
0000001FE0
0000003FC0
0000003FC0
0000007F80
000000FF00
000001FE00
000001FE00
000003FC00
000007F800
000007F800
00000FF000
00001FE000
00003FC000
00003FC000
00007F8000
0000FF0000
0000FF0000
0001FE0000
0003FC0000
0007F80000
0007F80000
000FF00000
001FE00000
001FE00000
003FC00000
007F800000
00FF000000
00FF000000
01FE000000
03FC000000
03FC000000
07F8000000
0FF0000000
1FE0000000
1FE0000000
3FC0000000
7FFFFFFFFF
7FFFFFFFFF
FFFFFFFFFF
FFFFFFFFFF
FFFFFFFFFF
FFFFFFFFFF
ENDCHAR
STARTCHAR zacute
ENCODING 378
SWIDTH 462 0
DWIDTH 34 0
BBX 29 54 3 0
BITMAP
00000FC0
00007F80
0000FF00
0000FE00
0001FC00
0001FC00
0003F800
0007F000
0007E000
000FC000
000F8000
00100000
00000000
00000000
00000000
00000000
00000000
7FFFFFF8
7FFFFFF8
7FFFFFF8
7FFFFFF0
7FFFFFF0
000007E0
00000FE0
00001FC0
00003F80
00003F00
00007F00
0000FE00
0001FC00
0001F800
0003F800
0007F000
000FE000
000FC000
001FC000
003F8000
007F0000
00FE0000
00FE0000
01FC0000
03F80000
07F00000
07E00000
0FE00000
1FC00000
3F800000
3F000000
7F000000
FFFFFFF0
FFFFFFF0
FFFFFFF0
FFFFFFF0
FFFFFFF0
ENDCHAR
STARTCHAR Zdotaccent
ENCODING 379
SWIDTH 624 0
DWIDTH 46 0
BBX 40 67 3 0
BITMAP
00001E0000
00003F8000
00007F8000
00007FC000
00007FC000
00007FC000
00007F8000
00003F8000
00001E0000
0000000000
0000000000
0000000000
0000000000
0000000000
3FFFFFFFFF
3FFFFFFFFF
3FFFFFFFFF
3FFFFFFFFF
3FFFFFFFFF
3FFFFFFFFE
00000001FE
00000003FC
00000007F8
0000000FF0
0000000FF0
0000001FE0
0000003FC0
0000003FC0
0000007F80
000000FF00
000001FE00
000001FE00
000003FC00
000007F800
000007F800
00000FF000
00001FE000
00003FC000
00003FC000
00007F8000
0000FF0000
0000FF0000
0001FE0000
0003FC0000
0007F80000
0007F80000
000FF00000
001FE00000
001FE00000
003FC00000
007F800000
00FF000000
00FF000000
01FE000000
03FC000000
03FC000000
07F8000000
0FF0000000
1FE0000000
1FE0000000
3FC0000000
7FFFFFFFFF
7FFFFFFFFF
FFFFFFFFFF
FFFFFFFFFF
FFFFFFFFFF
FFFFFFFFFF
ENDCHAR
STARTCHAR zdotaccent
ENCODING 380
SWIDTH 462 0
DWIDTH 34 0
BBX 29 54 3 0
BITMAP
00078000
000FE000
001FE000
001FF000
001FF000
001FF000
001FF000
000FE000
00078000
00000000
00000000
00000000
00000000
00000000
00000000
00000000
00000000
7FFFFFF8
7FFFFFF8
7FFFFFF8
7FFFFFF0
7FFFFFF0
000007E0
00000FE0
00001FC0
00003F80
00003F00
00007F00
0000FE00
0001FC00
0001F800
0003F800
0007F000
000FE000
000FC000
001FC000
003F8000
007F0000
00FE0000
00FE0000
01FC0000
03F80000
07F00000
07E00000
0FE00000
1FC00000
3F800000
3F000000
7F000000
FFFFFFF0
FFFFFFF0
FFFFFFF0
FFFFFFF0
FFFFFFF0
ENDCHAR
STARTCHAR Zcaron
ENCODING 381
SWIDTH 624 0
DWIDTH 46 0
BBX 40 65 3 0
BITMAP
007F001F80
001F807F00
000FE0FE00
0007F1FC00
0003FFF000
0001FFE000
0000FFC000
00003F8000
0000000000
0000000000
0000000000
0000000000
3FFFFFFFFF
3FFFFFFFFF
3FFFFFFFFF
3FFFFFFFFF
3FFFFFFFFF
3FFFFFFFFE
00000001FE
00000003FC
00000007F8
0000000FF0
0000000FF0
0000001FE0
0000003FC0
0000003FC0
0000007F80
000000FF00
000001FE00
000001FE00
000003FC00
000007F800
000007F800
00000FF000
00001FE000
00003FC000
00003FC000
00007F8000
0000FF0000
0000FF0000
0001FE0000
0003FC0000
0007F80000
0007F80000
000FF00000
001FE00000
001FE00000
003FC00000
007F800000
00FF000000
00FF000000
01FE000000
03FC000000
03FC000000
07F8000000
0FF0000000
1FE0000000
1FE0000000
3FC0000000
7FFFFFFFFF
7FFFFFFFFF
FFFFFFFFFF
FFFFFFFFFF
FFFFFFFFFF
FFFFFFFFFF
ENDCHAR
STARTCHAR zcaron
ENCODING 382
SWIDTH 462 0
DWIDTH 34 0
BBX 29 53 3 0
BITMAP
0FC007E0
07E00F80
03F01F00
01F83F00
00FC7E00
007EFC00
003FF800
001FF000
001FE000
000FC000
00000000
00000000
00000000
00000000
00000000
00000000
7FFFFFF8
7FFFFFF8
7FFFFFF8
7FFFFFF0
7FFFFFF0
000007E0
00000FE0
00001FC0
00003F80
00003F00
00007F00
0000FE00
0001FC00
0001F800
0003F800
0007F000
000FE000
000FC000
001FC000
003F8000
007F0000
00FE0000
00FE0000
01FC0000
03F80000
07F00000
07E00000
0FE00000
1FC00000
3F800000
3F000000
7F000000
FFFFFFF0
FFFFFFF0
FFFFFFF0
FFFFFFF0
FFFFFFF0
ENDCHAR
STARTCHAR florin
ENCODING 402
SWIDTH 580 0
DWIDTH 43 0
BBX 33 67 4 -13
BITMAP
0000000080
0000003F80
000001FF80
000003FF80
00000FFF80
00001FFF00
00001FE000
00003FC000
00007F8000
00007F0000
00007E0000
0000FE0000
0000FE0000
0000FC0000
0000FC0000
0000FC0000
0001FC0000
0001FC0000
0001FC0000
0001FC0000
0001F80000
01FFFFFF80
01FFFFFF80
01FFFFFF80
01FFFFFF80
01FFFFFF80
000FF80000
0003F80000
0003F80000
0003F80000
0003F00000
0003F00000
0003F00000
0003F00000
0007F00000
0007F00000
0007F00000
0007F00000
0007E00000
0007E00000
0007E00000
000FE00000
000FE00000
000FE00000
000FE00000
000FE00000
000FC00000
000FC00000
000FC00000
001FC00000
001FC00000
001FC00000
001FC00000
001FC00000
001F800000
001F800000
003F800000
003F800000
007F000000
00FF000000
01FE000000
07FC000000
FFFC000000
FFF0000000
FFE0000000
FF80000000
F800000000
ENDCHAR
STARTCHAR circumflex
ENCODING 710
SWIDTH 307 0
DWIDTH 23 0
BBX 21 9 1 44
BITMAP
01FC00
03FE00
07FF00
0FFF00
1FDF80
3F8FC0
3F07E0
7E03F0
FC01F8
ENDCHAR
STARTCHAR caron
ENCODING 711
SWIDTH 307 0
DWIDTH 23 0
BBX 23 9 0 44
BITMAP
FC007E
7E00F8
3F01F0
1F83F0
0FC7E0
07EFC0
03FF80
01FF00
01FE00
ENDCHAR
STARTCHAR uni02C9
ENCODING 713
SWIDTH 307 0
DWIDTH 23 0
BBX 21 4 1 45
BITMAP
FFFFF8
FFFFF8
FFFFF8
FFFFF8
ENDCHAR
STARTCHAR breve
ENCODING 728
SWIDTH 307 0
DWIDTH 23 0
BBX 20 10 1 43
BITMAP
F800F0
F800F0
F801F0
7801F0
7C03F0
7F07E0
3FFFE0
1FFFC0
0FFF80
03FC00
ENDCHAR
STARTCHAR dotaccent
ENCODING 729
SWIDTH 307 0
DWIDTH 23 0
BBX 9 9 7 45
BITMAP
3C00
7F00
FF00
FF80
FF80
FF80
FF80
7F00
3C00
ENDCHAR
STARTCHAR ring
ENCODING 730
SWIDTH 307 0
DWIDTH 23 0
BBX 15 14 4 42
BITMAP
07C0
1FF0
3FF8
787C
F03C
F01E
F01E
F01E
F01E
F03C
787C
3FF8
1FF0
0FC0
ENDCHAR
STARTCHAR ogonek
ENCODING 731
SWIDTH 307 0
DWIDTH 23 0
BBX 13 13 5 -13
BITMAP
0780
1E00
3C00
7C00
7800
F800
F800
F800
FC10
FFF8
7FF8
3FF8
0FC0
ENDCHAR
STARTCHAR tilde
ENCODING 732
SWIDTH 307 0
DWIDTH 23 0
BBX 21 8 1 44
BITMAP
0F8078
3FE078
7FF8F8
7FFFF8
F8FFF0
F07FF0
F01FE0
F00780
ENDCHAR
STARTCHAR hungarumlaut
ENCODING 733
SWIDTH 307 0
DWIDTH 23 0
BBX 23 11 4 43
BITMAP
01F01E
07E0FE
0FC1FC
0FC1F8
1F83F0
1F07E0
3E07C0
3E0F80
7C1F00
783E00
F03C00
ENDCHAR
STARTCHAR pi
ENCODING 960
SWIDTH 618 0
DWIDTH 46 0
BBX 42 37 2 0
BITMAP
7FFFFFFFFFC0
7FFFFFFFFFC0
FFFFFFFFFFC0
FFFFFFFFFFC0
FFFFFFFFFFC0
01FC0007E000
01FC0007E000
01FC0007E000
01FC0007E000
01FC0007E000
01FC0007E000
01FC0007E000
01FC0007E000
01FC0007E000
01FC0007E000
01FC0007E000
01FC0007E000
01FC0007E000
01FC0007E000
01FC0007E000
01FC0007E000
01FC0007E000
01FC0007E000
01FC0007E000
01FC0007E000
01FC0007E000
01FC0007E000
01FC0007E000
01FC0007E000
01FC0007E000
01FC0007E000
03F80007E000
7FF80007E000
FFF80007E000
FFF00007E000
FFE00007E000
FFC00007E000
ENDCHAR
STARTCHAR endash
ENCODING 8211
SWIDTH 556 0
DWIDTH 41 0
BBX 29 5 6 19
BITMAP
FFFFFFF8
FFFFFFF8
FFFFFFF8
FFFFFFF8
FFFFFFF8
ENDCHAR
STARTCHAR emdash
ENCODING 8212
SWIDTH 821 0
DWIDTH 61 0
BBX 49 5 6 19
BITMAP
FFFFFFFFFFFF80
FFFFFFFFFFFF80
FFFFFFFFFFFF80
FFFFFFFFFFFF80
FFFFFFFFFFFF80
ENDCHAR
STARTCHAR quoteleft
ENCODING 8216
SWIDTH 212 0
DWIDTH 16 0
BBX 9 19 2 37
BITMAP
0700
0F80
0F80
1F00
3E00
3E00
7C00
7C00
FC00
F800
F800
FC00
FC00
FC00
FE00
7E00
7E00
3800
2000
ENDCHAR
STARTCHAR quoteright
ENCODING 8217
SWIDTH 212 0
DWIDTH 16 0
BBX 9 19 3 37
BITMAP
0200
0F00
3F00
3F00
3F80
1F80
1F80
0F80
0F80
0F80
0F80
1F00
1F00
1F00
3E00
7C00
7C00
F800
7000
ENDCHAR
STARTCHAR quotesinglbase
ENCODING 8218
SWIDTH 212 0
DWIDTH 16 0
BBX 9 19 3 -10
BITMAP
0200
0F00
3F00
3F80
1F80
1F80
1F80
0F80
0F80
0F80
0F80
1F00
1F00
1E00
3E00
7C00
F800
F800
3000
ENDCHAR
STARTCHAR quotedblleft
ENCODING 8220
SWIDTH 364 0
DWIDTH 27 0
BBX 20 19 2 37
BITMAP
070060
0F80F0
0F81F0
1F03E0
3E07C0
3E07C0
7C0F80
7C0F80
FC0F80
F80F80
F81F80
FC1F80
FC1F80
FC0F80
FE0FC0
7E0FC0
7E0FE0
380700
200400
ENDCHAR
STARTCHAR quotedblright
ENCODING 8221
SWIDTH 364 0
DWIDTH 27 0
BBX 20 19 3 37
BITMAP
020040
0F01E0
3F07E0
3F07F0
3F83F0
1F83F0
1F81F0
0F81F0
0F81F0
0F81F0
0F81F0
1F01F0
1F03E0
1F03E0
3E07C0
7C07C0
7C0F80
F80F00
700600
ENDCHAR
STARTCHAR quotedblbase
ENCODING 8222
SWIDTH 364 0
DWIDTH 27 0
BBX 20 19 3 -10
BITMAP
020040
0F01E0
3F07E0
3F87F0
1F83F0
1F83F0
1F81F0
0F81F0
0F81F0
0F81F0
0F81F0
1F01F0
1F03E0
1E03E0
3E07C0
7C0780
F80F80
F80F00
300600
ENDCHAR
STARTCHAR dagger
ENCODING 8224
SWIDTH 580 0
DWIDTH 43 0
BBX 35 68 4 -14
BITMAP
0001F00000
0003F80000
0003F80000
0003F80000
0003F80000
0003F80000
0003F80000
0003F80000
0003F80000
0003F80000
0003F00000
0001F00000
0001F00000
0001F00000
0001F00000
0001F00000
0001F00000
0001F00000
3F81F03F80
7FFFFFFFC0
FFFFFFFFE0
FFFFFFFFE0
FFFFFFFFE0
0001F00000
0001F00000
0001F00000
0001F00000
0001F00000
0001F00000
0001F00000
0001F00000
0001F00000
0001F00000
0001F00000
0001F00000
0001F00000
0001F00000
0001F00000
0001F00000
0001F00000
0001F00000
0001F00000
0001F00000
0001F00000
0001F00000
0001F00000
0001F00000
0001F00000
0001F00000
0001F00000
0001F00000
0003F00000
0003F00000
0003F00000
0003F80000
0003F80000
0003F80000
0003F80000
0003F80000
0003F80000
0003F80000
0003F80000
0003F80000
0003F80000
0003F80000
0003F80000
0003F80000
0001F00000
ENDCHAR
STARTCHAR daggerdbl
ENCODING 8225
SWIDTH 580 0
DWIDTH 43 0
BBX 35 68 4 -14
BITMAP
0001F00000
0003F80000
0003F80000
0003F80000
0003F80000
0003F80000
0003F80000
0003F80000
0003F80000
0003F80000
0003F00000
0001F00000
0001F00000
0001F00000
0001F00000
0001F00000
0001F00000
0001F00000
3F81F03F80
7FFFFFFFC0
FFFFFFFFE0
FFFFFFFFE0
FFFFFFFFE0
0001F00000
0001F00000
0001F00000
0001F00000
0001F00000
0001F00000
0001F00000
0001F00000
0001F00000
0001F00000
0001F00000
0001F00000
0001F00000
0001F00000
0001F00000
0001F00000
0001F00000
0001F00000
0001F00000
0001F00000
0001F00000
0001F00000
FFFFFFFFE0
FFFFFFFFE0
FFFFFFFFE0
7FFFFFFFC0
7FC1F07FC0
0001F00000
0001F00000
0001F00000
0001F00000
0001F00000
0001F00000
0001F00000
0003F00000
0003F80000
0003F80000
0003F80000
0003F80000
0003F80000
0003F80000
0003F80000
0003F80000
0003F80000
0001F00000
ENDCHAR
STARTCHAR bullet
ENCODING 8226
SWIDTH 580 0
DWIDTH 43 0
BBX 27 27 8 8
BITMAP
003F8000
01FFF000
03FFF800
0FFFFE00
1FFFFF00
3FFFFF00
3FFFFF80
7FFFFFC0
7FFFFFC0
FFFFFFE0
FFFFFFE0
FFFFFFE0
FFFFFFE0
FFFFFFE0
FFFFFFE0
FFFFFFE0
FFFFFFE0
FFFFFFE0
7FFFFFC0
7FFFFFC0
3FFFFF80
3FFFFF80
1FFFFF00
0FFFFE00
07FFF800
01FFF000
003F8000
ENDCHAR
STARTCHAR ellipsis
ENCODING 8230
SWIDTH 727 0
DWIDTH 54 0
BBX 48 9 3 0
BITMAP
080001000020
3F0007E000FC
7F800FF001FE
7F800FF001FE
FF801FF003FF
FF801FF003FF
FF800FF001FE
7F800FF001FE
3F0007E000FC
ENDCHAR
STARTCHAR perthousand
ENCODING 8240
SWIDTH 1153 0
DWIDTH 85 0
BBX 80 54 3 0
BITMAP
00200000000000000000
01FF0000003F80000000
07FFC000003F00000000
0FFFE000007E00000000
1FFFF00000FC00000000
3F01F80001FC00000000
7E00F80001F800000000
7C007C0003F000000000
FC007C0007E000000000
F8007E000FE000000000
F8003E000FC000000000
F8003E001F8000000000
F8003E003F0000000000
F8003E007F0000000000
F8003E007E0000000000
F8003E00FC0000000000
F8003E01F80000000000
F8003E03F80000000000
F8007C03F00000000000
7C007C07E00000000000
7C00FC0FC00000000000
3E00F81FC00000000000
3F83F81F800000000000
1FFFF03F000000000000
0FFFE07E000000000000
07FF80FE000000000000
00FE00FC000000000000
000001F8000000000000
000003F007F00000FE00
000007F01FFE0003FFC0
000007E07FFF0007FFE0
00000FC0FFFF801FFFF0
00001F80FC1FC01F83F8
00003F81F807E03F00FC
00003F03F003E07E007C
00007E03E003E07C007E
0000FC03E001F07C003E
0001FC07E001F0FC003E
0001F807C001F0FC003E
0003F007C001F0F8003F
0007E007C001F0F8003F
000FE007C001F0F8003F
000FC007C001F0F8003F
001F8007C001F0F8003F
003F0007C001F0FC003E
007F0007E001F07C003E
007E0003E001F07C003E
00FC0003E003E07E007C
01F80001F007E03E00FC
03F80001F80FC03F01F8
03F00000FFFF801FFFF8
07E000007FFF000FFFF0
0FC000003FFE0007FFC0
1FC000000FF80001FF80
ENDCHAR
STARTCHAR guilsinglleft
ENCODING 8249
SWIDTH 316 0
DWIDTH 23 0
BBX 13 29 5 5
BITMAP
0060
00F0
01F8
01F0
03E0
03E0
07C0
0FC0
0F80
1F00
3F00
3E00
7E00
FC00
F800
7C00
7E00
3E00
3F00
1F80
0F80
0FC0
07C0
03E0
03F0
01F0
00F0
00F8
0060
ENDCHAR
STARTCHAR guilsinglright
ENCODING 8250
SWIDTH 316 0
DWIDTH 23 0
BBX 12 29 6 5
BITMAP
6000
F000
F800
F800
7C00
7C00
3E00
3F00
1F00
0F80
0FC0
07C0
07E0
03F0
01F0
03F0
07E0
07C0
0FC0
0F80
1F00
3F00
3E00
7C00
FC00
F800
F000
F000
6000
ENDCHAR
STARTCHAR fraction
ENCODING 8260
SWIDTH 307 0
DWIDTH 23 0
BBX 37 53 -7 0
BITMAP
00000000F8
00000001F0
00000003E0
00000003E0
00000007C0
0000000F80
0000000F80
0000001F00
0000001F00
0000003E00
0000007C00
0000007C00
000000F800
000000F800
000001F000
000003E000
000003E000
000007C000
000007C000
00000F8000
00001F8000
00001F0000
00003E0000
00003E0000
00007C0000
0000FC0000
0000F80000
0001F00000
0001F00000
0003E00000
0007E00000
0007C00000
000F800000
000F800000
001F000000
003F000000
003E000000
007C000000
007C000000
00F8000000
01F8000000
01F0000000
03E0000000
03E0000000
07C0000000
07C0000000
0F80000000
1F00000000
1F00000000
3E00000000
3E00000000
7C00000000
F800000000
ENDCHAR
STARTCHAR Euro
ENCODING 8364
SWIDTH 580 0
DWIDTH 43 0
BBX 41 54 1 0
BITMAP
000000400000
00000FFF8000
00007FFFE000
0000FFFFF800
0003FFFFFC00
0007FFFFFE00
000FFC01FF00
001FF0007F80
003FC0003E00
003F80001C00
007F00000000
007F00000000
00FE00000000
00FE00000000
01FC00000000
01FC00000000
01FC00000000
03F800000000
03F800000000
03F800000000
03F800000000
FFFFFFFF8000
FFFFFFFF8000
FFFFFFFF8000
FFFFFFFF0000
07F000000000
07F000000000
07F000000000
07F000000000
07F000000000
FFFFFFF80000
FFFFFFF80000
FFFFFFF80000
FFFFFFF80000
03F000000000
03F800000000
03F800000000
03F800000000
03F800000000
01FC00000000
01FC00000000
01FE00000000
00FE00000000
00FF00000800
007F80000E00
007FC0003F00
003FE0007F80
001FF801FF00
001FFFFFFF00
000FFFFFFE00
0007FFFFF800
0001FFFFF000
0000FFFFC000
00001FFF0000
ENDCHAR
STARTCHAR trademark
ENCODING 8482
SWIDTH 720 0
DWIDTH 53 0
BBX 47 22 2 31
BITMAP
FFFFC3E0003E
FFFFC3F0007E
FFFFC3F000FE
FFFFC3F800FE
01F003F801FE
01F003FC01FE
01F003FE03FE
01F003DE03DE
01F003DF07DE
01F003CF079E
01F003CF8F9E
01F003C79F1E
01F003C7DE1E
01F003C3DE1E
01F003C3FC1E
01F003C1FC1E
01F003C0F81E
01F003C0F81E
01F003C0701E
01F003C0001E
01F003C0001E
01F003C0001E
ENDCHAR
STARTCHAR Omega
ENCODING 8486
SWIDTH 747 0
DWIDTH 55 0
BBX 49 54 3 0
BITMAP
00000080000000
00007FFF000000
0003FFFFE00000
000FFFFFFC0000
003FFFFFFE0000
00FFFFFFFF8000
01FFFFFFFFC000
03FFC001FFE000
07FE00003FF000
0FFC00001FF800
0FF0000007FC00
1FE0000003FC00
3FE0000001FE00
3FC0000001FE00
3F80000000FF00
7F80000000FF00
7F000000007F00
7F000000007F80
FF000000007F80
FF000000007F80
FF000000003F80
FF000000003F80
FF000000003F80
FF000000003F80
FF000000003F80
FF000000007F80
7F000000007F80
7F000000007F00
7F800000007F00
7F80000000FF00
3F80000000FE00
3FC0000001FE00
1FE0000003FC00
1FF0000007FC00
0FF800000FF800
07FC00001FF000
03FF00007FE000
01FFE003FFC000
00FFF80FFF8000
003FF80FFE0000
000FF80FF80000
0001F80FC00000
0000F80F800000
0000F80F800000
0000F80F800000
0000F80F800000
0000F80F800000
0000F80F800000
FFFFF80FFFFF80
FFFFF80FFFFF80
FFFFF80FFFFF80
FFFFF80FFFFF80
FFFFF80FFFFF80
7FFFF80FFFFF00
ENDCHAR
STARTCHAR partialdiff
ENCODING 8706
SWIDTH 580 0
DWIDTH 43 0
BBX 37 54 3 0
BITMAP
0000040000
0001FFE000
0007FFF800
001FFFFC00
003FFFFF00
003FFFFF00
001F807F80
000E003FC0
0000001FC0
0000000FE0
00000007E0
00000007E0
00000003F0
00000003F0
00000003F0
00000003F0
00000001F0
00000001F8
00000001F8
0001FE01F8
000FFFC1F8
003FFFE1F8
00FFFFF1F8
01FFFFF9F8
03FF81FDF8
07FC007FF8
0FF8003FF0
0FE0001FF0
1FC0000FF0
1FC0000FF0
3F800007F0
3F800007F0
7F000007F0
7F000007F0
7F000007E0
7F000007E0
7E000007E0
FE00000FE0
FE00000FC0
FE00000FC0
FE00001FC0
7E00001F80
7F00003F80
7F00003F00
7F00007F00
7F8000FE00
3F8001FC00
3FC003FC00
1FF00FF800
0FFFFFF000
07FFFFE000
03FFFF8000
01FFFF0000
007FF80000
ENDCHAR
STARTCHAR Delta
ENCODING 8710
SWIDTH 696 0
DWIDTH 52 0
BBX 50 53 1 0
BITMAP
000007F0000000
000007F8000000
00000FF8000000
00000FF8000000
00000FFC000000
00001FFC000000
00001FFE000000
00003FFE000000
00003FFE000000
00003F7F000000
00007F3F000000
00007F3F800000
0000FE3F800000
0000FE1FC00000
0001FC1FC00000
0001FC0FC00000
0001FC0FE00000
0003F80FE00000
0003F807F00000
0007F007F00000
0007F003F00000
0007F003F80000
000FE003F80000
000FE001FC0000
001FC001FC0000
001FC000FE0000
003FC000FE0000
003F8000FE0000
003F80007F0000
007F00007F0000
007F00003F8000
00FE00003F8000
00FE00003F8000
00FE00001FC000
01FC00001FC000
01FC00000FE000
03F800000FE000
03F800000FF000
03F8000007F000
07F0000007F000
07F0000003F800
0FE0000003F800
0FE0000001FC00
1FE0000001FC00
1FC0000001FC00
1FC0000000FE00
3F80000000FE00
3FFFFFFFFFFF00
7FFFFFFFFFFF00
7FFFFFFFFFFF80
7FFFFFFFFFFF80
FFFFFFFFFFFF80
FFFFFFFFFFFFC0
ENDCHAR
STARTCHAR product
ENCODING 8719
SWIDTH 684 0
DWIDTH 51 0
BBX 46 65 2 -12
BITMAP
FFFFFFFFFFFC
FFFFFFFFFFFC
FFFFFFFFFFFC
FFFFFFFFFFFC
FFFFFFFFFFFC
01FC00007E00
01FC00007E00
01FC00007E00
01FC00007E00
01FC00007E00
01FC00007E00
01FC00007E00
01FC00007E00
01FC00007E00
01FC00007E00
01FC00007E00
01FC00007E00
01FC00007E00
01FC00007E00
01FC00007E00
01FC00007E00
01FC00007E00
01FC00007E00
01FC00007E00
01FC00007E00
01FC00007E00
01FC00007E00
01FC00007E00
01FC00007E00
01FC00007E00
01FC00007E00
01FC00007E00
01FC00007E00
01FC00007E00
01FC00007E00
01FC00007E00
01FC00007E00
01FC00007E00
01FC00007E00
01FC00007E00
01FC00007E00
01FC00007E00
01FC00007E00
01FC00007E00
01FC00007E00
01FC00007E00
01FC00007E00
01FC00007E00
01FC00007E00
01FC00007E00
01FC00007E00
01FC00007E00
01FC00007E00
01FC00007E00
01FC00007E00
01FC00007E00
01FC00007E00
01FC00007E00
01FC00007E00
01FC00007E00
01FC00007E00
01FC00007E00
01FC00007E00
01FC00007E00
01FC00007E00
ENDCHAR
STARTCHAR summation
ENCODING 8721
SWIDTH 684 0
DWIDTH 51 0
BBX 44 65 3 -12
BITMAP
FFFFFFFFFFF0
FFFFFFFFFFF0
FFFFFFFFFFF0
FFFFFFFFFFF0
7FFFFFFFFFF0
3FE000000000
3FE000000000
1FF000000000
0FF800000000
07FC00000000
03FE00000000
01FE00000000
01FF00000000
00FF80000000
007FC0000000
003FE0000000
001FE0000000
000FF0000000
000FF8000000
0007FC000000
0003FE000000
0001FE000000
0000FF000000
00007F800000
00007FC00000
00003FE00000
00001FE00000
00000FF00000
000007F80000
000007FC0000
000003FE0000
000001FE0000
000000FF0000
000001FF0000
000003FE0000
000003FC0000
000007F80000
00000FF00000
00001FF00000
00003FE00000
00003FC00000
00007F800000
0000FF000000
0001FF000000
0003FE000000
0007FC000000
0007F8000000
000FF0000000
001FF0000000
003FE0000000
007FC0000000
00FF80000000
00FF00000000
01FE00000000
03FE00000000
07FC00000000
0FF800000000
1FF000000000
1FE000000000
3FE000000000
7FFFFFFFFFF0
FFFFFFFFFFF0
FFFFFFFFFFF0
FFFFFFFFFFF0
FFFFFFFFFFF0
ENDCHAR
STARTCHAR minus
ENCODING 8722
SWIDTH 580 0
DWIDTH 43 0
BBX 32 5 5 22
BITMAP
FFFFFFFF
FFFFFFFF
FFFFFFFF
FFFFFFFF
FFFFFFFF
ENDCHAR
STARTCHAR radical
ENCODING 8730
SWIDTH 573 0
DWIDTH 42 0
BBX 44 63 2 0
BITMAP
0000000003F0
0000000003E0
0000000007E0
0000000007E0
0000000007C0
000000000FC0
000000000FC0
000000000F80
000000001F80
000000001F80
000000001F00
000000003F00
000000003F00
000000003E00
000000007E00
000000007E00
000000007C00
00000000FC00
00000000FC00
00000000FC00
00000001F800
00000001F800
00000001F800
00000001F000
00000003F000
00000003F000
00000003E000
00000007E000
00000007E000
00000007C000
0000000FC000
0000000FC000
0000000F8000
0000001F8000
FFFC001F8000
FFFC001F0000
FFFE003F0000
FFFE003F0000
7FFE003E0000
007F007E0000
007F007E0000
003F007C0000
003F80FC0000
003F80FC0000
001FC0F80000
001FC1F80000
001FC1F80000
000FE1F00000
000FE1F00000
0007E3F00000
0007F3E00000
0007F3E00000
0003F7E00000
0003F7C00000
0001FFC00000
0001FFC00000
0001FF800000
0000FF800000
0000FF800000
0000FF800000
00007F000000
00007F000000
00003F000000
ENDCHAR
STARTCHAR infinity
ENCODING 8734
SWIDTH 684 0
DWIDTH 51 0
BBX 47 25 2 9
BITMAP
00FE0000FC00
03FF8007FF80
07FFE00FFFC0
0FFFF01FFFE0
1FFFF83FFFF0
3FC3FC7F87F8
7F00FCFE01F8
7E007EFC00FC
7C003FF800FC
FC003FF0007C
FC001FF0007C
F8000FE0007E
F8000FC0007E
F8000FE0007E
FC001FF0007C
FC003FF0007C
7C003FF800FC
7E007FFC00FC
7F00FEFE01F8
3FC3FC7F87F8
1FFFF83FFFF0
1FFFF01FFFE0
07FFE00FFFC0
03FF8007FF80
00FE0000FC00
ENDCHAR
STARTCHAR integral
ENCODING 8747
SWIDTH 400 0
DWIDTH 30 0
BBX 36 66 -4 -12
BITMAP
0000000200
0000007FF0
000000FFF0
000003FFF0
000007FFE0
000007FFC0
00000FF000
00001FE000
00001FC000
00001F8000
00003F8000
00003F8000
00003F0000
00003F0000
00003F0000
00003F0000
00007F0000
00007F0000
00007F0000
00007E0000
00007E0000
00007E0000
00007E0000
00007E0000
0000FE0000
0000FE0000
0000FE0000
0000FC0000
0000FC0000
0000FC0000
0000FC0000
0000FC0000
0001FC0000
0001FC0000
0001FC0000
0001F80000
0001F80000
0001F80000
0001F80000
0001F80000
0003F80000
0003F80000
0003F80000
0003F00000
0003F00000
0003F00000
0003F00000
0003F00000
0007F00000
0007F00000
0007F00000
0007E00000
0007E00000
0007E00000
0007E00000
000FE00000
000FC00000
001FC00000
001FC00000
003F800000
00FF000000
7FFF000000
FFFE000000
FFFC000000
FFF0000000
7FC0000000
ENDCHAR
STARTCHAR approxequal
ENCODING 8776
SWIDTH 580 0
DWIDTH 43 0
BBX 29 21 7 14
BITMAP
1FF00000
7FFE0008
FFFFE078
FFFFFFF8
FFFFFFF8
F03FFFF8
8003FFF0
00007FC0
00000000
00000000
00000000
00000000
0FE00000
3FFC0008
FFFF8018
FFFFF078
FFFFFFF8
F83FFFF8
C007FFF8
8001FFE0
00003F80
ENDCHAR
STARTCHAR notequal
ENCODING 8800
SWIDTH 580 0
DWIDTH 43 0
BBX 31 36 6 7
BITMAP
000003E0
000007C0
000007C0
00000F80
00000F80
00000F00
00001F00
00001F00
00003E00
00003E00
FFFFFFFE
FFFFFFFE
FFFFFFFE
FFFFFFFE
FFFFFFFE
0001F000
0001E000
0003E000
0003C000
0007C000
000F8000
000F8000
FFFFFFFE
FFFFFFFE
FFFFFFFE
FFFFFFFE
FFFFFFFE
007C0000
007C0000
00F80000
00F80000
01F00000
01F00000
03E00000
03E00000
03C00000
ENDCHAR
STARTCHAR lessequal
ENCODING 8804
SWIDTH 580 0
DWIDTH 43 0
BBX 29 40 5 3
BITMAP
00000018
00000078
000001F8
000007F8
00001FF8
00007FF8
0001FFE0
0007FF80
001FFE00
007FF000
01FFC000
07FF0000
1FFC0000
7FF00000
FF800000
FFC00000
7FF00000
1FFC0000
07FF0000
01FFC000
007FF800
001FFE00
0007FF80
0001FFE0
00007FF8
00001FF8
000007F8
000001F8
00000078
00000018
00000000
00000000
00000000
00000000
00000000
FFFFFFF8
FFFFFFF8
FFFFFFF8
FFFFFFF8
FFFFFFF8
ENDCHAR
STARTCHAR greaterequal
ENCODING 8805
SWIDTH 580 0
DWIDTH 43 0
BBX 28 40 9 3
BITMAP
C0000000
F0000000
FC000000
FF000000
FFC00000
FFF00000
3FFC0000
0FFF0000
03FFC000
00FFF000
001FFC00
0007FF00
0001FFC0
00007FF0
00000FF0
00001FF0
00007FF0
0001FFC0
0007FF00
003FFC00
00FFF000
03FFC000
0FFF0000
3FFC0000
FFF00000
FFC00000
FF000000
FC000000
F0000000
80000000
00000000
00000000
00000000
00000000
00000000
FFFFFFF0
FFFFFFF0
FFFFFFF0
FFFFFFF0
FFFFFFF0
ENDCHAR
STARTCHAR lozenge
ENCODING 9674
SWIDTH 580 0
DWIDTH 43 0
BBX 33 61 5 -4
BITMAP
0003E00000
0007E00000
0007F00000
0007F00000
000FF80000
000FF80000
001FFC0000
001F7C0000
003F7E0000
003E3E0000
007E3F0000
007C1F0000
00FC1F8000
00F80F8000
01F80FC000
01F007C000
03F007E000
03F003E000
07E003E000
07E003F000
07C001F000
0FC001F800
0F8000F800
1F8000FC00
1F00007C00
3F00007E00
3E00003E00
7E00003F00
7C00001F00
FC00001F80
F800000F80
FC00001F80
7C00001F00
7E00003F00
3E00003E00
3E00003E00
1F00007C00
1F00007C00
1F8000F800
0F8000F800
0FC001F800
07C001F000
07E003F000
03E003E000
03F007E000
01F007C000
01F80FC000
00F80F8000
00FC1F8000
007C1F0000
007E3F0000
003E3E0000
003F7E0000
001F7C0000
001F7C0000
000FF80000
000FF80000
0007F00000
0007F00000
0007E00000
0003E00000
ENDCHAR
STARTCHAR uni2669
ENCODING 9833
SWIDTH 0 0
DWIDTH 0 0
BBX 1 67 -1 -13
BITMAP
80
80
80
80
80
80
80
80
80
80
80
80
80
80
80
80
80
80
80
80
80
80
80
80
80
80
80
80
80
80
80
80
80
80
80
80
80
80
80
80
80
80
80
80
80
80
80
80
80
80
80
80
80
80
80
80
80
80
80
80
80
80
80
80
80
80
80
ENDCHAR
STARTCHAR fi
ENCODING 64257
SWIDTH 570 0
DWIDTH 42 0
BBX 35 54 1 0
BITMAP
00003FE000
0003FFF000
000FFFF000
001FFFF000
003FFFF000
007FF80000
00FF800000
00FE000000
01FC000000
01FC000000
03F8000000
03F8000000
03F8000000
03F0000000
03F0000000
03F0000000
03F0000000
FFFFFFFFE0
FFFFFFFFE0
FFFFFFFFE0
FFFFFFFFE0
7FFFFFFFE0
0FF8000FE0
03F8000FE0
03F8000FE0
03F8000FE0
03F8000FE0
03F8000FE0
03F8000FE0
03F8000FE0
03F8000FE0
03F8000FE0
03F8000FE0
03F8000FE0
03F8000FE0
03F8000FE0
03F8000FE0
03F8000FE0
03F8000FE0
03F8000FE0
03F8000FE0
03F8000FE0
03F8000FE0
03F8000FE0
03F8000FE0
03F8000FE0
03F8000FE0
03F8000FE0
03F8000FE0
03F8000FE0
03F8000FE0
03F8000FE0
03F8000FE0
03F8000FE0
ENDCHAR
STARTCHAR fl
ENCODING 64258
SWIDTH 594 0
DWIDTH 44 0
BBX 36 54 1 0
BITMAP
00007FFFF0
0003FFFFF0
000FFFFFF0
001FFFFFF0
003FFFFFF0
007FE003F0
00FF8003F0
00FE0003F0
01FC0003F0
01FC0003F0
03F80003F0
03F80003F0
03F80003F0
03F00003F0
03F00003F0
03F00003F0
03F00003F0
FFFFFC03F0
FFFFFC03F0
FFFFFC03F0
FFFFFC03F0
7FFFFC03F0
0FF80003F0
03F80003F0
03F80003F0
03F80003F0
03F80003F0
03F80003F0
03F80003F0
03F80003F0
03F80003F0
03F80003F0
03F80003F0
03F80003F0
03F80003F0
03F80003F0
03F80003F0
03F80003F0
03F80003F0
03F80003F0
03F80003F0
03F80003F0
03F80003F0
03F80003F0
03F80003F0
03F80003F0
03F80003F0
03F80003F0
03F80003F0
03F80003F0
03F80003F0
03F80003F0
03F80003F0
03F80003F0
ENDCHAR
STARTCHAR .notdef
ENCODING -1
SWIDTH 531 0
DWIDTH 39 0
BBX 36 53 2 0
BITMAP
FFFFFFFFF0
FFFFFFFFF0
C000000030
C000000030
C000000030
C000000030
C000000030
C007F80030
C01FFF0030
C07FFF8030
C0FFFFC030
C1FFFFE030
C0FC1FE030
C07007E030
C00007F030
C00003F030
C00003F030
C00003F030
C00007F030
C00007E030
C0000FE030
C0001FC030
C0007FC030
C000FF8030
C001FE0030
C001FC0030
C003F80030
C003F00030
C003F00030
C003F00030
C003E00030
C001E00030
C000000030
C000000030
C000000030
C000000030
C000000030
C000000030
C001E00030
C007F00030
C007F00030
C007F80030
C007F80030
C007F00030
C007F00030
C001E00030
C000000030
C000000030
C000000030
C000000030
C000000030
FFFFFFFFF0
FFFFFFFFF0
ENDCHAR
STARTCHAR grave.case
ENCODING -1
SWIDTH 307 0
DWIDTH 23 0
BBX 19 9 -2 57
BITMAP
FF0000
3FE000
1FF000
07F800
03FC00
01FE00
007F00
003F80
000FE0
ENDCHAR
STARTCHAR dieresis.case
ENCODING -1
SWIDTH 307 0
DWIDTH 23 0
BBX 24 8 -1 58
BITMAP
1C003C
7F007E
7F00FF
FF00FF
FF80FF
7F00FF
7F007E
1C003C
ENDCHAR
STARTCHAR macron.case
ENCODING -1
SWIDTH 307 0
DWIDTH 23 0
BBX 17 4 3 58
BITMAP
FFFF80
FFFF80
FFFF80
FFFF80
ENDCHAR
STARTCHAR acute.case
ENCODING -1
SWIDTH 307 0
DWIDTH 23 0
BBX 18 9 6 57
BITMAP
001FC0
00FF80
01FF00
03FC00
07F800
0FE000
1FC000
3F8000
FE0000
ENDCHAR
STARTCHAR circumflex.case
ENCODING -1
SWIDTH 307 0
DWIDTH 23 0
BBX 24 8 -1 57
BITMAP
00FF00
01FF80
03FFC0
07FFE0
0FE3F8
1FC1FC
3F00FE
FE003F
ENDCHAR
STARTCHAR caron.case
ENCODING -1
SWIDTH 307 0
DWIDTH 23 0
BBX 24 8 -1 57
BITMAP
FE003F
3F00FE
1FC1FC
0FE3F8
07FFE0
03FFC0
01FF80
007F00
ENDCHAR
STARTCHAR breve.case
ENCODING -1
SWIDTH 307 0
DWIDTH 23 0
BBX 21 9 1 56
BITMAP
F000F8
F000F8
F800F0
F801F0
7E03F0
7FFFE0
3FFFC0
0FFF80
03FC00
ENDCHAR
STARTCHAR dotaccent.case
ENCODING -1
SWIDTH 307 0
DWIDTH 23 0
BBX 9 9 7 58
BITMAP
3C00
7F00
FF00
FF80
FF80
FF80
FF00
7F00
3C00
ENDCHAR
STARTCHAR ring.case
ENCODING -1
SWIDTH 307 0
DWIDTH 23 0
BBX 14 13 4 55
BITMAP
07C0
1FF0
3FF8
783C
701C
F01C
F01C
F01C
701C
783C
3FF8
1FF0
07C0
ENDCHAR
STARTCHAR tilde.case
ENCODING -1
SWIDTH 307 0
DWIDTH 23 0
BBX 21 7 1 57
BITMAP
0F8078
3FE078
7FF8F8
7FFFF0
F8FFF0
F03FE0
F00FC0
ENDCHAR
STARTCHAR hungarumlaut.case
ENCODING -1
SWIDTH 307 0
DWIDTH 23 0
BBX 25 8 3 57
BITMAP
03F83F80
07E07E00
0FC0FC00
0F81F800
1F03E000
3E07C000
7C0F8000
F83F0000
ENDCHAR
ENDFONT
